G04 #@! TF.GenerationSoftware,KiCad,Pcbnew,5.1.6-c6e7f7d~87~ubuntu20.04.1*
G04 #@! TF.CreationDate,2020-07-24T16:02:03-06:00*
G04 #@! TF.ProjectId,heimdall_outsideboard,6865696d-6461-46c6-9c5f-6f7574736964,0.3*
G04 #@! TF.SameCoordinates,Original*
G04 #@! TF.FileFunction,Legend,Top*
G04 #@! TF.FilePolarity,Positive*
%FSLAX46Y46*%
G04 Gerber Fmt 4.6, Leading zero omitted, Abs format (unit mm)*
G04 Created by KiCad (PCBNEW 5.1.6-c6e7f7d~87~ubuntu20.04.1) date 2020-07-24 16:02:03*
%MOMM*%
%LPD*%
G01*
G04 APERTURE LIST*
%ADD10C,0.150000*%
%ADD11C,0.120000*%
%ADD12C,0.100000*%
%ADD13C,0.203200*%
%ADD14C,0.127000*%
G04 APERTURE END LIST*
D10*
X84534571Y-102560380D02*
X84534571Y-101560380D01*
X84867904Y-102274666D01*
X85201238Y-101560380D01*
X85201238Y-102560380D01*
X85677428Y-102560380D02*
X85677428Y-101560380D01*
X86106000Y-102512761D02*
X86248857Y-102560380D01*
X86486952Y-102560380D01*
X86582190Y-102512761D01*
X86629809Y-102465142D01*
X86677428Y-102369904D01*
X86677428Y-102274666D01*
X86629809Y-102179428D01*
X86582190Y-102131809D01*
X86486952Y-102084190D01*
X86296476Y-102036571D01*
X86201238Y-101988952D01*
X86153619Y-101941333D01*
X86106000Y-101846095D01*
X86106000Y-101750857D01*
X86153619Y-101655619D01*
X86201238Y-101608000D01*
X86296476Y-101560380D01*
X86534571Y-101560380D01*
X86677428Y-101608000D01*
X87296476Y-101560380D02*
X87486952Y-101560380D01*
X87582190Y-101608000D01*
X87677428Y-101703238D01*
X87725047Y-101893714D01*
X87725047Y-102227047D01*
X87677428Y-102417523D01*
X87582190Y-102512761D01*
X87486952Y-102560380D01*
X87296476Y-102560380D01*
X87201238Y-102512761D01*
X87106000Y-102417523D01*
X87058380Y-102227047D01*
X87058380Y-101893714D01*
X87106000Y-101703238D01*
X87201238Y-101608000D01*
X87296476Y-101560380D01*
X84534571Y-100020380D02*
X84534571Y-99020380D01*
X84867904Y-99734666D01*
X85201238Y-99020380D01*
X85201238Y-100020380D01*
X85867904Y-99020380D02*
X86058380Y-99020380D01*
X86153619Y-99068000D01*
X86248857Y-99163238D01*
X86296476Y-99353714D01*
X86296476Y-99687047D01*
X86248857Y-99877523D01*
X86153619Y-99972761D01*
X86058380Y-100020380D01*
X85867904Y-100020380D01*
X85772666Y-99972761D01*
X85677428Y-99877523D01*
X85629809Y-99687047D01*
X85629809Y-99353714D01*
X85677428Y-99163238D01*
X85772666Y-99068000D01*
X85867904Y-99020380D01*
X86677428Y-99972761D02*
X86820285Y-100020380D01*
X87058380Y-100020380D01*
X87153619Y-99972761D01*
X87201238Y-99925142D01*
X87248857Y-99829904D01*
X87248857Y-99734666D01*
X87201238Y-99639428D01*
X87153619Y-99591809D01*
X87058380Y-99544190D01*
X86867904Y-99496571D01*
X86772666Y-99448952D01*
X86725047Y-99401333D01*
X86677428Y-99306095D01*
X86677428Y-99210857D01*
X86725047Y-99115619D01*
X86772666Y-99068000D01*
X86867904Y-99020380D01*
X87106000Y-99020380D01*
X87248857Y-99068000D01*
X87677428Y-100020380D02*
X87677428Y-99020380D01*
X85074285Y-97432761D02*
X85217142Y-97480380D01*
X85455238Y-97480380D01*
X85550476Y-97432761D01*
X85598095Y-97385142D01*
X85645714Y-97289904D01*
X85645714Y-97194666D01*
X85598095Y-97099428D01*
X85550476Y-97051809D01*
X85455238Y-97004190D01*
X85264761Y-96956571D01*
X85169523Y-96908952D01*
X85121904Y-96861333D01*
X85074285Y-96766095D01*
X85074285Y-96670857D01*
X85121904Y-96575619D01*
X85169523Y-96528000D01*
X85264761Y-96480380D01*
X85502857Y-96480380D01*
X85645714Y-96528000D01*
X86645714Y-97385142D02*
X86598095Y-97432761D01*
X86455238Y-97480380D01*
X86360000Y-97480380D01*
X86217142Y-97432761D01*
X86121904Y-97337523D01*
X86074285Y-97242285D01*
X86026666Y-97051809D01*
X86026666Y-96908952D01*
X86074285Y-96718476D01*
X86121904Y-96623238D01*
X86217142Y-96528000D01*
X86360000Y-96480380D01*
X86455238Y-96480380D01*
X86598095Y-96528000D01*
X86645714Y-96575619D01*
X87074285Y-97480380D02*
X87074285Y-96480380D01*
X87645714Y-97480380D02*
X87217142Y-96908952D01*
X87645714Y-96480380D02*
X87074285Y-97051809D01*
X86701333Y-94845142D02*
X86653714Y-94892761D01*
X86510857Y-94940380D01*
X86415619Y-94940380D01*
X86272761Y-94892761D01*
X86177523Y-94797523D01*
X86129904Y-94702285D01*
X86082285Y-94511809D01*
X86082285Y-94368952D01*
X86129904Y-94178476D01*
X86177523Y-94083238D01*
X86272761Y-93988000D01*
X86415619Y-93940380D01*
X86510857Y-93940380D01*
X86653714Y-93988000D01*
X86701333Y-94035619D01*
X87082285Y-94892761D02*
X87225142Y-94940380D01*
X87463238Y-94940380D01*
X87558476Y-94892761D01*
X87606095Y-94845142D01*
X87653714Y-94749904D01*
X87653714Y-94654666D01*
X87606095Y-94559428D01*
X87558476Y-94511809D01*
X87463238Y-94464190D01*
X87272761Y-94416571D01*
X87177523Y-94368952D01*
X87129904Y-94321333D01*
X87082285Y-94226095D01*
X87082285Y-94130857D01*
X87129904Y-94035619D01*
X87177523Y-93988000D01*
X87272761Y-93940380D01*
X87510857Y-93940380D01*
X87653714Y-93988000D01*
X85344095Y-91448000D02*
X85248857Y-91400380D01*
X85106000Y-91400380D01*
X84963142Y-91448000D01*
X84867904Y-91543238D01*
X84820285Y-91638476D01*
X84772666Y-91828952D01*
X84772666Y-91971809D01*
X84820285Y-92162285D01*
X84867904Y-92257523D01*
X84963142Y-92352761D01*
X85106000Y-92400380D01*
X85201238Y-92400380D01*
X85344095Y-92352761D01*
X85391714Y-92305142D01*
X85391714Y-91971809D01*
X85201238Y-91971809D01*
X85820285Y-92400380D02*
X85820285Y-91400380D01*
X86391714Y-92400380D01*
X86391714Y-91400380D01*
X86867904Y-92400380D02*
X86867904Y-91400380D01*
X87106000Y-91400380D01*
X87248857Y-91448000D01*
X87344095Y-91543238D01*
X87391714Y-91638476D01*
X87439333Y-91828952D01*
X87439333Y-91971809D01*
X87391714Y-92162285D01*
X87344095Y-92257523D01*
X87248857Y-92352761D01*
X87106000Y-92400380D01*
X86867904Y-92400380D01*
X83598000Y-89479428D02*
X84359904Y-89479428D01*
X83978952Y-89860380D02*
X83978952Y-89098476D01*
X84740857Y-88860380D02*
X85359904Y-88860380D01*
X85026571Y-89241333D01*
X85169428Y-89241333D01*
X85264666Y-89288952D01*
X85312285Y-89336571D01*
X85359904Y-89431809D01*
X85359904Y-89669904D01*
X85312285Y-89765142D01*
X85264666Y-89812761D01*
X85169428Y-89860380D01*
X84883714Y-89860380D01*
X84788476Y-89812761D01*
X84740857Y-89765142D01*
X85788476Y-89765142D02*
X85836095Y-89812761D01*
X85788476Y-89860380D01*
X85740857Y-89812761D01*
X85788476Y-89765142D01*
X85788476Y-89860380D01*
X86169428Y-88860380D02*
X86788476Y-88860380D01*
X86455142Y-89241333D01*
X86598000Y-89241333D01*
X86693238Y-89288952D01*
X86740857Y-89336571D01*
X86788476Y-89431809D01*
X86788476Y-89669904D01*
X86740857Y-89765142D01*
X86693238Y-89812761D01*
X86598000Y-89860380D01*
X86312285Y-89860380D01*
X86217047Y-89812761D01*
X86169428Y-89765142D01*
X87074190Y-88860380D02*
X87407523Y-89860380D01*
X87740857Y-88860380D01*
X53189428Y-109656571D02*
X53332285Y-109704190D01*
X53379904Y-109751809D01*
X53427523Y-109847047D01*
X53427523Y-109989904D01*
X53379904Y-110085142D01*
X53332285Y-110132761D01*
X53237047Y-110180380D01*
X52856095Y-110180380D01*
X52856095Y-109180380D01*
X53189428Y-109180380D01*
X53284666Y-109228000D01*
X53332285Y-109275619D01*
X53379904Y-109370857D01*
X53379904Y-109466095D01*
X53332285Y-109561333D01*
X53284666Y-109608952D01*
X53189428Y-109656571D01*
X52856095Y-109656571D01*
X54284666Y-109513714D02*
X54284666Y-110180380D01*
X53856095Y-109513714D02*
X53856095Y-110037523D01*
X53903714Y-110132761D01*
X53998952Y-110180380D01*
X54141809Y-110180380D01*
X54237047Y-110132761D01*
X54284666Y-110085142D01*
X54665619Y-109513714D02*
X55189428Y-109513714D01*
X54665619Y-110180380D01*
X55189428Y-110180380D01*
X55475142Y-109513714D02*
X55998952Y-109513714D01*
X55475142Y-110180380D01*
X55998952Y-110180380D01*
X56760857Y-110132761D02*
X56665619Y-110180380D01*
X56475142Y-110180380D01*
X56379904Y-110132761D01*
X56332285Y-110037523D01*
X56332285Y-109656571D01*
X56379904Y-109561333D01*
X56475142Y-109513714D01*
X56665619Y-109513714D01*
X56760857Y-109561333D01*
X56808476Y-109656571D01*
X56808476Y-109751809D01*
X56332285Y-109847047D01*
X57237047Y-110180380D02*
X57237047Y-109513714D01*
X57237047Y-109704190D02*
X57284666Y-109608952D01*
X57332285Y-109561333D01*
X57427523Y-109513714D01*
X57522761Y-109513714D01*
X56507142Y-105100380D02*
X56030952Y-105100380D01*
X56030952Y-104100380D01*
X56840476Y-104576571D02*
X57173809Y-104576571D01*
X57316666Y-105100380D02*
X56840476Y-105100380D01*
X56840476Y-104100380D01*
X57316666Y-104100380D01*
X57745238Y-105100380D02*
X57745238Y-104100380D01*
X57983333Y-104100380D01*
X58126190Y-104148000D01*
X58221428Y-104243238D01*
X58269047Y-104338476D01*
X58316666Y-104528952D01*
X58316666Y-104671809D01*
X58269047Y-104862285D01*
X58221428Y-104957523D01*
X58126190Y-105052761D01*
X57983333Y-105100380D01*
X57745238Y-105100380D01*
X56086571Y-102560380D02*
X56086571Y-101560380D01*
X56419904Y-102274666D01*
X56753238Y-101560380D01*
X56753238Y-102560380D01*
X57229428Y-102560380D02*
X57229428Y-101560380D01*
X57658000Y-102512761D02*
X57800857Y-102560380D01*
X58038952Y-102560380D01*
X58134190Y-102512761D01*
X58181809Y-102465142D01*
X58229428Y-102369904D01*
X58229428Y-102274666D01*
X58181809Y-102179428D01*
X58134190Y-102131809D01*
X58038952Y-102084190D01*
X57848476Y-102036571D01*
X57753238Y-101988952D01*
X57705619Y-101941333D01*
X57658000Y-101846095D01*
X57658000Y-101750857D01*
X57705619Y-101655619D01*
X57753238Y-101608000D01*
X57848476Y-101560380D01*
X58086571Y-101560380D01*
X58229428Y-101608000D01*
X58848476Y-101560380D02*
X59038952Y-101560380D01*
X59134190Y-101608000D01*
X59229428Y-101703238D01*
X59277047Y-101893714D01*
X59277047Y-102227047D01*
X59229428Y-102417523D01*
X59134190Y-102512761D01*
X59038952Y-102560380D01*
X58848476Y-102560380D01*
X58753238Y-102512761D01*
X58658000Y-102417523D01*
X58610380Y-102227047D01*
X58610380Y-101893714D01*
X58658000Y-101703238D01*
X58753238Y-101608000D01*
X58848476Y-101560380D01*
X56086571Y-100020380D02*
X56086571Y-99020380D01*
X56419904Y-99734666D01*
X56753238Y-99020380D01*
X56753238Y-100020380D01*
X57419904Y-99020380D02*
X57610380Y-99020380D01*
X57705619Y-99068000D01*
X57800857Y-99163238D01*
X57848476Y-99353714D01*
X57848476Y-99687047D01*
X57800857Y-99877523D01*
X57705619Y-99972761D01*
X57610380Y-100020380D01*
X57419904Y-100020380D01*
X57324666Y-99972761D01*
X57229428Y-99877523D01*
X57181809Y-99687047D01*
X57181809Y-99353714D01*
X57229428Y-99163238D01*
X57324666Y-99068000D01*
X57419904Y-99020380D01*
X58229428Y-99972761D02*
X58372285Y-100020380D01*
X58610380Y-100020380D01*
X58705619Y-99972761D01*
X58753238Y-99925142D01*
X58800857Y-99829904D01*
X58800857Y-99734666D01*
X58753238Y-99639428D01*
X58705619Y-99591809D01*
X58610380Y-99544190D01*
X58419904Y-99496571D01*
X58324666Y-99448952D01*
X58277047Y-99401333D01*
X58229428Y-99306095D01*
X58229428Y-99210857D01*
X58277047Y-99115619D01*
X58324666Y-99068000D01*
X58419904Y-99020380D01*
X58658000Y-99020380D01*
X58800857Y-99068000D01*
X59229428Y-100020380D02*
X59229428Y-99020380D01*
X56118285Y-97432761D02*
X56261142Y-97480380D01*
X56499238Y-97480380D01*
X56594476Y-97432761D01*
X56642095Y-97385142D01*
X56689714Y-97289904D01*
X56689714Y-97194666D01*
X56642095Y-97099428D01*
X56594476Y-97051809D01*
X56499238Y-97004190D01*
X56308761Y-96956571D01*
X56213523Y-96908952D01*
X56165904Y-96861333D01*
X56118285Y-96766095D01*
X56118285Y-96670857D01*
X56165904Y-96575619D01*
X56213523Y-96528000D01*
X56308761Y-96480380D01*
X56546857Y-96480380D01*
X56689714Y-96528000D01*
X57689714Y-97385142D02*
X57642095Y-97432761D01*
X57499238Y-97480380D01*
X57404000Y-97480380D01*
X57261142Y-97432761D01*
X57165904Y-97337523D01*
X57118285Y-97242285D01*
X57070666Y-97051809D01*
X57070666Y-96908952D01*
X57118285Y-96718476D01*
X57165904Y-96623238D01*
X57261142Y-96528000D01*
X57404000Y-96480380D01*
X57499238Y-96480380D01*
X57642095Y-96528000D01*
X57689714Y-96575619D01*
X58118285Y-97480380D02*
X58118285Y-96480380D01*
X58689714Y-97480380D02*
X58261142Y-96908952D01*
X58689714Y-96480380D02*
X58118285Y-97051809D01*
X56729333Y-94845142D02*
X56681714Y-94892761D01*
X56538857Y-94940380D01*
X56443619Y-94940380D01*
X56300761Y-94892761D01*
X56205523Y-94797523D01*
X56157904Y-94702285D01*
X56110285Y-94511809D01*
X56110285Y-94368952D01*
X56157904Y-94178476D01*
X56205523Y-94083238D01*
X56300761Y-93988000D01*
X56443619Y-93940380D01*
X56538857Y-93940380D01*
X56681714Y-93988000D01*
X56729333Y-94035619D01*
X57110285Y-94892761D02*
X57253142Y-94940380D01*
X57491238Y-94940380D01*
X57586476Y-94892761D01*
X57634095Y-94845142D01*
X57681714Y-94749904D01*
X57681714Y-94654666D01*
X57634095Y-94559428D01*
X57586476Y-94511809D01*
X57491238Y-94464190D01*
X57300761Y-94416571D01*
X57205523Y-94368952D01*
X57157904Y-94321333D01*
X57110285Y-94226095D01*
X57110285Y-94130857D01*
X57157904Y-94035619D01*
X57205523Y-93988000D01*
X57300761Y-93940380D01*
X57538857Y-93940380D01*
X57681714Y-93988000D01*
X56642095Y-91448000D02*
X56546857Y-91400380D01*
X56404000Y-91400380D01*
X56261142Y-91448000D01*
X56165904Y-91543238D01*
X56118285Y-91638476D01*
X56070666Y-91828952D01*
X56070666Y-91971809D01*
X56118285Y-92162285D01*
X56165904Y-92257523D01*
X56261142Y-92352761D01*
X56404000Y-92400380D01*
X56499238Y-92400380D01*
X56642095Y-92352761D01*
X56689714Y-92305142D01*
X56689714Y-91971809D01*
X56499238Y-91971809D01*
X57118285Y-92400380D02*
X57118285Y-91400380D01*
X57689714Y-92400380D01*
X57689714Y-91400380D01*
X58165904Y-92400380D02*
X58165904Y-91400380D01*
X58404000Y-91400380D01*
X58546857Y-91448000D01*
X58642095Y-91543238D01*
X58689714Y-91638476D01*
X58737333Y-91828952D01*
X58737333Y-91971809D01*
X58689714Y-92162285D01*
X58642095Y-92257523D01*
X58546857Y-92352761D01*
X58404000Y-92400380D01*
X58165904Y-92400380D01*
X55912000Y-89479428D02*
X56673904Y-89479428D01*
X56292952Y-89860380D02*
X56292952Y-89098476D01*
X57054857Y-88860380D02*
X57673904Y-88860380D01*
X57340571Y-89241333D01*
X57483428Y-89241333D01*
X57578666Y-89288952D01*
X57626285Y-89336571D01*
X57673904Y-89431809D01*
X57673904Y-89669904D01*
X57626285Y-89765142D01*
X57578666Y-89812761D01*
X57483428Y-89860380D01*
X57197714Y-89860380D01*
X57102476Y-89812761D01*
X57054857Y-89765142D01*
X58102476Y-89765142D02*
X58150095Y-89812761D01*
X58102476Y-89860380D01*
X58054857Y-89812761D01*
X58102476Y-89765142D01*
X58102476Y-89860380D01*
X58483428Y-88860380D02*
X59102476Y-88860380D01*
X58769142Y-89241333D01*
X58912000Y-89241333D01*
X59007238Y-89288952D01*
X59054857Y-89336571D01*
X59102476Y-89431809D01*
X59102476Y-89669904D01*
X59054857Y-89765142D01*
X59007238Y-89812761D01*
X58912000Y-89860380D01*
X58626285Y-89860380D01*
X58531047Y-89812761D01*
X58483428Y-89765142D01*
X59388190Y-88860380D02*
X59721523Y-89860380D01*
X60054857Y-88860380D01*
X56118285Y-86939428D02*
X56880190Y-86939428D01*
X56499238Y-87320380D02*
X56499238Y-86558476D01*
X57832571Y-86320380D02*
X57356380Y-86320380D01*
X57308761Y-86796571D01*
X57356380Y-86748952D01*
X57451619Y-86701333D01*
X57689714Y-86701333D01*
X57784952Y-86748952D01*
X57832571Y-86796571D01*
X57880190Y-86891809D01*
X57880190Y-87129904D01*
X57832571Y-87225142D01*
X57784952Y-87272761D01*
X57689714Y-87320380D01*
X57451619Y-87320380D01*
X57356380Y-87272761D01*
X57308761Y-87225142D01*
X58165904Y-86320380D02*
X58499238Y-87320380D01*
X58832571Y-86320380D01*
X51396761Y-118054380D02*
X51396761Y-117054380D01*
X51396761Y-117530571D02*
X51968190Y-117530571D01*
X51968190Y-118054380D02*
X51968190Y-117054380D01*
X52825333Y-118006761D02*
X52730095Y-118054380D01*
X52539619Y-118054380D01*
X52444380Y-118006761D01*
X52396761Y-117911523D01*
X52396761Y-117530571D01*
X52444380Y-117435333D01*
X52539619Y-117387714D01*
X52730095Y-117387714D01*
X52825333Y-117435333D01*
X52872952Y-117530571D01*
X52872952Y-117625809D01*
X52396761Y-117721047D01*
X53301523Y-118054380D02*
X53301523Y-117387714D01*
X53301523Y-117054380D02*
X53253904Y-117102000D01*
X53301523Y-117149619D01*
X53349142Y-117102000D01*
X53301523Y-117054380D01*
X53301523Y-117149619D01*
X53777714Y-118054380D02*
X53777714Y-117387714D01*
X53777714Y-117482952D02*
X53825333Y-117435333D01*
X53920571Y-117387714D01*
X54063428Y-117387714D01*
X54158666Y-117435333D01*
X54206285Y-117530571D01*
X54206285Y-118054380D01*
X54206285Y-117530571D02*
X54253904Y-117435333D01*
X54349142Y-117387714D01*
X54492000Y-117387714D01*
X54587238Y-117435333D01*
X54634857Y-117530571D01*
X54634857Y-118054380D01*
X55539619Y-118054380D02*
X55539619Y-117054380D01*
X55539619Y-118006761D02*
X55444380Y-118054380D01*
X55253904Y-118054380D01*
X55158666Y-118006761D01*
X55111047Y-117959142D01*
X55063428Y-117863904D01*
X55063428Y-117578190D01*
X55111047Y-117482952D01*
X55158666Y-117435333D01*
X55253904Y-117387714D01*
X55444380Y-117387714D01*
X55539619Y-117435333D01*
X56444380Y-118054380D02*
X56444380Y-117530571D01*
X56396761Y-117435333D01*
X56301523Y-117387714D01*
X56111047Y-117387714D01*
X56015809Y-117435333D01*
X56444380Y-118006761D02*
X56349142Y-118054380D01*
X56111047Y-118054380D01*
X56015809Y-118006761D01*
X55968190Y-117911523D01*
X55968190Y-117816285D01*
X56015809Y-117721047D01*
X56111047Y-117673428D01*
X56349142Y-117673428D01*
X56444380Y-117625809D01*
X57063428Y-118054380D02*
X56968190Y-118006761D01*
X56920571Y-117911523D01*
X56920571Y-117054380D01*
X57587238Y-118054380D02*
X57492000Y-118006761D01*
X57444380Y-117911523D01*
X57444380Y-117054380D01*
X58682476Y-117768666D02*
X59158666Y-117768666D01*
X58587238Y-118054380D02*
X58920571Y-117054380D01*
X59253904Y-118054380D01*
X60015809Y-118006761D02*
X59920571Y-118054380D01*
X59730095Y-118054380D01*
X59634857Y-118006761D01*
X59587238Y-117959142D01*
X59539619Y-117863904D01*
X59539619Y-117578190D01*
X59587238Y-117482952D01*
X59634857Y-117435333D01*
X59730095Y-117387714D01*
X59920571Y-117387714D01*
X60015809Y-117435333D01*
X60872952Y-118006761D02*
X60777714Y-118054380D01*
X60587238Y-118054380D01*
X60492000Y-118006761D01*
X60444380Y-117959142D01*
X60396761Y-117863904D01*
X60396761Y-117578190D01*
X60444380Y-117482952D01*
X60492000Y-117435333D01*
X60587238Y-117387714D01*
X60777714Y-117387714D01*
X60872952Y-117435333D01*
X61682476Y-118006761D02*
X61587238Y-118054380D01*
X61396761Y-118054380D01*
X61301523Y-118006761D01*
X61253904Y-117911523D01*
X61253904Y-117530571D01*
X61301523Y-117435333D01*
X61396761Y-117387714D01*
X61587238Y-117387714D01*
X61682476Y-117435333D01*
X61730095Y-117530571D01*
X61730095Y-117625809D01*
X61253904Y-117721047D01*
X62111047Y-118006761D02*
X62206285Y-118054380D01*
X62396761Y-118054380D01*
X62491999Y-118006761D01*
X62539619Y-117911523D01*
X62539619Y-117863904D01*
X62491999Y-117768666D01*
X62396761Y-117721047D01*
X62253904Y-117721047D01*
X62158666Y-117673428D01*
X62111047Y-117578190D01*
X62111047Y-117530571D01*
X62158666Y-117435333D01*
X62253904Y-117387714D01*
X62396761Y-117387714D01*
X62491999Y-117435333D01*
X62920571Y-118006761D02*
X63015809Y-118054380D01*
X63206285Y-118054380D01*
X63301523Y-118006761D01*
X63349142Y-117911523D01*
X63349142Y-117863904D01*
X63301523Y-117768666D01*
X63206285Y-117721047D01*
X63063428Y-117721047D01*
X62968190Y-117673428D01*
X62920571Y-117578190D01*
X62920571Y-117530571D01*
X62968190Y-117435333D01*
X63063428Y-117387714D01*
X63206285Y-117387714D01*
X63301523Y-117435333D01*
X65111047Y-117959142D02*
X65063428Y-118006761D01*
X64920571Y-118054380D01*
X64825333Y-118054380D01*
X64682476Y-118006761D01*
X64587238Y-117911523D01*
X64539619Y-117816285D01*
X64491999Y-117625809D01*
X64491999Y-117482952D01*
X64539619Y-117292476D01*
X64587238Y-117197238D01*
X64682476Y-117102000D01*
X64825333Y-117054380D01*
X64920571Y-117054380D01*
X65063428Y-117102000D01*
X65111047Y-117149619D01*
X65682476Y-118054380D02*
X65587238Y-118006761D01*
X65539619Y-117959142D01*
X65491999Y-117863904D01*
X65491999Y-117578190D01*
X65539619Y-117482952D01*
X65587238Y-117435333D01*
X65682476Y-117387714D01*
X65825333Y-117387714D01*
X65920571Y-117435333D01*
X65968190Y-117482952D01*
X66015809Y-117578190D01*
X66015809Y-117863904D01*
X65968190Y-117959142D01*
X65920571Y-118006761D01*
X65825333Y-118054380D01*
X65682476Y-118054380D01*
X66444380Y-117387714D02*
X66444380Y-118054380D01*
X66444380Y-117482952D02*
X66491999Y-117435333D01*
X66587238Y-117387714D01*
X66730095Y-117387714D01*
X66825333Y-117435333D01*
X66872952Y-117530571D01*
X66872952Y-118054380D01*
X67206285Y-117387714D02*
X67587238Y-117387714D01*
X67349142Y-117054380D02*
X67349142Y-117911523D01*
X67396761Y-118006761D01*
X67492000Y-118054380D01*
X67587238Y-118054380D01*
X67920571Y-118054380D02*
X67920571Y-117387714D01*
X67920571Y-117578190D02*
X67968190Y-117482952D01*
X68015809Y-117435333D01*
X68111047Y-117387714D01*
X68206285Y-117387714D01*
X68682476Y-118054380D02*
X68587238Y-118006761D01*
X68539619Y-117959142D01*
X68492000Y-117863904D01*
X68492000Y-117578190D01*
X68539619Y-117482952D01*
X68587238Y-117435333D01*
X68682476Y-117387714D01*
X68825333Y-117387714D01*
X68920571Y-117435333D01*
X68968190Y-117482952D01*
X69015809Y-117578190D01*
X69015809Y-117863904D01*
X68968190Y-117959142D01*
X68920571Y-118006761D01*
X68825333Y-118054380D01*
X68682476Y-118054380D01*
X69587238Y-118054380D02*
X69492000Y-118006761D01*
X69444380Y-117911523D01*
X69444380Y-117054380D01*
X71063428Y-117530571D02*
X71206285Y-117578190D01*
X71253904Y-117625809D01*
X71301523Y-117721047D01*
X71301523Y-117863904D01*
X71253904Y-117959142D01*
X71206285Y-118006761D01*
X71111047Y-118054380D01*
X70730095Y-118054380D01*
X70730095Y-117054380D01*
X71063428Y-117054380D01*
X71158666Y-117102000D01*
X71206285Y-117149619D01*
X71253904Y-117244857D01*
X71253904Y-117340095D01*
X71206285Y-117435333D01*
X71158666Y-117482952D01*
X71063428Y-117530571D01*
X70730095Y-117530571D01*
X71872952Y-118054380D02*
X71777714Y-118006761D01*
X71730095Y-117959142D01*
X71682476Y-117863904D01*
X71682476Y-117578190D01*
X71730095Y-117482952D01*
X71777714Y-117435333D01*
X71872952Y-117387714D01*
X72015809Y-117387714D01*
X72111047Y-117435333D01*
X72158666Y-117482952D01*
X72206285Y-117578190D01*
X72206285Y-117863904D01*
X72158666Y-117959142D01*
X72111047Y-118006761D01*
X72015809Y-118054380D01*
X71872952Y-118054380D01*
X73063428Y-118054380D02*
X73063428Y-117530571D01*
X73015809Y-117435333D01*
X72920571Y-117387714D01*
X72730095Y-117387714D01*
X72634857Y-117435333D01*
X73063428Y-118006761D02*
X72968190Y-118054380D01*
X72730095Y-118054380D01*
X72634857Y-118006761D01*
X72587238Y-117911523D01*
X72587238Y-117816285D01*
X72634857Y-117721047D01*
X72730095Y-117673428D01*
X72968190Y-117673428D01*
X73063428Y-117625809D01*
X73539619Y-118054380D02*
X73539619Y-117387714D01*
X73539619Y-117578190D02*
X73587238Y-117482952D01*
X73634857Y-117435333D01*
X73730095Y-117387714D01*
X73825333Y-117387714D01*
X74587238Y-118054380D02*
X74587238Y-117054380D01*
X74587238Y-118006761D02*
X74491999Y-118054380D01*
X74301523Y-118054380D01*
X74206285Y-118006761D01*
X74158666Y-117959142D01*
X74111047Y-117863904D01*
X74111047Y-117578190D01*
X74158666Y-117482952D01*
X74206285Y-117435333D01*
X74301523Y-117387714D01*
X74491999Y-117387714D01*
X74587238Y-117435333D01*
X51896952Y-119165714D02*
X51896952Y-119975238D01*
X51849333Y-120070476D01*
X51801714Y-120118095D01*
X51706476Y-120165714D01*
X51563619Y-120165714D01*
X51468380Y-120118095D01*
X51896952Y-119784761D02*
X51801714Y-119832380D01*
X51611238Y-119832380D01*
X51515999Y-119784761D01*
X51468380Y-119737142D01*
X51420761Y-119641904D01*
X51420761Y-119356190D01*
X51468380Y-119260952D01*
X51515999Y-119213333D01*
X51611238Y-119165714D01*
X51801714Y-119165714D01*
X51896952Y-119213333D01*
X52373142Y-119832380D02*
X52373142Y-119165714D01*
X52373142Y-118832380D02*
X52325523Y-118880000D01*
X52373142Y-118927619D01*
X52420761Y-118880000D01*
X52373142Y-118832380D01*
X52373142Y-118927619D01*
X52706476Y-119165714D02*
X53087428Y-119165714D01*
X52849333Y-118832380D02*
X52849333Y-119689523D01*
X52896952Y-119784761D01*
X52992190Y-119832380D01*
X53087428Y-119832380D01*
X53420761Y-119832380D02*
X53420761Y-118832380D01*
X53849333Y-119832380D02*
X53849333Y-119308571D01*
X53801714Y-119213333D01*
X53706476Y-119165714D01*
X53563619Y-119165714D01*
X53468380Y-119213333D01*
X53420761Y-119260952D01*
X54754095Y-119165714D02*
X54754095Y-119832380D01*
X54325523Y-119165714D02*
X54325523Y-119689523D01*
X54373142Y-119784761D01*
X54468380Y-119832380D01*
X54611238Y-119832380D01*
X54706476Y-119784761D01*
X54754095Y-119737142D01*
X55230285Y-119832380D02*
X55230285Y-118832380D01*
X55230285Y-119213333D02*
X55325523Y-119165714D01*
X55515999Y-119165714D01*
X55611238Y-119213333D01*
X55658857Y-119260952D01*
X55706476Y-119356190D01*
X55706476Y-119641904D01*
X55658857Y-119737142D01*
X55611238Y-119784761D01*
X55515999Y-119832380D01*
X55325523Y-119832380D01*
X55230285Y-119784761D01*
X56135047Y-119737142D02*
X56182666Y-119784761D01*
X56135047Y-119832380D01*
X56087428Y-119784761D01*
X56135047Y-119737142D01*
X56135047Y-119832380D01*
X57039809Y-119784761D02*
X56944571Y-119832380D01*
X56754095Y-119832380D01*
X56658857Y-119784761D01*
X56611238Y-119737142D01*
X56563619Y-119641904D01*
X56563619Y-119356190D01*
X56611238Y-119260952D01*
X56658857Y-119213333D01*
X56754095Y-119165714D01*
X56944571Y-119165714D01*
X57039809Y-119213333D01*
X57611238Y-119832380D02*
X57515999Y-119784761D01*
X57468380Y-119737142D01*
X57420761Y-119641904D01*
X57420761Y-119356190D01*
X57468380Y-119260952D01*
X57515999Y-119213333D01*
X57611238Y-119165714D01*
X57754095Y-119165714D01*
X57849333Y-119213333D01*
X57896952Y-119260952D01*
X57944571Y-119356190D01*
X57944571Y-119641904D01*
X57896952Y-119737142D01*
X57849333Y-119784761D01*
X57754095Y-119832380D01*
X57611238Y-119832380D01*
X58373142Y-119832380D02*
X58373142Y-119165714D01*
X58373142Y-119260952D02*
X58420761Y-119213333D01*
X58515999Y-119165714D01*
X58658857Y-119165714D01*
X58754095Y-119213333D01*
X58801714Y-119308571D01*
X58801714Y-119832380D01*
X58801714Y-119308571D02*
X58849333Y-119213333D01*
X58944571Y-119165714D01*
X59087428Y-119165714D01*
X59182666Y-119213333D01*
X59230285Y-119308571D01*
X59230285Y-119832380D01*
X60420761Y-118784761D02*
X59563619Y-120070476D01*
X60754095Y-119832380D02*
X60754095Y-119165714D01*
X60754095Y-119260952D02*
X60801714Y-119213333D01*
X60896952Y-119165714D01*
X61039809Y-119165714D01*
X61135047Y-119213333D01*
X61182666Y-119308571D01*
X61182666Y-119832380D01*
X61182666Y-119308571D02*
X61230285Y-119213333D01*
X61325523Y-119165714D01*
X61468380Y-119165714D01*
X61563619Y-119213333D01*
X61611238Y-119308571D01*
X61611238Y-119832380D01*
X62515999Y-119832380D02*
X62515999Y-119308571D01*
X62468380Y-119213333D01*
X62373142Y-119165714D01*
X62182666Y-119165714D01*
X62087428Y-119213333D01*
X62515999Y-119784761D02*
X62420761Y-119832380D01*
X62182666Y-119832380D01*
X62087428Y-119784761D01*
X62039809Y-119689523D01*
X62039809Y-119594285D01*
X62087428Y-119499047D01*
X62182666Y-119451428D01*
X62420761Y-119451428D01*
X62515999Y-119403809D01*
X62992190Y-119832380D02*
X62992190Y-118832380D01*
X63087428Y-119451428D02*
X63373142Y-119832380D01*
X63373142Y-119165714D02*
X62992190Y-119546666D01*
X64182666Y-119784761D02*
X64087428Y-119832380D01*
X63896952Y-119832380D01*
X63801714Y-119784761D01*
X63754095Y-119689523D01*
X63754095Y-119308571D01*
X63801714Y-119213333D01*
X63896952Y-119165714D01*
X64087428Y-119165714D01*
X64182666Y-119213333D01*
X64230285Y-119308571D01*
X64230285Y-119403809D01*
X63754095Y-119499047D01*
X64611238Y-119784761D02*
X64706476Y-119832380D01*
X64896952Y-119832380D01*
X64992190Y-119784761D01*
X65039809Y-119689523D01*
X65039809Y-119641904D01*
X64992190Y-119546666D01*
X64896952Y-119499047D01*
X64754095Y-119499047D01*
X64658857Y-119451428D01*
X64611238Y-119356190D01*
X64611238Y-119308571D01*
X64658857Y-119213333D01*
X64754095Y-119165714D01*
X64896952Y-119165714D01*
X64992190Y-119213333D01*
X65896952Y-119832380D02*
X65896952Y-119308571D01*
X65849333Y-119213333D01*
X65754095Y-119165714D01*
X65563619Y-119165714D01*
X65468380Y-119213333D01*
X65896952Y-119784761D02*
X65801714Y-119832380D01*
X65563619Y-119832380D01*
X65468380Y-119784761D01*
X65420761Y-119689523D01*
X65420761Y-119594285D01*
X65468380Y-119499047D01*
X65563619Y-119451428D01*
X65801714Y-119451428D01*
X65896952Y-119403809D01*
X66515999Y-119832380D02*
X66420761Y-119784761D01*
X66373142Y-119689523D01*
X66373142Y-118832380D01*
X66754095Y-119165714D02*
X67135047Y-119165714D01*
X66896952Y-118832380D02*
X66896952Y-119689523D01*
X66944571Y-119784761D01*
X67039809Y-119832380D01*
X67135047Y-119832380D01*
X67611238Y-119832380D02*
X67516000Y-119784761D01*
X67468380Y-119689523D01*
X67468380Y-118832380D01*
X68420761Y-119832380D02*
X68420761Y-119308571D01*
X68373142Y-119213333D01*
X68277904Y-119165714D01*
X68087428Y-119165714D01*
X67992190Y-119213333D01*
X68420761Y-119784761D02*
X68325523Y-119832380D01*
X68087428Y-119832380D01*
X67992190Y-119784761D01*
X67944571Y-119689523D01*
X67944571Y-119594285D01*
X67992190Y-119499047D01*
X68087428Y-119451428D01*
X68325523Y-119451428D01*
X68420761Y-119403809D01*
X68896952Y-119832380D02*
X68896952Y-118832380D01*
X68992190Y-119451428D02*
X69277904Y-119832380D01*
X69277904Y-119165714D02*
X68896952Y-119546666D01*
X70087428Y-119784761D02*
X69992190Y-119832380D01*
X69801714Y-119832380D01*
X69706476Y-119784761D01*
X69658857Y-119689523D01*
X69658857Y-119308571D01*
X69706476Y-119213333D01*
X69801714Y-119165714D01*
X69992190Y-119165714D01*
X70087428Y-119213333D01*
X70135047Y-119308571D01*
X70135047Y-119403809D01*
X69658857Y-119499047D01*
X71277904Y-118784761D02*
X70420761Y-120070476D01*
X71611238Y-119832380D02*
X71611238Y-118832380D01*
X72039809Y-119832380D02*
X72039809Y-119308571D01*
X71992190Y-119213333D01*
X71896952Y-119165714D01*
X71754095Y-119165714D01*
X71658857Y-119213333D01*
X71611238Y-119260952D01*
X72896952Y-119784761D02*
X72801714Y-119832380D01*
X72611238Y-119832380D01*
X72516000Y-119784761D01*
X72468380Y-119689523D01*
X72468380Y-119308571D01*
X72516000Y-119213333D01*
X72611238Y-119165714D01*
X72801714Y-119165714D01*
X72896952Y-119213333D01*
X72944571Y-119308571D01*
X72944571Y-119403809D01*
X72468380Y-119499047D01*
X73373142Y-119832380D02*
X73373142Y-119165714D01*
X73373142Y-118832380D02*
X73325523Y-118880000D01*
X73373142Y-118927619D01*
X73420761Y-118880000D01*
X73373142Y-118832380D01*
X73373142Y-118927619D01*
X73849333Y-119832380D02*
X73849333Y-119165714D01*
X73849333Y-119260952D02*
X73896952Y-119213333D01*
X73992190Y-119165714D01*
X74135047Y-119165714D01*
X74230285Y-119213333D01*
X74277904Y-119308571D01*
X74277904Y-119832380D01*
X74277904Y-119308571D02*
X74325523Y-119213333D01*
X74420761Y-119165714D01*
X74563619Y-119165714D01*
X74658857Y-119213333D01*
X74706476Y-119308571D01*
X74706476Y-119832380D01*
X75611238Y-119832380D02*
X75611238Y-118832380D01*
X75611238Y-119784761D02*
X75516000Y-119832380D01*
X75325523Y-119832380D01*
X75230285Y-119784761D01*
X75182666Y-119737142D01*
X75135047Y-119641904D01*
X75135047Y-119356190D01*
X75182666Y-119260952D01*
X75230285Y-119213333D01*
X75325523Y-119165714D01*
X75516000Y-119165714D01*
X75611238Y-119213333D01*
X76516000Y-119832380D02*
X76516000Y-119308571D01*
X76468380Y-119213333D01*
X76373142Y-119165714D01*
X76182666Y-119165714D01*
X76087428Y-119213333D01*
X76516000Y-119784761D02*
X76420761Y-119832380D01*
X76182666Y-119832380D01*
X76087428Y-119784761D01*
X76039809Y-119689523D01*
X76039809Y-119594285D01*
X76087428Y-119499047D01*
X76182666Y-119451428D01*
X76420761Y-119451428D01*
X76516000Y-119403809D01*
X77135047Y-119832380D02*
X77039809Y-119784761D01*
X76992190Y-119689523D01*
X76992190Y-118832380D01*
X77658857Y-119832380D02*
X77563619Y-119784761D01*
X77515999Y-119689523D01*
X77515999Y-118832380D01*
D11*
G04 #@! TO.C,Inside Board*
X52772000Y-85538000D02*
X54102000Y-85538000D01*
X52772000Y-86868000D02*
X52772000Y-85538000D01*
X52772000Y-88138000D02*
X55432000Y-88138000D01*
X55432000Y-88138000D02*
X55432000Y-108518000D01*
X52772000Y-88138000D02*
X52772000Y-108518000D01*
X52772000Y-108518000D02*
X55432000Y-108518000D01*
D12*
G04 #@! TO.C,Buzzer*
X86664000Y-108926000D02*
G75*
G03*
X86664000Y-108926000I-6400000J0D01*
G01*
D13*
G04 #@! TO.C,D1*
X84307680Y-77823060D02*
X84307680Y-77823060D01*
D12*
X89166700Y-83883500D02*
G75*
G03*
X89166700Y-83883500I-203200J0D01*
G01*
D13*
X88646000Y-81026000D02*
X86106000Y-83566000D01*
X88646000Y-81026000D02*
X88646000Y-81889600D01*
X88646000Y-80162400D02*
X88646000Y-81026000D01*
X83566000Y-81915000D02*
X83566000Y-80213200D01*
X88612980Y-83619340D02*
X88612980Y-83393280D01*
X83649820Y-83619340D02*
X88612980Y-83619340D01*
X83649820Y-83614260D02*
X83649820Y-83619340D01*
X83599020Y-83614260D02*
X83649820Y-83614260D01*
X83599020Y-83345020D02*
X83599020Y-83614260D01*
X88615520Y-78414880D02*
X88615520Y-78646020D01*
X83667600Y-78414880D02*
X88615520Y-78414880D01*
X83616800Y-78668880D02*
X83616800Y-78414880D01*
D10*
X83619340Y-78388210D02*
X83670140Y-78388210D01*
D11*
G04 #@! TO.C,RFID Module*
X88332000Y-88078000D02*
X89662000Y-88078000D01*
X88332000Y-89408000D02*
X88332000Y-88078000D01*
X88332000Y-90678000D02*
X90992000Y-90678000D01*
X90992000Y-90678000D02*
X90992000Y-103438000D01*
X88332000Y-90678000D02*
X88332000Y-103438000D01*
X88332000Y-103438000D02*
X90992000Y-103438000D01*
G04 #@! TO.C,2N3904*
X69364000Y-110418000D02*
X65764000Y-110418000D01*
X65725522Y-110429522D02*
G75*
G03*
X67564000Y-114868000I1838478J-1838478D01*
G01*
X69402478Y-110429522D02*
G75*
G02*
X67564000Y-114868000I-1838478J-1838478D01*
G01*
G04 #@! TO.C,2N7000*
X65002000Y-81352000D02*
X68602000Y-81352000D01*
X64963522Y-81340478D02*
G75*
G02*
X66802000Y-76902000I1838478J1838478D01*
G01*
X68640478Y-81340478D02*
G75*
G03*
X66802000Y-76902000I-1838478J1838478D01*
G01*
G04 #@! TO.C,10k*
X60928000Y-80872000D02*
X60928000Y-78132000D01*
X60928000Y-78132000D02*
X54388000Y-78132000D01*
X54388000Y-78132000D02*
X54388000Y-80872000D01*
X54388000Y-80872000D02*
X60928000Y-80872000D01*
X61698000Y-79502000D02*
X60928000Y-79502000D01*
X53618000Y-79502000D02*
X54388000Y-79502000D01*
G04 #@! TO.C,1k*
X66270000Y-107188000D02*
X65500000Y-107188000D01*
X58190000Y-107188000D02*
X58960000Y-107188000D01*
X65500000Y-105818000D02*
X58960000Y-105818000D01*
X65500000Y-108558000D02*
X65500000Y-105818000D01*
X58960000Y-108558000D02*
X65500000Y-108558000D01*
X58960000Y-105818000D02*
X58960000Y-108558000D01*
X71882000Y-105180000D02*
X71882000Y-105950000D01*
X71882000Y-113260000D02*
X71882000Y-112490000D01*
X70512000Y-105950000D02*
X70512000Y-112490000D01*
X73252000Y-105950000D02*
X70512000Y-105950000D01*
X73252000Y-112490000D02*
X73252000Y-105950000D01*
X70512000Y-112490000D02*
X73252000Y-112490000D01*
G04 #@! TO.C,10k*
X62516000Y-81942000D02*
X62516000Y-84682000D01*
X62516000Y-84682000D02*
X69056000Y-84682000D01*
X69056000Y-84682000D02*
X69056000Y-81942000D01*
X69056000Y-81942000D02*
X62516000Y-81942000D01*
X61746000Y-83312000D02*
X62516000Y-83312000D01*
X69826000Y-83312000D02*
X69056000Y-83312000D01*
G04 #@! TO.C,470*
X79986000Y-79502000D02*
X79216000Y-79502000D01*
X71906000Y-79502000D02*
X72676000Y-79502000D01*
X79216000Y-78132000D02*
X72676000Y-78132000D01*
X79216000Y-80872000D02*
X79216000Y-78132000D01*
X72676000Y-80872000D02*
X79216000Y-80872000D01*
X72676000Y-78132000D02*
X72676000Y-80872000D01*
G04 #@! TO.C,Inside Board*
D10*
X51102190Y-84990380D02*
X51102190Y-83990380D01*
X51578380Y-84323714D02*
X51578380Y-84990380D01*
X51578380Y-84418952D02*
X51626000Y-84371333D01*
X51721238Y-84323714D01*
X51864095Y-84323714D01*
X51959333Y-84371333D01*
X52006952Y-84466571D01*
X52006952Y-84990380D01*
X52435523Y-84942761D02*
X52530761Y-84990380D01*
X52721238Y-84990380D01*
X52816476Y-84942761D01*
X52864095Y-84847523D01*
X52864095Y-84799904D01*
X52816476Y-84704666D01*
X52721238Y-84657047D01*
X52578380Y-84657047D01*
X52483142Y-84609428D01*
X52435523Y-84514190D01*
X52435523Y-84466571D01*
X52483142Y-84371333D01*
X52578380Y-84323714D01*
X52721238Y-84323714D01*
X52816476Y-84371333D01*
X53292666Y-84990380D02*
X53292666Y-84323714D01*
X53292666Y-83990380D02*
X53245047Y-84038000D01*
X53292666Y-84085619D01*
X53340285Y-84038000D01*
X53292666Y-83990380D01*
X53292666Y-84085619D01*
X54197428Y-84990380D02*
X54197428Y-83990380D01*
X54197428Y-84942761D02*
X54102190Y-84990380D01*
X53911714Y-84990380D01*
X53816476Y-84942761D01*
X53768857Y-84895142D01*
X53721238Y-84799904D01*
X53721238Y-84514190D01*
X53768857Y-84418952D01*
X53816476Y-84371333D01*
X53911714Y-84323714D01*
X54102190Y-84323714D01*
X54197428Y-84371333D01*
X55054571Y-84942761D02*
X54959333Y-84990380D01*
X54768857Y-84990380D01*
X54673619Y-84942761D01*
X54626000Y-84847523D01*
X54626000Y-84466571D01*
X54673619Y-84371333D01*
X54768857Y-84323714D01*
X54959333Y-84323714D01*
X55054571Y-84371333D01*
X55102190Y-84466571D01*
X55102190Y-84561809D01*
X54626000Y-84657047D01*
X56626000Y-84466571D02*
X56768857Y-84514190D01*
X56816476Y-84561809D01*
X56864095Y-84657047D01*
X56864095Y-84799904D01*
X56816476Y-84895142D01*
X56768857Y-84942761D01*
X56673619Y-84990380D01*
X56292666Y-84990380D01*
X56292666Y-83990380D01*
X56626000Y-83990380D01*
X56721238Y-84038000D01*
X56768857Y-84085619D01*
X56816476Y-84180857D01*
X56816476Y-84276095D01*
X56768857Y-84371333D01*
X56721238Y-84418952D01*
X56626000Y-84466571D01*
X56292666Y-84466571D01*
X57435523Y-84990380D02*
X57340285Y-84942761D01*
X57292666Y-84895142D01*
X57245047Y-84799904D01*
X57245047Y-84514190D01*
X57292666Y-84418952D01*
X57340285Y-84371333D01*
X57435523Y-84323714D01*
X57578380Y-84323714D01*
X57673619Y-84371333D01*
X57721238Y-84418952D01*
X57768857Y-84514190D01*
X57768857Y-84799904D01*
X57721238Y-84895142D01*
X57673619Y-84942761D01*
X57578380Y-84990380D01*
X57435523Y-84990380D01*
X58626000Y-84990380D02*
X58626000Y-84466571D01*
X58578380Y-84371333D01*
X58483142Y-84323714D01*
X58292666Y-84323714D01*
X58197428Y-84371333D01*
X58626000Y-84942761D02*
X58530761Y-84990380D01*
X58292666Y-84990380D01*
X58197428Y-84942761D01*
X58149809Y-84847523D01*
X58149809Y-84752285D01*
X58197428Y-84657047D01*
X58292666Y-84609428D01*
X58530761Y-84609428D01*
X58626000Y-84561809D01*
X59102190Y-84990380D02*
X59102190Y-84323714D01*
X59102190Y-84514190D02*
X59149809Y-84418952D01*
X59197428Y-84371333D01*
X59292666Y-84323714D01*
X59387904Y-84323714D01*
X60149809Y-84990380D02*
X60149809Y-83990380D01*
X60149809Y-84942761D02*
X60054571Y-84990380D01*
X59864095Y-84990380D01*
X59768857Y-84942761D01*
X59721238Y-84895142D01*
X59673619Y-84799904D01*
X59673619Y-84514190D01*
X59721238Y-84418952D01*
X59768857Y-84371333D01*
X59864095Y-84323714D01*
X60054571Y-84323714D01*
X60149809Y-84371333D01*
G04 #@! TO.C,Buzzer*
X78335428Y-109148571D02*
X78478285Y-109196190D01*
X78525904Y-109243809D01*
X78573523Y-109339047D01*
X78573523Y-109481904D01*
X78525904Y-109577142D01*
X78478285Y-109624761D01*
X78383047Y-109672380D01*
X78002095Y-109672380D01*
X78002095Y-108672380D01*
X78335428Y-108672380D01*
X78430666Y-108720000D01*
X78478285Y-108767619D01*
X78525904Y-108862857D01*
X78525904Y-108958095D01*
X78478285Y-109053333D01*
X78430666Y-109100952D01*
X78335428Y-109148571D01*
X78002095Y-109148571D01*
X79430666Y-109005714D02*
X79430666Y-109672380D01*
X79002095Y-109005714D02*
X79002095Y-109529523D01*
X79049714Y-109624761D01*
X79144952Y-109672380D01*
X79287809Y-109672380D01*
X79383047Y-109624761D01*
X79430666Y-109577142D01*
X79811619Y-109005714D02*
X80335428Y-109005714D01*
X79811619Y-109672380D01*
X80335428Y-109672380D01*
X80621142Y-109005714D02*
X81144952Y-109005714D01*
X80621142Y-109672380D01*
X81144952Y-109672380D01*
X81906857Y-109624761D02*
X81811619Y-109672380D01*
X81621142Y-109672380D01*
X81525904Y-109624761D01*
X81478285Y-109529523D01*
X81478285Y-109148571D01*
X81525904Y-109053333D01*
X81621142Y-109005714D01*
X81811619Y-109005714D01*
X81906857Y-109053333D01*
X81954476Y-109148571D01*
X81954476Y-109243809D01*
X81478285Y-109339047D01*
X82383047Y-109672380D02*
X82383047Y-109005714D01*
X82383047Y-109196190D02*
X82430666Y-109100952D01*
X82478285Y-109053333D01*
X82573523Y-109005714D01*
X82668761Y-109005714D01*
G04 #@! TO.C,D1*
D14*
X85656057Y-84476771D02*
X85656057Y-83867171D01*
X85801200Y-83867171D01*
X85888285Y-83896200D01*
X85946342Y-83954257D01*
X85975371Y-84012314D01*
X86004400Y-84128428D01*
X86004400Y-84215514D01*
X85975371Y-84331628D01*
X85946342Y-84389685D01*
X85888285Y-84447742D01*
X85801200Y-84476771D01*
X85656057Y-84476771D01*
X86584971Y-84476771D02*
X86236628Y-84476771D01*
X86410800Y-84476771D02*
X86410800Y-83867171D01*
X86352742Y-83954257D01*
X86294685Y-84012314D01*
X86236628Y-84041342D01*
X84277200Y-77999771D02*
X84277200Y-77390171D01*
X84625542Y-77999771D01*
X84625542Y-77390171D01*
X85148057Y-77970742D02*
X85090000Y-77999771D01*
X84973885Y-77999771D01*
X84915828Y-77970742D01*
X84886800Y-77912685D01*
X84886800Y-77680457D01*
X84915828Y-77622400D01*
X84973885Y-77593371D01*
X85090000Y-77593371D01*
X85148057Y-77622400D01*
X85177085Y-77680457D01*
X85177085Y-77738514D01*
X84886800Y-77796571D01*
X85525428Y-77999771D02*
X85467371Y-77970742D01*
X85438342Y-77941714D01*
X85409314Y-77883657D01*
X85409314Y-77709485D01*
X85438342Y-77651428D01*
X85467371Y-77622400D01*
X85525428Y-77593371D01*
X85612514Y-77593371D01*
X85670571Y-77622400D01*
X85699600Y-77651428D01*
X85728628Y-77709485D01*
X85728628Y-77883657D01*
X85699600Y-77941714D01*
X85670571Y-77970742D01*
X85612514Y-77999771D01*
X85525428Y-77999771D01*
X85989885Y-77999771D02*
X85989885Y-77390171D01*
X86222114Y-77390171D01*
X86280171Y-77419200D01*
X86309200Y-77448228D01*
X86338228Y-77506285D01*
X86338228Y-77593371D01*
X86309200Y-77651428D01*
X86280171Y-77680457D01*
X86222114Y-77709485D01*
X85989885Y-77709485D01*
X86599485Y-77999771D02*
X86599485Y-77593371D01*
X86599485Y-77390171D02*
X86570457Y-77419200D01*
X86599485Y-77448228D01*
X86628514Y-77419200D01*
X86599485Y-77390171D01*
X86599485Y-77448228D01*
X86831714Y-77999771D02*
X87151028Y-77593371D01*
X86831714Y-77593371D02*
X87151028Y-77999771D01*
X87615485Y-77970742D02*
X87557428Y-77999771D01*
X87441314Y-77999771D01*
X87383257Y-77970742D01*
X87354228Y-77912685D01*
X87354228Y-77680457D01*
X87383257Y-77622400D01*
X87441314Y-77593371D01*
X87557428Y-77593371D01*
X87615485Y-77622400D01*
X87644514Y-77680457D01*
X87644514Y-77738514D01*
X87354228Y-77796571D01*
X87992857Y-77999771D02*
X87934800Y-77970742D01*
X87905771Y-77912685D01*
X87905771Y-77390171D01*
G04 #@! TO.C,RFID Module*
D10*
X83772857Y-87320380D02*
X83439523Y-86844190D01*
X83201428Y-87320380D02*
X83201428Y-86320380D01*
X83582380Y-86320380D01*
X83677619Y-86368000D01*
X83725238Y-86415619D01*
X83772857Y-86510857D01*
X83772857Y-86653714D01*
X83725238Y-86748952D01*
X83677619Y-86796571D01*
X83582380Y-86844190D01*
X83201428Y-86844190D01*
X84534761Y-86796571D02*
X84201428Y-86796571D01*
X84201428Y-87320380D02*
X84201428Y-86320380D01*
X84677619Y-86320380D01*
X85058571Y-87320380D02*
X85058571Y-86320380D01*
X85534761Y-87320380D02*
X85534761Y-86320380D01*
X85772857Y-86320380D01*
X85915714Y-86368000D01*
X86010952Y-86463238D01*
X86058571Y-86558476D01*
X86106190Y-86748952D01*
X86106190Y-86891809D01*
X86058571Y-87082285D01*
X86010952Y-87177523D01*
X85915714Y-87272761D01*
X85772857Y-87320380D01*
X85534761Y-87320380D01*
X87296666Y-87320380D02*
X87296666Y-86320380D01*
X87630000Y-87034666D01*
X87963333Y-86320380D01*
X87963333Y-87320380D01*
X88582380Y-87320380D02*
X88487142Y-87272761D01*
X88439523Y-87225142D01*
X88391904Y-87129904D01*
X88391904Y-86844190D01*
X88439523Y-86748952D01*
X88487142Y-86701333D01*
X88582380Y-86653714D01*
X88725238Y-86653714D01*
X88820476Y-86701333D01*
X88868095Y-86748952D01*
X88915714Y-86844190D01*
X88915714Y-87129904D01*
X88868095Y-87225142D01*
X88820476Y-87272761D01*
X88725238Y-87320380D01*
X88582380Y-87320380D01*
X89772857Y-87320380D02*
X89772857Y-86320380D01*
X89772857Y-87272761D02*
X89677619Y-87320380D01*
X89487142Y-87320380D01*
X89391904Y-87272761D01*
X89344285Y-87225142D01*
X89296666Y-87129904D01*
X89296666Y-86844190D01*
X89344285Y-86748952D01*
X89391904Y-86701333D01*
X89487142Y-86653714D01*
X89677619Y-86653714D01*
X89772857Y-86701333D01*
X90677619Y-86653714D02*
X90677619Y-87320380D01*
X90249047Y-86653714D02*
X90249047Y-87177523D01*
X90296666Y-87272761D01*
X90391904Y-87320380D01*
X90534761Y-87320380D01*
X90630000Y-87272761D01*
X90677619Y-87225142D01*
X91296666Y-87320380D02*
X91201428Y-87272761D01*
X91153809Y-87177523D01*
X91153809Y-86320380D01*
X92058571Y-87272761D02*
X91963333Y-87320380D01*
X91772857Y-87320380D01*
X91677619Y-87272761D01*
X91630000Y-87177523D01*
X91630000Y-86796571D01*
X91677619Y-86701333D01*
X91772857Y-86653714D01*
X91963333Y-86653714D01*
X92058571Y-86701333D01*
X92106190Y-86796571D01*
X92106190Y-86891809D01*
X91630000Y-86987047D01*
G04 #@! TO.C,2N3904*
X64849714Y-115375619D02*
X64897333Y-115328000D01*
X64992571Y-115280380D01*
X65230666Y-115280380D01*
X65325904Y-115328000D01*
X65373523Y-115375619D01*
X65421142Y-115470857D01*
X65421142Y-115566095D01*
X65373523Y-115708952D01*
X64802095Y-116280380D01*
X65421142Y-116280380D01*
X65849714Y-116280380D02*
X65849714Y-115280380D01*
X66421142Y-116280380D01*
X66421142Y-115280380D01*
X66802095Y-115280380D02*
X67421142Y-115280380D01*
X67087809Y-115661333D01*
X67230666Y-115661333D01*
X67325904Y-115708952D01*
X67373523Y-115756571D01*
X67421142Y-115851809D01*
X67421142Y-116089904D01*
X67373523Y-116185142D01*
X67325904Y-116232761D01*
X67230666Y-116280380D01*
X66944952Y-116280380D01*
X66849714Y-116232761D01*
X66802095Y-116185142D01*
X67897333Y-116280380D02*
X68087809Y-116280380D01*
X68183047Y-116232761D01*
X68230666Y-116185142D01*
X68325904Y-116042285D01*
X68373523Y-115851809D01*
X68373523Y-115470857D01*
X68325904Y-115375619D01*
X68278285Y-115328000D01*
X68183047Y-115280380D01*
X67992571Y-115280380D01*
X67897333Y-115328000D01*
X67849714Y-115375619D01*
X67802095Y-115470857D01*
X67802095Y-115708952D01*
X67849714Y-115804190D01*
X67897333Y-115851809D01*
X67992571Y-115899428D01*
X68183047Y-115899428D01*
X68278285Y-115851809D01*
X68325904Y-115804190D01*
X68373523Y-115708952D01*
X68992571Y-115280380D02*
X69087809Y-115280380D01*
X69183047Y-115328000D01*
X69230666Y-115375619D01*
X69278285Y-115470857D01*
X69325904Y-115661333D01*
X69325904Y-115899428D01*
X69278285Y-116089904D01*
X69230666Y-116185142D01*
X69183047Y-116232761D01*
X69087809Y-116280380D01*
X68992571Y-116280380D01*
X68897333Y-116232761D01*
X68849714Y-116185142D01*
X68802095Y-116089904D01*
X68754476Y-115899428D01*
X68754476Y-115661333D01*
X68802095Y-115470857D01*
X68849714Y-115375619D01*
X68897333Y-115328000D01*
X68992571Y-115280380D01*
X70183047Y-115613714D02*
X70183047Y-116280380D01*
X69944952Y-115232761D02*
X69706857Y-115947047D01*
X70325904Y-115947047D01*
G04 #@! TO.C,2N7000*
X69929714Y-76763619D02*
X69977333Y-76716000D01*
X70072571Y-76668380D01*
X70310666Y-76668380D01*
X70405904Y-76716000D01*
X70453523Y-76763619D01*
X70501142Y-76858857D01*
X70501142Y-76954095D01*
X70453523Y-77096952D01*
X69882095Y-77668380D01*
X70501142Y-77668380D01*
X70929714Y-77668380D02*
X70929714Y-76668380D01*
X71501142Y-77668380D01*
X71501142Y-76668380D01*
X71882095Y-76668380D02*
X72548761Y-76668380D01*
X72120190Y-77668380D01*
X73120190Y-76668380D02*
X73215428Y-76668380D01*
X73310666Y-76716000D01*
X73358285Y-76763619D01*
X73405904Y-76858857D01*
X73453523Y-77049333D01*
X73453523Y-77287428D01*
X73405904Y-77477904D01*
X73358285Y-77573142D01*
X73310666Y-77620761D01*
X73215428Y-77668380D01*
X73120190Y-77668380D01*
X73024952Y-77620761D01*
X72977333Y-77573142D01*
X72929714Y-77477904D01*
X72882095Y-77287428D01*
X72882095Y-77049333D01*
X72929714Y-76858857D01*
X72977333Y-76763619D01*
X73024952Y-76716000D01*
X73120190Y-76668380D01*
X74072571Y-76668380D02*
X74167809Y-76668380D01*
X74263047Y-76716000D01*
X74310666Y-76763619D01*
X74358285Y-76858857D01*
X74405904Y-77049333D01*
X74405904Y-77287428D01*
X74358285Y-77477904D01*
X74310666Y-77573142D01*
X74263047Y-77620761D01*
X74167809Y-77668380D01*
X74072571Y-77668380D01*
X73977333Y-77620761D01*
X73929714Y-77573142D01*
X73882095Y-77477904D01*
X73834476Y-77287428D01*
X73834476Y-77049333D01*
X73882095Y-76858857D01*
X73929714Y-76763619D01*
X73977333Y-76716000D01*
X74072571Y-76668380D01*
X75024952Y-76668380D02*
X75120190Y-76668380D01*
X75215428Y-76716000D01*
X75263047Y-76763619D01*
X75310666Y-76858857D01*
X75358285Y-77049333D01*
X75358285Y-77287428D01*
X75310666Y-77477904D01*
X75263047Y-77573142D01*
X75215428Y-77620761D01*
X75120190Y-77668380D01*
X75024952Y-77668380D01*
X74929714Y-77620761D01*
X74882095Y-77573142D01*
X74834476Y-77477904D01*
X74786857Y-77287428D01*
X74786857Y-77049333D01*
X74834476Y-76858857D01*
X74882095Y-76763619D01*
X74929714Y-76716000D01*
X75024952Y-76668380D01*
G04 #@! TO.C,10k*
X57062761Y-79954380D02*
X56491333Y-79954380D01*
X56777047Y-79954380D02*
X56777047Y-78954380D01*
X56681809Y-79097238D01*
X56586571Y-79192476D01*
X56491333Y-79240095D01*
X57681809Y-78954380D02*
X57777047Y-78954380D01*
X57872285Y-79002000D01*
X57919904Y-79049619D01*
X57967523Y-79144857D01*
X58015142Y-79335333D01*
X58015142Y-79573428D01*
X57967523Y-79763904D01*
X57919904Y-79859142D01*
X57872285Y-79906761D01*
X57777047Y-79954380D01*
X57681809Y-79954380D01*
X57586571Y-79906761D01*
X57538952Y-79859142D01*
X57491333Y-79763904D01*
X57443714Y-79573428D01*
X57443714Y-79335333D01*
X57491333Y-79144857D01*
X57538952Y-79049619D01*
X57586571Y-79002000D01*
X57681809Y-78954380D01*
X58443714Y-79954380D02*
X58443714Y-78954380D01*
X58538952Y-79573428D02*
X58824666Y-79954380D01*
X58824666Y-79287714D02*
X58443714Y-79668666D01*
G04 #@! TO.C,1k*
X62110952Y-107640380D02*
X61539523Y-107640380D01*
X61825238Y-107640380D02*
X61825238Y-106640380D01*
X61730000Y-106783238D01*
X61634761Y-106878476D01*
X61539523Y-106926095D01*
X62539523Y-107640380D02*
X62539523Y-106640380D01*
X62634761Y-107259428D02*
X62920476Y-107640380D01*
X62920476Y-106973714D02*
X62539523Y-107354666D01*
X72334380Y-109339047D02*
X72334380Y-109910476D01*
X72334380Y-109624761D02*
X71334380Y-109624761D01*
X71477238Y-109720000D01*
X71572476Y-109815238D01*
X71620095Y-109910476D01*
X72334380Y-108910476D02*
X71334380Y-108910476D01*
X71953428Y-108815238D02*
X72334380Y-108529523D01*
X71667714Y-108529523D02*
X72048666Y-108910476D01*
G04 #@! TO.C,10k*
X65190761Y-83764380D02*
X64619333Y-83764380D01*
X64905047Y-83764380D02*
X64905047Y-82764380D01*
X64809809Y-82907238D01*
X64714571Y-83002476D01*
X64619333Y-83050095D01*
X65809809Y-82764380D02*
X65905047Y-82764380D01*
X66000285Y-82812000D01*
X66047904Y-82859619D01*
X66095523Y-82954857D01*
X66143142Y-83145333D01*
X66143142Y-83383428D01*
X66095523Y-83573904D01*
X66047904Y-83669142D01*
X66000285Y-83716761D01*
X65905047Y-83764380D01*
X65809809Y-83764380D01*
X65714571Y-83716761D01*
X65666952Y-83669142D01*
X65619333Y-83573904D01*
X65571714Y-83383428D01*
X65571714Y-83145333D01*
X65619333Y-82954857D01*
X65666952Y-82859619D01*
X65714571Y-82812000D01*
X65809809Y-82764380D01*
X66571714Y-83764380D02*
X66571714Y-82764380D01*
X66666952Y-83383428D02*
X66952666Y-83764380D01*
X66952666Y-83097714D02*
X66571714Y-83478666D01*
G04 #@! TO.C,470*
X75184095Y-79287714D02*
X75184095Y-79954380D01*
X74946000Y-78906761D02*
X74707904Y-79621047D01*
X75326952Y-79621047D01*
X75612666Y-78954380D02*
X76279333Y-78954380D01*
X75850761Y-79954380D01*
X76850761Y-78954380D02*
X76946000Y-78954380D01*
X77041238Y-79002000D01*
X77088857Y-79049619D01*
X77136476Y-79144857D01*
X77184095Y-79335333D01*
X77184095Y-79573428D01*
X77136476Y-79763904D01*
X77088857Y-79859142D01*
X77041238Y-79906761D01*
X76946000Y-79954380D01*
X76850761Y-79954380D01*
X76755523Y-79906761D01*
X76707904Y-79859142D01*
X76660285Y-79763904D01*
X76612666Y-79573428D01*
X76612666Y-79335333D01*
X76660285Y-79144857D01*
X76707904Y-79049619D01*
X76755523Y-79002000D01*
X76850761Y-78954380D01*
G04 #@! TD*
M02*
