M48
; DRILL file {KiCad 5.1.6-c6e7f7d~87~ubuntu20.04.1} date Fri Jul 24 15:51:25 2020
; FORMAT={-:-/ absolute / inch / decimal}
; #@! TF.CreationDate,2020-07-24T15:51:25-06:00
; #@! TF.GenerationSoftware,Kicad,Pcbnew,5.1.6-c6e7f7d~87~ubuntu20.04.1
; #@! TF.FileFunction,Plated,1,2,PTH
FMAT,2
INCH
T1C0.0295
T2C0.0315
T3C0.0335
T4C0.0394
%
G90
G05
T1
X2.58Y-3.13
X2.63Y-3.13
X2.68Y-3.13
X2.61Y-4.42
X2.66Y-4.42
X2.71Y-4.42
T2
X2.79Y-3.28
X2.83Y-4.1
X2.83Y-4.5
X2.25Y-4.22
X2.65Y-4.22
X2.07Y-3.13
X2.47Y-3.13
X2.39Y-3.28
X2.79Y-3.13
X3.19Y-3.13
T3
X3.16Y-4.19
X3.16Y-4.3869
T4
X2.13Y-3.42
X2.13Y-3.52
X2.13Y-3.62
X2.13Y-3.72
X2.13Y-3.82
X2.13Y-3.92
X2.13Y-4.02
X2.13Y-4.12
X2.13Y-4.22
X3.53Y-3.52
X3.53Y-3.62
X3.53Y-3.72
X3.53Y-3.82
X3.53Y-3.92
X3.53Y-4.02
T0
M30
