G04 #@! TF.GenerationSoftware,KiCad,Pcbnew,5.1.8-db9833491~87~ubuntu20.04.1*
G04 #@! TF.CreationDate,2020-11-14T17:48:48-07:00*
G04 #@! TF.ProjectId,heimdall_outsideboard,6865696d-6461-46c6-9c5f-6f7574736964,01*
G04 #@! TF.SameCoordinates,Original*
G04 #@! TF.FileFunction,Soldermask,Bot*
G04 #@! TF.FilePolarity,Negative*
%FSLAX46Y46*%
G04 Gerber Fmt 4.6, Leading zero omitted, Abs format (unit mm)*
G04 Created by KiCad (PCBNEW 5.1.8-db9833491~87~ubuntu20.04.1) date 2020-11-14 17:48:48*
%MOMM*%
%LPD*%
G01*
G04 APERTURE LIST*
%ADD10R,1.050000X1.500000*%
%ADD11O,1.050000X1.500000*%
%ADD12R,1.700000X1.700000*%
%ADD13O,1.700000X1.700000*%
%ADD14R,1.850000X1.850000*%
%ADD15C,1.850000*%
%ADD16O,1.600000X1.600000*%
%ADD17C,1.600000*%
%ADD18R,1.070000X1.800000*%
%ADD19O,1.070000X1.800000*%
G04 APERTURE END LIST*
D10*
G04 #@! TO.C,Q1*
X65024000Y-112776000D03*
D11*
X67564000Y-112776000D03*
X66294000Y-112776000D03*
G04 #@! TD*
D12*
G04 #@! TO.C,J6*
X78486000Y-85598000D03*
G04 #@! TD*
G04 #@! TO.C,J5*
X83566000Y-83058000D03*
G04 #@! TD*
G04 #@! TO.C,J4*
X76454000Y-113792000D03*
G04 #@! TD*
G04 #@! TO.C,J3*
X77216000Y-104648000D03*
G04 #@! TD*
G04 #@! TO.C,J1*
X54102000Y-86868000D03*
D13*
X54102000Y-89408000D03*
X54102000Y-91948000D03*
X54102000Y-94488000D03*
X54102000Y-97028000D03*
X54102000Y-99568000D03*
X54102000Y-102108000D03*
X54102000Y-104648000D03*
X54102000Y-107188000D03*
G04 #@! TD*
D14*
G04 #@! TO.C,BZ1*
X85344000Y-109220000D03*
D15*
X85344000Y-114220000D03*
G04 #@! TD*
D12*
G04 #@! TO.C,J2*
X89662000Y-89408000D03*
D13*
X89662000Y-91948000D03*
X89662000Y-94488000D03*
X89662000Y-97028000D03*
X89662000Y-99568000D03*
X89662000Y-102108000D03*
G04 #@! TD*
D11*
G04 #@! TO.C,Q2*
X66802000Y-79502000D03*
X68072000Y-79502000D03*
D10*
X65532000Y-79502000D03*
G04 #@! TD*
D16*
G04 #@! TO.C,R1*
X52578000Y-79502000D03*
D17*
X62738000Y-79502000D03*
G04 #@! TD*
G04 #@! TO.C,R2*
X57150000Y-107188000D03*
D16*
X67310000Y-107188000D03*
G04 #@! TD*
D17*
G04 #@! TO.C,R3*
X71882000Y-114300000D03*
D16*
X71882000Y-104140000D03*
G04 #@! TD*
G04 #@! TO.C,R4*
X70866000Y-83312000D03*
D17*
X60706000Y-83312000D03*
G04 #@! TD*
G04 #@! TO.C,R5*
X70866000Y-79502000D03*
D16*
X81026000Y-79502000D03*
G04 #@! TD*
D18*
G04 #@! TO.C,D1*
X90932000Y-81026000D03*
D19*
X89662000Y-81026000D03*
X88392000Y-81026000D03*
X87122000Y-81026000D03*
G04 #@! TD*
M02*
