ISO-10303-21;
HEADER;
FILE_DESCRIPTION (( 'STEP AP214' ),
    '1' );
FILE_NAME ('0618002.MXP.STEP',
    '2024-09-25T14:11:42',
    ( '' ),
    ( '' ),
    'SwSTEP 2.0',
    'SolidWorks 2020',
    '' );
FILE_SCHEMA (( 'AUTOMOTIVE_DESIGN' ));
ENDSEC;

DATA;
#1 = CARTESIAN_POINT ( 'NONE',  ( 0.000000000000000000, 0.000000000000000000, 9.250000000000000000 ) ) ;
#2 = AXIS2_PLACEMENT_3D ( 'NONE', #327, #423, #141 ) ;
#3 = DIRECTION ( 'NONE',  ( 0.000000000000000000, 0.000000000000000000, -1.000000000000000000 ) ) ;
#4 = AXIS2_PLACEMENT_3D ( 'NONE', #5, #146, #148 ) ;
#5 = CARTESIAN_POINT ( 'NONE',  ( 0.000000000000000000, 0.000000000000000000, 4.900000000000000355 ) ) ;
#6 = ADVANCED_FACE ( 'NONE', ( #163 ), #201, .T. ) ;
#7 = DIRECTION ( 'NONE',  ( -1.000000000000000000, 0.000000000000000000, 0.000000000000000000 ) ) ;
#8 = FACE_OUTER_BOUND ( 'NONE', #64, .T. ) ;
#9 = DIRECTION ( 'NONE',  ( -1.000000000000000000, 0.000000000000000000, 0.000000000000000000 ) ) ;
#10 = APPLICATION_CONTEXT ( 'automotive_design' ) ;
#11 = ORIENTED_EDGE ( 'NONE', *, *, #89, .T. ) ;
#12 = FACE_OUTER_BOUND ( 'NONE', #191, .T. ) ;
#13 = ORIENTED_EDGE ( 'NONE', *, *, #316, .T. ) ;
#14 = ORIENTED_EDGE ( 'NONE', *, *, #19, .T. ) ;
#15 = DIRECTION ( 'NONE',  ( 0.000000000000000000, -1.000000000000000000, 0.000000000000000000 ) ) ;
#16 = AXIS2_PLACEMENT_3D ( 'NONE', #334, #331, #271 ) ;
#17 = AXIS2_PLACEMENT_3D ( 'NONE', #396, #100, #340 ) ;
#18 = PRESENTATION_LAYER_ASSIGNMENT (  '', '', ( #400 ) ) ;
#19 = EDGE_CURVE ( 'NONE', #235, #194, #25, .T. ) ;
#20 = ORIENTED_EDGE ( 'NONE', *, *, #19, .F. ) ;
#21 = VERTEX_POINT ( 'NONE', #138 ) ;
#22 = DIRECTION ( 'NONE',  ( -1.000000000000000000, 0.000000000000000000, -0.000000000000000000 ) ) ;
#23 = ORIENTED_EDGE ( 'NONE', *, *, #268, .F. ) ;
#24 = CIRCLE ( 'NONE', #283, 2.600000000000000089 ) ;
#25 = LINE ( 'NONE', #165, #150 ) ;
#26 = LINE ( 'NONE', #272, #389 ) ;
#27 = SURFACE_STYLE_USAGE ( .BOTH. , #301 ) ;
#28 = FACE_OUTER_BOUND ( 'NONE', #160, .T. ) ;
#29 = ORIENTED_EDGE ( 'NONE', *, *, #422, .F. ) ;
#30 = DIRECTION ( 'NONE',  ( 1.000000000000000000, 0.000000000000000000, 0.000000000000000000 ) ) ;
#31 = AXIS2_PLACEMENT_3D ( 'NONE', #255, #15, #88 ) ;
#32 = DIRECTION ( 'NONE',  ( 0.000000000000000000, 0.000000000000000000, 1.000000000000000000 ) ) ;
#33 = CARTESIAN_POINT ( 'NONE',  ( 0.000000000000000000, 0.000000000000000000, 10.00000000000000000 ) ) ;
#34 = FACE_OUTER_BOUND ( 'NONE', #128, .T. ) ;
#35 = DIRECTION ( 'NONE',  ( 1.000000000000000000, 0.000000000000000000, 0.000000000000000000 ) ) ;
#36 = ADVANCED_FACE ( 'NONE', ( #68, #297 ), #209, .F. ) ;
#37 = LINE ( 'NONE', #106, #133 ) ;
#38 = COLOUR_RGB ( '',1.000000000000000000, 1.000000000000000000, 1.000000000000000000 ) ;
#39 = SURFACE_STYLE_USAGE ( .BOTH. , #408 ) ;
#40 = AXIS2_PLACEMENT_3D ( 'NONE', #182, #314, #348 ) ;
#41 = CARTESIAN_POINT ( 'NONE',  ( 1.849999999999999867, 0.000000000000000000, 10.00000000000000000 ) ) ;
#42 = FILL_AREA_STYLE ('',( #286 ) ) ;
#43 = DIRECTION ( 'NONE',  ( 1.000000000000000000, 0.000000000000000000, 0.000000000000000000 ) ) ;
#44 = CARTESIAN_POINT ( 'NONE',  ( -2.350000000000000089, 0.000000000000000000, 4.900000000000000355 ) ) ;
#45 = CIRCLE ( 'NONE', #323, 1.849999999999999867 ) ;
#46 = EDGE_LOOP ( 'NONE', ( #205, #292, #82, #260 ) ) ;
#47 = DIRECTION ( 'NONE',  ( 0.000000000000000000, 0.000000000000000000, 1.000000000000000000 ) ) ;
#48 = CARTESIAN_POINT ( 'NONE',  ( -2.350000000000000089, 0.000000000000000000, -4.900000000000000355 ) ) ;
#49 = ADVANCED_FACE ( 'NONE', ( #299 ), #279, .T. ) ;
#50 = ORIENTED_EDGE ( 'NONE', *, *, #190, .F. ) ;
#51 = DIRECTION ( 'NONE',  ( 1.000000000000000000, 0.000000000000000000, 0.000000000000000000 ) ) ;
#52 = CIRCLE ( 'NONE', #239, 2.350000000000000089 ) ;
#53 = ORIENTED_EDGE ( 'NONE', *, *, #258, .T. ) ;
#54 = CARTESIAN_POINT ( 'NONE',  ( 0.000000000000000000, 0.000000000000000000, -4.900000000000000355 ) ) ;
#55 = APPLICATION_CONTEXT ( 'automotive_design' ) ;
#56 = ORIENTED_EDGE ( 'NONE', *, *, #196, .T. ) ;
#57 = PRODUCT_RELATED_PRODUCT_CATEGORY ( 'part', '', ( #253 ) ) ;
#58 =( NAMED_UNIT ( * ) SI_UNIT ( $, .STERADIAN. ) SOLID_ANGLE_UNIT ( ) );
#59 = AXIS2_PLACEMENT_3D ( 'NONE', #1, #144, #222 ) ;
#60 = STYLED_ITEM ( 'NONE', ( #250 ), #139 ) ;
#61 = PRODUCT_DEFINITION_FORMATION_WITH_SPECIFIED_SOURCE ( 'ANY', '', #253, .NOT_KNOWN. ) ;
#62 = DIRECTION ( 'NONE',  ( -0.000000000000000000, -0.000000000000000000, -1.000000000000000000 ) ) ;
#63 = DIRECTION ( 'NONE',  ( 0.000000000000000000, 0.000000000000000000, -1.000000000000000000 ) ) ;
#64 = EDGE_LOOP ( 'NONE', ( #29, #429, #116, #296 ) ) ;
#65 = FACE_OUTER_BOUND ( 'NONE', #410, .T. ) ;
#66 = CARTESIAN_POINT ( 'NONE',  ( -2.350000000000000089, 0.000000000000000000, 4.900000000000000355 ) ) ;
#67 = CIRCLE ( 'NONE', #318, 0.7500000000000006661 ) ;
#68 = FACE_BOUND ( 'NONE', #290, .T. ) ;
#69 = CARTESIAN_POINT ( 'NONE',  ( 0.000000000000000000, 0.000000000000000000, -10.00000000000000000 ) ) ;
#70 = DIRECTION ( 'NONE',  ( -0.000000000000000000, -0.000000000000000000, -1.000000000000000000 ) ) ;
#71 = EDGE_CURVE ( 'NONE', #235, #90, #339, .T. ) ;
#72 = PRODUCT_DEFINITION_SHAPE ( 'NONE', 'NONE',  #372 ) ;
#73 = AXIS2_PLACEMENT_3D ( 'NONE', #110, #183, #374 ) ;
#74 =( NAMED_UNIT ( * ) PLANE_ANGLE_UNIT ( ) SI_UNIT ( $, .RADIAN. ) );
#75 = VECTOR ( 'NONE', #130, 1000.000000000000000 ) ;
#76 = FILL_AREA_STYLE ('',( #401 ) ) ;
#77 =( LENGTH_UNIT ( ) NAMED_UNIT ( * ) SI_UNIT ( .MILLI., .METRE. ) );
#78 = EDGE_CURVE ( 'NONE', #90, #86, #120, .T. ) ;
#79 = ORIENTED_EDGE ( 'NONE', *, *, #418, .F. ) ;
#80 = DIRECTION ( 'NONE',  ( 1.000000000000000000, 0.000000000000000000, 0.000000000000000000 ) ) ;
#81 = AXIS2_PLACEMENT_3D ( 'NONE', #109, #402, #9 ) ;
#82 = ORIENTED_EDGE ( 'NONE', *, *, #289, .F. ) ;
#83 = EDGE_CURVE ( 'NONE', #125, #261, #427, .T. ) ;
#84 = VERTEX_POINT ( 'NONE', #256 ) ;
#85 = PLANE ( 'NONE',  #121 ) ;
#86 = VERTEX_POINT ( 'NONE', #176 ) ;
#87 = ORIENTED_EDGE ( 'NONE', *, *, #113, .T. ) ;
#88 = DIRECTION ( 'NONE',  ( 0.000000000000000000, 0.000000000000000000, -1.000000000000000000 ) ) ;
#89 = EDGE_CURVE ( 'NONE', #90, #235, #24, .T. ) ;
#90 = VERTEX_POINT ( 'NONE', #186 ) ;
#91 = ORIENTED_EDGE ( 'NONE', *, *, #190, .T. ) ;
#92 = CARTESIAN_POINT ( 'NONE',  ( 0.000000000000000000, 0.000000000000000000, 10.00000000000000000 ) ) ;
#93 = VECTOR ( 'NONE', #298, 1000.000000000000000 ) ;
#94 = ORIENTED_EDGE ( 'NONE', *, *, #433, .F. ) ;
#95 = LINE ( 'NONE', #426, #75 ) ;
#96 = EDGE_CURVE ( 'NONE', #192, #21, #37, .T. ) ;
#97 = VERTEX_POINT ( 'NONE', #41 ) ;
#98 = CARTESIAN_POINT ( 'NONE',  ( -1.849999999999999867, 0.000000000000000000, -9.250000000000000000 ) ) ;
#99 = ORIENTED_EDGE ( 'NONE', *, *, #78, .F. ) ;
#100 = DIRECTION ( 'NONE',  ( -1.224646799147353207E-16, 1.000000000000000000, 0.000000000000000000 ) ) ;
#101 = TOROIDAL_SURFACE ( 'NONE', #40, 1.849999999999999867, 0.7500000000000000000 ) ;
#102 = DIRECTION ( 'NONE',  ( -0.000000000000000000, -0.000000000000000000, -1.000000000000000000 ) ) ;
#103 = ADVANCED_FACE ( 'NONE', ( #216 ), #364, .T. ) ;
#104 = AXIS2_PLACEMENT_3D ( 'NONE', #251, #381, #80 ) ;
#105 = CARTESIAN_POINT ( 'NONE',  ( 2.600000000000000089, 0.000000000000000000, -10.00000000000000000 ) ) ;
#106 = CARTESIAN_POINT ( 'NONE',  ( 2.350000000000000089, 2.877919977996279827E-16, 4.900000000000000355 ) ) ;
#107 = FACE_OUTER_BOUND ( 'NONE', #391, .T. ) ;
#108 = SURFACE_SIDE_STYLE ('',( #249 ) ) ;
#109 = CARTESIAN_POINT ( 'NONE',  ( 0.000000000000000000, 0.000000000000000000, 4.900000000000000355 ) ) ;
#110 = CARTESIAN_POINT ( 'NONE',  ( -1.849999999999999867, 2.265596578422603100E-16, 9.250000000000000000 ) ) ;
#111 = AXIS2_PLACEMENT_3D ( 'NONE', #149, #346, #378 ) ;
#112 = CARTESIAN_POINT ( 'NONE',  ( 2.600000000000000089, 0.000000000000000000, -4.900000000000000355 ) ) ;
#113 = EDGE_CURVE ( 'NONE', #86, #97, #252, .T. ) ;
#114 = UNCERTAINTY_MEASURE_WITH_UNIT (LENGTH_MEASURE( 1.000000000000000082E-05 ), #277, 'distance_accuracy_value', 'NONE');
#115 = DIRECTION ( 'NONE',  ( 0.000000000000000000, 0.000000000000000000, -1.000000000000000000 ) ) ;
#116 = ORIENTED_EDGE ( 'NONE', *, *, #83, .F. ) ;
#117 = CARTESIAN_POINT ( 'NONE',  ( 0.000000000000000000, 0.000000000000000000, -9.250000000000000000 ) ) ;
#118 = ADVANCED_FACE ( 'NONE', ( #8 ), #101, .T. ) ;
#119 = ORIENTED_EDGE ( 'NONE', *, *, #302, .F. ) ;
#120 = CIRCLE ( 'NONE', #73, 0.7500000000000000000 ) ;
#121 = AXIS2_PLACEMENT_3D ( 'NONE', #54, #199, #22 ) ;
#122 = CIRCLE ( 'NONE', #240, 2.600000000000000089 ) ;
#123 = ORIENTED_EDGE ( 'NONE', *, *, #405, .T. ) ;
#124 = FACE_BOUND ( 'NONE', #207, .T. ) ;
#125 = VERTEX_POINT ( 'NONE', #312 ) ;
#126 = CYLINDRICAL_SURFACE ( 'NONE', #181, 2.600000000000000089 ) ;
#127 = EDGE_CURVE ( 'NONE', #362, #194, #203, .T. ) ;
#128 = EDGE_LOOP ( 'NONE', ( #230, #87 ) ) ;
#129 = ORIENTED_EDGE ( 'NONE', *, *, #321, .F. ) ;
#130 = DIRECTION ( 'NONE',  ( -0.000000000000000000, -0.000000000000000000, -1.000000000000000000 ) ) ;
#131 = ORIENTED_EDGE ( 'NONE', *, *, #162, .T. ) ;
#132 = CARTESIAN_POINT ( 'NONE',  ( 2.600000000000000089, 3.184081677783118191E-16, 9.250000000000000000 ) ) ;
#133 = VECTOR ( 'NONE', #102, 1000.000000000000000 ) ;
#134 = AXIS2_PLACEMENT_3D ( 'NONE', #224, #223, #35 ) ;
#135 = CIRCLE ( 'NONE', #376, 2.600000000000000089 ) ;
#136 = EDGE_LOOP ( 'NONE', ( #155, #421, #91, #197 ) ) ;
#137 = CARTESIAN_POINT ( 'NONE',  ( -2.600000000000000089, 3.184081677783118191E-16, -9.250000000000000000 ) ) ;
#138 = CARTESIAN_POINT ( 'NONE',  ( 2.350000000000000089, 2.877919977996279827E-16, -4.900000000000000355 ) ) ;
#139 = MANIFOLD_SOLID_BREP ( 'Fillet2', #359 ) ;
#140 = DIRECTION ( 'NONE',  ( -0.000000000000000000, -0.000000000000000000, 1.000000000000000000 ) ) ;
#141 = DIRECTION ( 'NONE',  ( 1.000000000000000000, 0.000000000000000000, 0.000000000000000000 ) ) ;
#142 = CARTESIAN_POINT ( 'NONE',  ( 0.000000000000000000, 0.000000000000000000, 4.900000000000000355 ) ) ;
#143 = AXIS2_PLACEMENT_3D ( 'NONE', #319, #352, #185 ) ;
#144 = DIRECTION ( 'NONE',  ( 0.000000000000000000, 0.000000000000000000, 1.000000000000000000 ) ) ;
#145 = PRODUCT_DEFINITION_CONTEXT ( 'detailed design', #55, 'design' ) ;
#146 = DIRECTION ( 'NONE',  ( 0.000000000000000000, 0.000000000000000000, 1.000000000000000000 ) ) ;
#147 = DIRECTION ( 'NONE',  ( -1.000000000000000000, 0.000000000000000000, 0.000000000000000000 ) ) ;
#148 = DIRECTION ( 'NONE',  ( 1.000000000000000000, 0.000000000000000000, 0.000000000000000000 ) ) ;
#149 = CARTESIAN_POINT ( 'NONE',  ( 0.000000000000000000, 0.000000000000000000, -4.900000000000000355 ) ) ;
#150 = VECTOR ( 'NONE', #62, 1000.000000000000000 ) ;
#151 = AXIS2_PLACEMENT_3D ( 'NONE', #142, #178, #169 ) ;
#152 = DIRECTION ( 'NONE',  ( 1.000000000000000000, 0.000000000000000000, 0.000000000000000000 ) ) ;
#153 = VERTEX_POINT ( 'NONE', #48 ) ;
#154 = ORIENTED_EDGE ( 'NONE', *, *, #397, .F. ) ;
#155 = ORIENTED_EDGE ( 'NONE', *, *, #236, .F. ) ;
#156 =( NAMED_UNIT ( * ) PLANE_ANGLE_UNIT ( ) SI_UNIT ( $, .RADIAN. ) );
#157 = AXIS2_PLACEMENT_3D ( 'NONE', #304, #337, #30 ) ;
#158 = ORIENTED_EDGE ( 'NONE', *, *, #127, .F. ) ;
#159 = FILL_AREA_STYLE_COLOUR ( '', #413 ) ;
#160 = EDGE_LOOP ( 'NONE', ( #99, #356, #131, #380 ) ) ;
#161 = FACE_OUTER_BOUND ( 'NONE', #136, .T. ) ;
#162 = EDGE_CURVE ( 'NONE', #235, #97, #365, .T. ) ;
#163 = FACE_OUTER_BOUND ( 'NONE', #322, .T. ) ;
#164 =( GEOMETRIC_REPRESENTATION_CONTEXT ( 3 ) GLOBAL_UNCERTAINTY_ASSIGNED_CONTEXT ( ( #114 ) ) GLOBAL_UNIT_ASSIGNED_CONTEXT ( ( #277, #269, #58 ) ) REPRESENTATION_CONTEXT ( 'NONE', 'WORKASPACE' ) );
#165 = CARTESIAN_POINT ( 'NONE',  ( 2.600000000000000089, 3.184081677783118191E-16, 10.00000000000000000 ) ) ;
#166 = CYLINDRICAL_SURFACE ( 'NONE', #394, 2.600000000000000089 ) ;
#167 = ADVANCED_FACE ( 'NONE', ( #124, #263 ), #85, .F. ) ;
#168 = ORIENTED_EDGE ( 'NONE', *, *, #212, .F. ) ;
#169 = DIRECTION ( 'NONE',  ( 1.000000000000000000, 0.000000000000000000, 0.000000000000000000 ) ) ;
#170 = SURFACE_STYLE_FILL_AREA ( #363 ) ;
#171 = DIRECTION ( 'NONE',  ( 1.000000000000000000, 0.000000000000000000, -0.000000000000000000 ) ) ;
#172 = CIRCLE ( 'NONE', #157, 2.350000000000000089 ) ;
#173 =( GEOMETRIC_REPRESENTATION_CONTEXT ( 3 ) GLOBAL_UNCERTAINTY_ASSIGNED_CONTEXT ( ( #351 ) ) GLOBAL_UNIT_ASSIGNED_CONTEXT ( ( #77, #74, #310 ) ) REPRESENTATION_CONTEXT ( 'NONE', 'WORKASPACE' ) );
#174 = CARTESIAN_POINT ( 'NONE',  ( 0.000000000000000000, 0.000000000000000000, 4.900000000000000355 ) ) ;
#175 = DIRECTION ( 'NONE',  ( 1.000000000000000000, 0.000000000000000000, 0.000000000000000000 ) ) ;
#176 = CARTESIAN_POINT ( 'NONE',  ( -1.849999999999999867, 2.724839128102860892E-16, 10.00000000000000000 ) ) ;
#177 = UNCERTAINTY_MEASURE_WITH_UNIT (LENGTH_MEASURE( 1.000000000000000082E-05 ), #404, 'distance_accuracy_value', 'NONE');
#178 = DIRECTION ( 'NONE',  ( 0.000000000000000000, 0.000000000000000000, 1.000000000000000000 ) ) ;
#179 = ADVANCED_FACE ( 'NONE', ( #161 ), #126, .T. ) ;
#180 = DIRECTION ( 'NONE',  ( 0.000000000000000000, 0.000000000000000000, -1.000000000000000000 ) ) ;
#181 = AXIS2_PLACEMENT_3D ( 'NONE', #370, #140, #175 ) ;
#182 = CARTESIAN_POINT ( 'NONE',  ( 0.000000000000000000, 0.000000000000000000, -9.250000000000000000 ) ) ;
#183 = DIRECTION ( 'NONE',  ( 1.224646799147353207E-16, 1.000000000000000000, -0.000000000000000000 ) ) ;
#184 = ADVANCED_FACE ( 'NONE', ( #34 ), #300, .T. ) ;
#185 = DIRECTION ( 'NONE',  ( -1.000000000000000000, 0.000000000000000000, 0.000000000000000000 ) ) ;
#186 = CARTESIAN_POINT ( 'NONE',  ( -2.600000000000000089, 0.000000000000000000, 9.250000000000000000 ) ) ;
#187 = DIRECTION ( 'NONE',  ( 0.000000000000000000, 0.000000000000000000, 1.000000000000000000 ) ) ;
#188 = STYLED_ITEM ( 'NONE', ( #241 ), #6 ) ;
#189 =( NAMED_UNIT ( * ) SI_UNIT ( $, .STERADIAN. ) SOLID_ANGLE_UNIT ( ) );
#190 = EDGE_CURVE ( 'NONE', #412, #393, #392, .T. ) ;
#191 = EDGE_LOOP ( 'NONE', ( #419, #264, #56, #390 ) ) ;
#192 = VERTEX_POINT ( 'NONE', #213 ) ;
#193 = SURFACE_STYLE_USAGE ( .BOTH. , #387 ) ;
#194 = VERTEX_POINT ( 'NONE', #280 ) ;
#195 = AXIS2_PLACEMENT_3D ( 'NONE', #315, #187, #152 ) ;
#196 = EDGE_CURVE ( 'NONE', #384, #153, #307, .T. ) ;
#197 = ORIENTED_EDGE ( 'NONE', *, *, #418, .T. ) ;
#198 = FILL_AREA_STYLE ('',( #159 ) ) ;
#199 = DIRECTION ( 'NONE',  ( 0.000000000000000000, 0.000000000000000000, -1.000000000000000000 ) ) ;
#200 = ORIENTED_EDGE ( 'NONE', *, *, #212, .T. ) ;
#201 = CYLINDRICAL_SURFACE ( 'NONE', #16, 2.350000000000000089 ) ;
#202 = AXIS2_PLACEMENT_3D ( 'NONE', #425, #273, #244 ) ;
#203 = CIRCLE ( 'NONE', #4, 2.600000000000000089 ) ;
#204 = ADVANCED_FACE ( 'NONE', ( #242 ), #368, .T. ) ;
#205 = ORIENTED_EDGE ( 'NONE', *, *, #89, .F. ) ;
#206 = CARTESIAN_POINT ( 'NONE',  ( 0.000000000000000000, 0.000000000000000000, -9.250000000000000000 ) ) ;
#207 = EDGE_LOOP ( 'NONE', ( #154, #168 ) ) ;
#208 = DIRECTION ( 'NONE',  ( 0.000000000000000000, 0.000000000000000000, 1.000000000000000000 ) ) ;
#209 = PLANE ( 'NONE',  #382 ) ;
#210 = DIRECTION ( 'NONE',  ( -0.000000000000000000, -0.000000000000000000, 1.000000000000000000 ) ) ;
#211 = AXIS2_PLACEMENT_3D ( 'NONE', #373, #335, #395 ) ;
#212 = EDGE_CURVE ( 'NONE', #21, #153, #52, .T. ) ;
#213 = CARTESIAN_POINT ( 'NONE',  ( 2.350000000000000089, 2.877919977996279827E-16, 4.900000000000000355 ) ) ;
#214 = UNCERTAINTY_MEASURE_WITH_UNIT (LENGTH_MEASURE( 1.000000000000000082E-05 ), #262, 'distance_accuracy_value', 'NONE');
#215 = DIRECTION ( 'NONE',  ( 0.000000000000000000, 0.000000000000000000, 1.000000000000000000 ) ) ;
#216 = FACE_OUTER_BOUND ( 'NONE', #46, .T. ) ;
#217 = CARTESIAN_POINT ( 'NONE',  ( -2.600000000000000089, 0.000000000000000000, 4.900000000000000355 ) ) ;
#218 = EDGE_CURVE ( 'NONE', #192, #384, #347, .T. ) ;
#219 = CIRCLE ( 'NONE', #17, 0.7500000000000000000 ) ;
#220 = CARTESIAN_POINT ( 'NONE',  ( 0.000000000000000000, 0.000000000000000000, -10.00000000000000000 ) ) ;
#221 = DIRECTION ( 'NONE',  ( -0.000000000000000000, -1.000000000000000000, -0.000000000000000000 ) ) ;
#222 = DIRECTION ( 'NONE',  ( 1.000000000000000000, 0.000000000000000000, 0.000000000000000000 ) ) ;
#223 = DIRECTION ( 'NONE',  ( 0.000000000000000000, 0.000000000000000000, 1.000000000000000000 ) ) ;
#224 = CARTESIAN_POINT ( 'NONE',  ( 0.000000000000000000, 0.000000000000000000, 9.250000000000000000 ) ) ;
#225 = VECTOR ( 'NONE', #245, 1000.000000000000000 ) ;
#226 = ORIENTED_EDGE ( 'NONE', *, *, #218, .F. ) ;
#227 = ORIENTED_EDGE ( 'NONE', *, *, #422, .T. ) ;
#228 = ORIENTED_EDGE ( 'NONE', *, *, #236, .T. ) ;
#229 = ADVANCED_FACE ( 'NONE', ( #65 ), #166, .T. ) ;
#230 = ORIENTED_EDGE ( 'NONE', *, *, #289, .T. ) ;
#231 = PRESENTATION_LAYER_ASSIGNMENT (  '', '', ( #360 ) ) ;
#232 = AXIS2_PLACEMENT_3D ( 'NONE', #358, #47, #51 ) ;
#233 = EDGE_LOOP ( 'NONE', ( #11, #14, #336, #416 ) ) ;
#234 = APPLICATION_PROTOCOL_DEFINITION ( 'draft international standard', 'automotive_design', 1998, #10 ) ;
#235 = VERTEX_POINT ( 'NONE', #132 ) ;
#236 = EDGE_CURVE ( 'NONE', #295, #84, #26, .T. ) ;
#237 = ORIENTED_EDGE ( 'NONE', *, *, #127, .T. ) ;
#238 = DIRECTION ( 'NONE',  ( -1.000000000000000000, 0.000000000000000000, 0.000000000000000000 ) ) ;
#239 = AXIS2_PLACEMENT_3D ( 'NONE', #343, #208, #367 ) ;
#240 = AXIS2_PLACEMENT_3D ( 'NONE', #117, #259, #147 ) ;
#241 = PRESENTATION_STYLE_ASSIGNMENT (( #27 ) ) ;
#242 = FACE_OUTER_BOUND ( 'NONE', #386, .T. ) ;
#243 = CARTESIAN_POINT ( 'NONE',  ( 1.849999999999999867, 2.724839128102860892E-16, -10.00000000000000000 ) ) ;
#244 = DIRECTION ( 'NONE',  ( -1.000000000000000000, 0.000000000000000000, 0.000000000000000000 ) ) ;
#245 = DIRECTION ( 'NONE',  ( -0.000000000000000000, -0.000000000000000000, -1.000000000000000000 ) ) ;
#246 = COLOUR_RGB ( '',0.7921568627450980005, 0.8196078431372548767, 0.9333333333333333481 ) ;
#247 = MECHANICAL_DESIGN_GEOMETRIC_PRESENTATION_REPRESENTATION (  '', ( #400 ), #407 ) ;
#248 = PLANE ( 'NONE',  #211 ) ;
#249 = SURFACE_STYLE_FILL_AREA ( #76 ) ;
#250 = PRESENTATION_STYLE_ASSIGNMENT (( #349 ) ) ;
#251 = CARTESIAN_POINT ( 'NONE',  ( 0.000000000000000000, 0.000000000000000000, 4.900000000000000355 ) ) ;
#252 = CIRCLE ( 'NONE', #303, 1.849999999999999867 ) ;
#253 = PRODUCT ( '0618002.MXP', '0618002.MXP', '', ( #417 ) ) ;
#254 = TOROIDAL_SURFACE ( 'NONE', #143, 1.849999999999999867, 0.7500000000000000000 ) ;
#255 = CARTESIAN_POINT ( 'NONE',  ( 1.849999999999999867, 0.000000000000000000, 9.250000000000000000 ) ) ;
#256 = CARTESIAN_POINT ( 'NONE',  ( -2.600000000000000089, 3.184081677783118191E-16, -4.900000000000000355 ) ) ;
#257 = SURFACE_STYLE_FILL_AREA ( #42 ) ;
#258 = EDGE_CURVE ( 'NONE', #384, #192, #172, .T. ) ;
#259 = DIRECTION ( 'NONE',  ( -0.000000000000000000, -0.000000000000000000, 1.000000000000000000 ) ) ;
#260 = ORIENTED_EDGE ( 'NONE', *, *, #162, .F. ) ;
#261 = VERTEX_POINT ( 'NONE', #243 ) ;
#262 =( LENGTH_UNIT ( ) NAMED_UNIT ( * ) SI_UNIT ( .MILLI., .METRE. ) );
#263 = FACE_OUTER_BOUND ( 'NONE', #355, .T. ) ;
#264 = ORIENTED_EDGE ( 'NONE', *, *, #258, .F. ) ;
#265 = APPLICATION_PROTOCOL_DEFINITION ( 'draft international standard', 'automotive_design', 1998, #55 ) ;
#266 = ORIENTED_EDGE ( 'NONE', *, *, #96, .T. ) ;
#267 = TOROIDAL_SURFACE ( 'NONE', #134, 1.849999999999999867, 0.7500000000000000000 ) ;
#268 = EDGE_CURVE ( 'NONE', #412, #261, #219, .T. ) ;
#269 =( NAMED_UNIT ( * ) PLANE_ANGLE_UNIT ( ) SI_UNIT ( $, .RADIAN. ) );
#270 = SHAPE_DEFINITION_REPRESENTATION ( #72, #333 ) ;
#271 = DIRECTION ( 'NONE',  ( -1.000000000000000000, 0.000000000000000000, 0.000000000000000000 ) ) ;
#272 = CARTESIAN_POINT ( 'NONE',  ( -2.600000000000000089, 3.184081677783118191E-16, -10.00000000000000000 ) ) ;
#273 = DIRECTION ( 'NONE',  ( -0.000000000000000000, -0.000000000000000000, -1.000000000000000000 ) ) ;
#274 = DIRECTION ( 'NONE',  ( 1.000000000000000000, 0.000000000000000000, 0.000000000000000000 ) ) ;
#275 = AXIS2_PLACEMENT_3D ( 'NONE', #430, #366, #274 ) ;
#276 = CIRCLE ( 'NONE', #104, 2.600000000000000089 ) ;
#277 =( LENGTH_UNIT ( ) NAMED_UNIT ( * ) SI_UNIT ( .MILLI., .METRE. ) );
#278 = DIRECTION ( 'NONE',  ( -1.000000000000000000, 0.000000000000000000, 0.000000000000000000 ) ) ;
#279 = CYLINDRICAL_SURFACE ( 'NONE', #202, 2.600000000000000089 ) ;
#280 = CARTESIAN_POINT ( 'NONE',  ( 2.600000000000000089, 3.184081677783118191E-16, 4.900000000000000355 ) ) ;
#281 = CARTESIAN_POINT ( 'NONE',  ( 0.000000000000000000, 0.000000000000000000, 9.250000000000000000 ) ) ;
#282 = DIRECTION ( 'NONE',  ( -1.000000000000000000, 0.000000000000000000, 0.000000000000000000 ) ) ;
#283 = AXIS2_PLACEMENT_3D ( 'NONE', #281, #345, #43 ) ;
#284 = CIRCLE ( 'NONE', #332, 2.600000000000000089 ) ;
#285 = CARTESIAN_POINT ( 'NONE',  ( 0.000000000000000000, 0.000000000000000000, 10.00000000000000000 ) ) ;
#286 = FILL_AREA_STYLE_COLOUR ( '', #354 ) ;
#287 = CARTESIAN_POINT ( 'NONE',  ( 0.000000000000000000, 0.000000000000000000, -4.900000000000000355 ) ) ;
#288 =( NAMED_UNIT ( * ) PLANE_ANGLE_UNIT ( ) SI_UNIT ( $, .RADIAN. ) );
#289 = EDGE_CURVE ( 'NONE', #97, #86, #406, .T. ) ;
#290 = EDGE_LOOP ( 'NONE', ( #53, #325 ) ) ;
#291 = CYLINDRICAL_SURFACE ( 'NONE', #81, 2.350000000000000089 ) ;
#292 = ORIENTED_EDGE ( 'NONE', *, *, #78, .T. ) ;
#293 = AXIS2_PLACEMENT_3D ( 'NONE', #33, #215, #171 ) ;
#294 = EDGE_LOOP ( 'NONE', ( #324, #306 ) ) ;
#295 = VERTEX_POINT ( 'NONE', #137 ) ;
#296 = ORIENTED_EDGE ( 'NONE', *, *, #350, .F. ) ;
#297 = FACE_OUTER_BOUND ( 'NONE', #414, .T. ) ;
#298 = DIRECTION ( 'NONE',  ( -0.000000000000000000, -0.000000000000000000, 1.000000000000000000 ) ) ;
#299 = FACE_OUTER_BOUND ( 'NONE', #233, .T. ) ;
#300 = PLANE ( 'NONE',  #293 ) ;
#301 = SURFACE_SIDE_STYLE ('',( #170 ) ) ;
#302 = EDGE_CURVE ( 'NONE', #261, #125, #45, .T. ) ;
#303 = AXIS2_PLACEMENT_3D ( 'NONE', #285, #313, #403 ) ;
#304 = CARTESIAN_POINT ( 'NONE',  ( 0.000000000000000000, 0.000000000000000000, 4.900000000000000355 ) ) ;
#305 = MECHANICAL_DESIGN_GEOMETRIC_PRESENTATION_REPRESENTATION (  '', ( #60 ), #311 ) ;
#306 = ORIENTED_EDGE ( 'NONE', *, *, #302, .T. ) ;
#307 = LINE ( 'NONE', #66, #225 ) ;
#308 = DIRECTION ( 'NONE',  ( -0.000000000000000000, -0.000000000000000000, 1.000000000000000000 ) ) ;
#309 = DIRECTION ( 'NONE',  ( -1.000000000000000000, 0.000000000000000000, 0.000000000000000000 ) ) ;
#310 =( NAMED_UNIT ( * ) SI_UNIT ( $, .STERADIAN. ) SOLID_ANGLE_UNIT ( ) );
#311 =( GEOMETRIC_REPRESENTATION_CONTEXT ( 3 ) GLOBAL_UNCERTAINTY_ASSIGNED_CONTEXT ( ( #342 ) ) GLOBAL_UNIT_ASSIGNED_CONTEXT ( ( #377, #288, #326 ) ) REPRESENTATION_CONTEXT ( 'NONE', 'WORKASPACE' ) );
#312 = CARTESIAN_POINT ( 'NONE',  ( -1.849999999999999867, 0.000000000000000000, -10.00000000000000000 ) ) ;
#313 = DIRECTION ( 'NONE',  ( 0.000000000000000000, 0.000000000000000000, 1.000000000000000000 ) ) ;
#314 = DIRECTION ( 'NONE',  ( 0.000000000000000000, 0.000000000000000000, -1.000000000000000000 ) ) ;
#315 = CARTESIAN_POINT ( 'NONE',  ( 0.000000000000000000, 0.000000000000000000, -4.900000000000000355 ) ) ;
#316 = EDGE_CURVE ( 'NONE', #90, #362, #95, .T. ) ;
#317 = PRESENTATION_LAYER_ASSIGNMENT (  '', '', ( #188 ) ) ;
#318 = AXIS2_PLACEMENT_3D ( 'NONE', #98, #221, #115 ) ;
#319 = CARTESIAN_POINT ( 'NONE',  ( 0.000000000000000000, 0.000000000000000000, -9.250000000000000000 ) ) ;
#320 = SURFACE_STYLE_FILL_AREA ( #198 ) ;
#321 = EDGE_CURVE ( 'NONE', #295, #412, #135, .T. ) ;
#322 = EDGE_LOOP ( 'NONE', ( #226, #266, #200, #357 ) ) ;
#323 = AXIS2_PLACEMENT_3D ( 'NONE', #424, #63, #278 ) ;
#324 = ORIENTED_EDGE ( 'NONE', *, *, #83, .T. ) ;
#325 = ORIENTED_EDGE ( 'NONE', *, *, #218, .T. ) ;
#326 =( NAMED_UNIT ( * ) SI_UNIT ( $, .STERADIAN. ) SOLID_ANGLE_UNIT ( ) );
#327 = CARTESIAN_POINT ( 'NONE',  ( 0.000000000000000000, 0.000000000000000000, 9.250000000000000000 ) ) ;
#328 =( NAMED_UNIT ( * ) SI_UNIT ( $, .STERADIAN. ) SOLID_ANGLE_UNIT ( ) );
#329 = ADVANCED_FACE ( 'NONE', ( #398 ), #248, .T. ) ;
#330 = MECHANICAL_DESIGN_GEOMETRIC_PRESENTATION_REPRESENTATION (  '', ( #188 ), #164 ) ;
#331 = DIRECTION ( 'NONE',  ( -0.000000000000000000, -0.000000000000000000, -1.000000000000000000 ) ) ;
#332 = AXIS2_PLACEMENT_3D ( 'NONE', #287, #3, #7 ) ;
#333 = ADVANCED_BREP_SHAPE_REPRESENTATION ( '0618002.MXP', ( #139, #232 ), #173 ) ;
#334 = CARTESIAN_POINT ( 'NONE',  ( 0.000000000000000000, 0.000000000000000000, 4.900000000000000355 ) ) ;
#335 = DIRECTION ( 'NONE',  ( 0.000000000000000000, 0.000000000000000000, -1.000000000000000000 ) ) ;
#336 = ORIENTED_EDGE ( 'NONE', *, *, #433, .T. ) ;
#337 = DIRECTION ( 'NONE',  ( 0.000000000000000000, 0.000000000000000000, 1.000000000000000000 ) ) ;
#338 = ORIENTED_EDGE ( 'NONE', *, *, #71, .T. ) ;
#339 = CIRCLE ( 'NONE', #2, 2.600000000000000089 ) ;
#340 = DIRECTION ( 'NONE',  ( -1.000000000000000000, -1.224646799147353207E-16, 0.000000000000000000 ) ) ;
#341 = AXIS2_PLACEMENT_3D ( 'NONE', #92, #70, #238 ) ;
#342 = UNCERTAINTY_MEASURE_WITH_UNIT (LENGTH_MEASURE( 1.000000000000000082E-05 ), #377, 'distance_accuracy_value', 'NONE');
#343 = CARTESIAN_POINT ( 'NONE',  ( 0.000000000000000000, 0.000000000000000000, -4.900000000000000355 ) ) ;
#344 = ADVANCED_FACE ( 'NONE', ( #28 ), #267, .T. ) ;
#345 = DIRECTION ( 'NONE',  ( -0.000000000000000000, -0.000000000000000000, -1.000000000000000000 ) ) ;
#346 = DIRECTION ( 'NONE',  ( 0.000000000000000000, 0.000000000000000000, -1.000000000000000000 ) ) ;
#347 = CIRCLE ( 'NONE', #151, 2.350000000000000089 ) ;
#348 = DIRECTION ( 'NONE',  ( -1.000000000000000000, 0.000000000000000000, 0.000000000000000000 ) ) ;
#349 = SURFACE_STYLE_USAGE ( .BOTH. , #108 ) ;
#350 = EDGE_CURVE ( 'NONE', #295, #125, #67, .T. ) ;
#351 = UNCERTAINTY_MEASURE_WITH_UNIT (LENGTH_MEASURE( 1.000000000000000082E-05 ), #77, 'distance_accuracy_value', 'NONE');
#352 = DIRECTION ( 'NONE',  ( 0.000000000000000000, 0.000000000000000000, -1.000000000000000000 ) ) ;
#353 = PRESENTATION_STYLE_ASSIGNMENT (( #39 ) ) ;
#354 = COLOUR_RGB ( '',1.000000000000000000, 1.000000000000000000, 1.000000000000000000 ) ;
#355 = EDGE_LOOP ( 'NONE', ( #79, #385 ) ) ;
#356 = ORIENTED_EDGE ( 'NONE', *, *, #71, .F. ) ;
#357 = ORIENTED_EDGE ( 'NONE', *, *, #196, .F. ) ;
#358 = CARTESIAN_POINT ( 'NONE',  ( 0.000000000000000000, 0.000000000000000000, 0.000000000000000000 ) ) ;
#359 = CLOSED_SHELL ( 'NONE', ( #103, #118, #229, #49, #6, #409, #204, #184, #36, #179, #329, #167, #388, #344 ) ) ;
#360 = STYLED_ITEM ( 'NONE', ( #353 ), #409 ) ;
#361 = ORIENTED_EDGE ( 'NONE', *, *, #350, .T. ) ;
#362 = VERTEX_POINT ( 'NONE', #217 ) ;
#363 = FILL_AREA_STYLE ('',( #431 ) ) ;
#364 = TOROIDAL_SURFACE ( 'NONE', #59, 1.849999999999999867, 0.7500000000000000000 ) ;
#365 = CIRCLE ( 'NONE', #31, 0.7500000000000006661 ) ;
#366 = DIRECTION ( 'NONE',  ( 0.000000000000000000, 0.000000000000000000, 1.000000000000000000 ) ) ;
#367 = DIRECTION ( 'NONE',  ( 1.000000000000000000, 0.000000000000000000, 0.000000000000000000 ) ) ;
#368 = CYLINDRICAL_SURFACE ( 'NONE', #341, 2.600000000000000089 ) ;
#369 = DIRECTION ( 'NONE',  ( 1.000000000000000000, 0.000000000000000000, -0.000000000000000000 ) ) ;
#370 = CARTESIAN_POINT ( 'NONE',  ( 0.000000000000000000, 0.000000000000000000, -10.00000000000000000 ) ) ;
#371 = MECHANICAL_DESIGN_GEOMETRIC_PRESENTATION_REPRESENTATION (  '', ( #360 ), #399 ) ;
#372 = PRODUCT_DEFINITION ( 'UNKNOWN', '', #61, #145 ) ;
#373 = CARTESIAN_POINT ( 'NONE',  ( 0.000000000000000000, 0.000000000000000000, -10.00000000000000000 ) ) ;
#374 = DIRECTION ( 'NONE',  ( -1.000000000000000000, 1.224646799147353207E-16, 0.000000000000000000 ) ) ;
#375 = CIRCLE ( 'NONE', #195, 2.350000000000000089 ) ;
#376 = AXIS2_PLACEMENT_3D ( 'NONE', #206, #434, #282 ) ;
#377 =( LENGTH_UNIT ( ) NAMED_UNIT ( * ) SI_UNIT ( .MILLI., .METRE. ) );
#378 = DIRECTION ( 'NONE',  ( -1.000000000000000000, 0.000000000000000000, 0.000000000000000000 ) ) ;
#379 =( NAMED_UNIT ( * ) PLANE_ANGLE_UNIT ( ) SI_UNIT ( $, .RADIAN. ) );
#380 = ORIENTED_EDGE ( 'NONE', *, *, #113, .F. ) ;
#381 = DIRECTION ( 'NONE',  ( 0.000000000000000000, 0.000000000000000000, 1.000000000000000000 ) ) ;
#382 = AXIS2_PLACEMENT_3D ( 'NONE', #174, #32, #369 ) ;
#383 = PRESENTATION_LAYER_ASSIGNMENT (  '', '', ( #60 ) ) ;
#384 = VERTEX_POINT ( 'NONE', #44 ) ;
#385 = ORIENTED_EDGE ( 'NONE', *, *, #405, .F. ) ;
#386 = EDGE_LOOP ( 'NONE', ( #20, #338, #13, #237 ) ) ;
#387 = SURFACE_SIDE_STYLE ('',( #320 ) ) ;
#388 = ADVANCED_FACE ( 'NONE', ( #107 ), #254, .T. ) ;
#389 = VECTOR ( 'NONE', #210, 1000.000000000000000 ) ;
#390 = ORIENTED_EDGE ( 'NONE', *, *, #397, .T. ) ;
#391 = EDGE_LOOP ( 'NONE', ( #23, #129, #361, #119 ) ) ;
#392 = LINE ( 'NONE', #105, #93 ) ;
#393 = VERTEX_POINT ( 'NONE', #112 ) ;
#394 = AXIS2_PLACEMENT_3D ( 'NONE', #69, #308, #432 ) ;
#395 = DIRECTION ( 'NONE',  ( -1.000000000000000000, 0.000000000000000000, -0.000000000000000000 ) ) ;
#396 = CARTESIAN_POINT ( 'NONE',  ( 1.849999999999999867, 2.265596578422603100E-16, -9.250000000000000000 ) ) ;
#397 = EDGE_CURVE ( 'NONE', #153, #21, #375, .T. ) ;
#398 = FACE_OUTER_BOUND ( 'NONE', #294, .T. ) ;
#399 =( GEOMETRIC_REPRESENTATION_CONTEXT ( 3 ) GLOBAL_UNCERTAINTY_ASSIGNED_CONTEXT ( ( #177 ) ) GLOBAL_UNIT_ASSIGNED_CONTEXT ( ( #404, #379, #189 ) ) REPRESENTATION_CONTEXT ( 'NONE', 'WORKASPACE' ) );
#400 = STYLED_ITEM ( 'NONE', ( #415 ), #333 ) ;
#401 = FILL_AREA_STYLE_COLOUR ( '', #246 ) ;
#402 = DIRECTION ( 'NONE',  ( -0.000000000000000000, -0.000000000000000000, -1.000000000000000000 ) ) ;
#403 = DIRECTION ( 'NONE',  ( 1.000000000000000000, 0.000000000000000000, 0.000000000000000000 ) ) ;
#404 =( LENGTH_UNIT ( ) NAMED_UNIT ( * ) SI_UNIT ( .MILLI., .METRE. ) );
#405 = EDGE_CURVE ( 'NONE', #84, #393, #428, .T. ) ;
#406 = CIRCLE ( 'NONE', #275, 1.849999999999999867 ) ;
#407 =( GEOMETRIC_REPRESENTATION_CONTEXT ( 3 ) GLOBAL_UNCERTAINTY_ASSIGNED_CONTEXT ( ( #214 ) ) GLOBAL_UNIT_ASSIGNED_CONTEXT ( ( #262, #156, #328 ) ) REPRESENTATION_CONTEXT ( 'NONE', 'WORKASPACE' ) );
#408 = SURFACE_SIDE_STYLE ('',( #257 ) ) ;
#409 = ADVANCED_FACE ( 'NONE', ( #12 ), #291, .T. ) ;
#410 = EDGE_LOOP ( 'NONE', ( #227, #228, #123, #50 ) ) ;
#411 = CARTESIAN_POINT ( 'NONE',  ( 2.600000000000000089, 0.000000000000000000, -9.250000000000000000 ) ) ;
#412 = VERTEX_POINT ( 'NONE', #411 ) ;
#413 = COLOUR_RGB ( '',0.7921568627450980005, 0.8196078431372548767, 0.9333333333333333481 ) ;
#414 = EDGE_LOOP ( 'NONE', ( #158, #94 ) ) ;
#415 = PRESENTATION_STYLE_ASSIGNMENT (( #193 ) ) ;
#416 = ORIENTED_EDGE ( 'NONE', *, *, #316, .F. ) ;
#417 = PRODUCT_CONTEXT ( 'NONE', #10, 'mechanical' ) ;
#418 = EDGE_CURVE ( 'NONE', #393, #84, #284, .T. ) ;
#419 = ORIENTED_EDGE ( 'NONE', *, *, #96, .F. ) ;
#420 = AXIS2_PLACEMENT_3D ( 'NONE', #220, #180, #309 ) ;
#421 = ORIENTED_EDGE ( 'NONE', *, *, #321, .T. ) ;
#422 = EDGE_CURVE ( 'NONE', #412, #295, #122, .T. ) ;
#423 = DIRECTION ( 'NONE',  ( -0.000000000000000000, -0.000000000000000000, -1.000000000000000000 ) ) ;
#424 = CARTESIAN_POINT ( 'NONE',  ( 0.000000000000000000, 0.000000000000000000, -10.00000000000000000 ) ) ;
#425 = CARTESIAN_POINT ( 'NONE',  ( 0.000000000000000000, 0.000000000000000000, 10.00000000000000000 ) ) ;
#426 = CARTESIAN_POINT ( 'NONE',  ( -2.600000000000000089, 0.000000000000000000, 10.00000000000000000 ) ) ;
#427 = CIRCLE ( 'NONE', #420, 1.849999999999999867 ) ;
#428 = CIRCLE ( 'NONE', #111, 2.600000000000000089 ) ;
#429 = ORIENTED_EDGE ( 'NONE', *, *, #268, .T. ) ;
#430 = CARTESIAN_POINT ( 'NONE',  ( 0.000000000000000000, 0.000000000000000000, 10.00000000000000000 ) ) ;
#431 = FILL_AREA_STYLE_COLOUR ( '', #38 ) ;
#432 = DIRECTION ( 'NONE',  ( 1.000000000000000000, 0.000000000000000000, 0.000000000000000000 ) ) ;
#433 = EDGE_CURVE ( 'NONE', #194, #362, #276, .T. ) ;
#434 = DIRECTION ( 'NONE',  ( -0.000000000000000000, -0.000000000000000000, 1.000000000000000000 ) ) ;
ENDSEC;
END-ISO-10303-21;
