G04 #@! TF.GenerationSoftware,KiCad,Pcbnew,5.1.8-db9833491~87~ubuntu20.04.1*
G04 #@! TF.CreationDate,2020-11-14T17:48:48-07:00*
G04 #@! TF.ProjectId,heimdall_outsideboard,6865696d-6461-46c6-9c5f-6f7574736964,01*
G04 #@! TF.SameCoordinates,Original*
G04 #@! TF.FileFunction,Copper,L1,Top*
G04 #@! TF.FilePolarity,Positive*
%FSLAX46Y46*%
G04 Gerber Fmt 4.6, Leading zero omitted, Abs format (unit mm)*
G04 Created by KiCad (PCBNEW 5.1.8-db9833491~87~ubuntu20.04.1) date 2020-11-14 17:48:48*
%MOMM*%
%LPD*%
G01*
G04 APERTURE LIST*
G04 #@! TA.AperFunction,ComponentPad*
%ADD10R,1.050000X1.500000*%
G04 #@! TD*
G04 #@! TA.AperFunction,ComponentPad*
%ADD11O,1.050000X1.500000*%
G04 #@! TD*
G04 #@! TA.AperFunction,ComponentPad*
%ADD12R,1.700000X1.700000*%
G04 #@! TD*
G04 #@! TA.AperFunction,ComponentPad*
%ADD13O,1.700000X1.700000*%
G04 #@! TD*
G04 #@! TA.AperFunction,ComponentPad*
%ADD14R,1.850000X1.850000*%
G04 #@! TD*
G04 #@! TA.AperFunction,ComponentPad*
%ADD15C,1.850000*%
G04 #@! TD*
G04 #@! TA.AperFunction,ComponentPad*
%ADD16O,1.600000X1.600000*%
G04 #@! TD*
G04 #@! TA.AperFunction,ComponentPad*
%ADD17C,1.600000*%
G04 #@! TD*
G04 #@! TA.AperFunction,ComponentPad*
%ADD18R,1.070000X1.800000*%
G04 #@! TD*
G04 #@! TA.AperFunction,ComponentPad*
%ADD19O,1.070000X1.800000*%
G04 #@! TD*
G04 #@! TA.AperFunction,Conductor*
%ADD20C,0.254000*%
G04 #@! TD*
G04 #@! TA.AperFunction,Conductor*
%ADD21C,0.100000*%
G04 #@! TD*
G04 APERTURE END LIST*
D10*
G04 #@! TO.P,Q1,1*
G04 #@! TO.N,GND*
X65024000Y-112776000D03*
D11*
G04 #@! TO.P,Q1,3*
G04 #@! TO.N,Net-(BZ1-Pad2)*
X67564000Y-112776000D03*
G04 #@! TO.P,Q1,2*
G04 #@! TO.N,Net-(Q1-Pad2)*
X66294000Y-112776000D03*
G04 #@! TD*
D12*
G04 #@! TO.P,J6,1*
G04 #@! TO.N,+5V*
X78486000Y-85598000D03*
G04 #@! TD*
G04 #@! TO.P,J5,1*
G04 #@! TO.N,Net-(D1-Pad4)*
X83566000Y-83058000D03*
G04 #@! TD*
G04 #@! TO.P,J4,1*
G04 #@! TO.N,Net-(BZ1-Pad2)*
X76454000Y-113792000D03*
G04 #@! TD*
G04 #@! TO.P,J3,1*
G04 #@! TO.N,+3V3*
X77216000Y-104648000D03*
G04 #@! TD*
G04 #@! TO.P,J1,1*
G04 #@! TO.N,+5V*
X54102000Y-86868000D03*
D13*
G04 #@! TO.P,J1,2*
G04 #@! TO.N,+3V3*
X54102000Y-89408000D03*
G04 #@! TO.P,J1,3*
G04 #@! TO.N,GND*
X54102000Y-91948000D03*
G04 #@! TO.P,J1,4*
G04 #@! TO.N,/CS*
X54102000Y-94488000D03*
G04 #@! TO.P,J1,5*
G04 #@! TO.N,/SCK*
X54102000Y-97028000D03*
G04 #@! TO.P,J1,6*
G04 #@! TO.N,/MOSI*
X54102000Y-99568000D03*
G04 #@! TO.P,J1,7*
G04 #@! TO.N,/MISO*
X54102000Y-102108000D03*
G04 #@! TO.P,J1,8*
G04 #@! TO.N,/LED*
X54102000Y-104648000D03*
G04 #@! TO.P,J1,9*
G04 #@! TO.N,/Buzzer*
X54102000Y-107188000D03*
G04 #@! TD*
D14*
G04 #@! TO.P,BZ1,1*
G04 #@! TO.N,+3V3*
X85344000Y-109220000D03*
D15*
G04 #@! TO.P,BZ1,2*
G04 #@! TO.N,Net-(BZ1-Pad2)*
X85344000Y-114220000D03*
G04 #@! TD*
D12*
G04 #@! TO.P,J2,1*
G04 #@! TO.N,+3V3*
X89662000Y-89408000D03*
D13*
G04 #@! TO.P,J2,2*
G04 #@! TO.N,GND*
X89662000Y-91948000D03*
G04 #@! TO.P,J2,3*
G04 #@! TO.N,/CS*
X89662000Y-94488000D03*
G04 #@! TO.P,J2,4*
G04 #@! TO.N,/SCK*
X89662000Y-97028000D03*
G04 #@! TO.P,J2,5*
G04 #@! TO.N,/MOSI*
X89662000Y-99568000D03*
G04 #@! TO.P,J2,6*
G04 #@! TO.N,/MISO*
X89662000Y-102108000D03*
G04 #@! TD*
D11*
G04 #@! TO.P,Q2,2*
G04 #@! TO.N,+3V3*
X66802000Y-79502000D03*
G04 #@! TO.P,Q2,3*
G04 #@! TO.N,Net-(Q2-Pad3)*
X68072000Y-79502000D03*
D10*
G04 #@! TO.P,Q2,1*
G04 #@! TO.N,/LED*
X65532000Y-79502000D03*
G04 #@! TD*
D16*
G04 #@! TO.P,R1,2*
G04 #@! TO.N,+3V3*
X52578000Y-79502000D03*
D17*
G04 #@! TO.P,R1,1*
G04 #@! TO.N,/LED*
X62738000Y-79502000D03*
G04 #@! TD*
G04 #@! TO.P,R2,1*
G04 #@! TO.N,/Buzzer*
X57150000Y-107188000D03*
D16*
G04 #@! TO.P,R2,2*
G04 #@! TO.N,Net-(Q1-Pad2)*
X67310000Y-107188000D03*
G04 #@! TD*
D17*
G04 #@! TO.P,R3,1*
G04 #@! TO.N,Net-(BZ1-Pad2)*
X71882000Y-114300000D03*
D16*
G04 #@! TO.P,R3,2*
G04 #@! TO.N,+3V3*
X71882000Y-104140000D03*
G04 #@! TD*
G04 #@! TO.P,R4,2*
G04 #@! TO.N,Net-(Q2-Pad3)*
X70866000Y-83312000D03*
D17*
G04 #@! TO.P,R4,1*
G04 #@! TO.N,+5V*
X60706000Y-83312000D03*
G04 #@! TD*
G04 #@! TO.P,R5,1*
G04 #@! TO.N,Net-(Q2-Pad3)*
X70866000Y-79502000D03*
D16*
G04 #@! TO.P,R5,2*
G04 #@! TO.N,Net-(D1-Pad4)*
X81026000Y-79502000D03*
G04 #@! TD*
D18*
G04 #@! TO.P,D1,1*
G04 #@! TO.N,Net-(D1-Pad1)*
X90932000Y-81026000D03*
D19*
G04 #@! TO.P,D1,2*
G04 #@! TO.N,GND*
X89662000Y-81026000D03*
G04 #@! TO.P,D1,3*
G04 #@! TO.N,+5V*
X88392000Y-81026000D03*
G04 #@! TO.P,D1,4*
G04 #@! TO.N,Net-(D1-Pad4)*
X87122000Y-81026000D03*
G04 #@! TD*
D20*
G04 #@! TO.N,Net-(D1-Pad4)*
X81026000Y-79502000D02*
X81026000Y-82550000D01*
X81534000Y-83058000D02*
X83566000Y-83058000D01*
X81026000Y-82550000D02*
X81534000Y-83058000D01*
X85090000Y-83058000D02*
X87122000Y-81026000D01*
X83566000Y-83058000D02*
X85090000Y-83058000D01*
G04 #@! TO.N,/CS*
X54102000Y-94488000D02*
X89662000Y-94488000D01*
G04 #@! TO.N,/SCK*
X54102000Y-97028000D02*
X89662000Y-97028000D01*
G04 #@! TO.N,/MOSI*
X54102000Y-99568000D02*
X89662000Y-99568000D01*
G04 #@! TO.N,/MISO*
X54102000Y-102108000D02*
X89662000Y-102108000D01*
G04 #@! TO.N,/LED*
X51142910Y-77889090D02*
X52324000Y-76708000D01*
X51142910Y-103720910D02*
X51142910Y-77889090D01*
X52070000Y-104648000D02*
X51142910Y-103720910D01*
X54102000Y-104648000D02*
X52070000Y-104648000D01*
X62738000Y-79502000D02*
X65532000Y-79502000D01*
X62738000Y-76708000D02*
X65532000Y-79502000D01*
X52324000Y-76708000D02*
X62738000Y-76708000D01*
G04 #@! TO.N,/Buzzer*
X54102000Y-107188000D02*
X57150000Y-107188000D01*
G04 #@! TO.N,Net-(BZ1-Pad2)*
X85264000Y-114300000D02*
X85344000Y-114220000D01*
X84916000Y-113792000D02*
X85344000Y-114220000D01*
X76454000Y-113792000D02*
X84916000Y-113792000D01*
X72390000Y-113792000D02*
X71882000Y-114300000D01*
X76454000Y-113792000D02*
X72390000Y-113792000D01*
X67564000Y-112776000D02*
X68072000Y-112776000D01*
X69596000Y-114300000D02*
X71882000Y-114300000D01*
X68072000Y-112776000D02*
X69596000Y-114300000D01*
G04 #@! TO.N,Net-(Q2-Pad3)*
X68072000Y-79502000D02*
X70866000Y-79502000D01*
X70866000Y-83312000D02*
X70866000Y-79502000D01*
G04 #@! TO.N,+3V3*
X54102000Y-89408000D02*
X89662000Y-89408000D01*
X54102000Y-89408000D02*
X52070000Y-91440000D01*
X53715101Y-103467799D02*
X71209799Y-103467799D01*
X71209799Y-103467799D02*
X71882000Y-104140000D01*
X52070000Y-101822698D02*
X53715101Y-103467799D01*
X52070000Y-91440000D02*
X52070000Y-101822698D01*
X54102000Y-89408000D02*
X52070000Y-87376000D01*
X52070000Y-80010000D02*
X52578000Y-79502000D01*
X52070000Y-87376000D02*
X52070000Y-80010000D01*
X66802000Y-80101362D02*
X66802000Y-79502000D01*
X54610000Y-81534000D02*
X65369362Y-81534000D01*
X65369362Y-81534000D02*
X66802000Y-80101362D01*
X52578000Y-79502000D02*
X54610000Y-81534000D01*
X80772000Y-104648000D02*
X85344000Y-109220000D01*
X77216000Y-104648000D02*
X80772000Y-104648000D01*
X72390000Y-104648000D02*
X71882000Y-104140000D01*
X77216000Y-104648000D02*
X72390000Y-104648000D01*
G04 #@! TO.N,+5V*
X54102000Y-86868000D02*
X54102000Y-85598000D01*
X56388000Y-83312000D02*
X60706000Y-83312000D01*
X54102000Y-85598000D02*
X56388000Y-83312000D01*
X60706000Y-83312000D02*
X60706000Y-84836000D01*
X61468000Y-85598000D02*
X78486000Y-85598000D01*
X60706000Y-84836000D02*
X61468000Y-85598000D01*
X88392000Y-82180000D02*
X88392000Y-81026000D01*
X84974000Y-85598000D02*
X88392000Y-82180000D01*
X78486000Y-85598000D02*
X84974000Y-85598000D01*
G04 #@! TO.N,Net-(Q1-Pad2)*
X66294000Y-108204000D02*
X66294000Y-112776000D01*
X67310000Y-107188000D02*
X66294000Y-108204000D01*
G04 #@! TD*
G04 #@! TO.N,GND*
X91808300Y-79588411D02*
X91711180Y-79536498D01*
X91591482Y-79500188D01*
X91467000Y-79487928D01*
X90397000Y-79487928D01*
X90272518Y-79500188D01*
X90152820Y-79536498D01*
X90083810Y-79573385D01*
X89969383Y-79532100D01*
X89789000Y-79657756D01*
X89789000Y-79942800D01*
X89771188Y-80001518D01*
X89758928Y-80126000D01*
X89758928Y-81926000D01*
X89771188Y-82050482D01*
X89789000Y-82109200D01*
X89789000Y-82394244D01*
X89969383Y-82519900D01*
X90083810Y-82478615D01*
X90152820Y-82515502D01*
X90272518Y-82551812D01*
X90397000Y-82564072D01*
X91467000Y-82564072D01*
X91591482Y-82551812D01*
X91711180Y-82515502D01*
X91808300Y-82463589D01*
X91808301Y-120002300D01*
X51447700Y-120002300D01*
X51447700Y-113526000D01*
X63860928Y-113526000D01*
X63873188Y-113650482D01*
X63909498Y-113770180D01*
X63968463Y-113880494D01*
X64047815Y-113977185D01*
X64144506Y-114056537D01*
X64254820Y-114115502D01*
X64374518Y-114151812D01*
X64499000Y-114164072D01*
X64738250Y-114161000D01*
X64897000Y-114002250D01*
X64897000Y-112903000D01*
X64022750Y-112903000D01*
X63864000Y-113061750D01*
X63860928Y-113526000D01*
X51447700Y-113526000D01*
X51447700Y-112026000D01*
X63860928Y-112026000D01*
X63864000Y-112490250D01*
X64022750Y-112649000D01*
X64897000Y-112649000D01*
X64897000Y-112494022D01*
X65134000Y-112494022D01*
X65134000Y-113057979D01*
X65150785Y-113228400D01*
X65151000Y-113229109D01*
X65151000Y-114002250D01*
X65309750Y-114161000D01*
X65549000Y-114164072D01*
X65673482Y-114151812D01*
X65793180Y-114115502D01*
X65857902Y-114080907D01*
X66066601Y-114144215D01*
X66294000Y-114166612D01*
X66521400Y-114144215D01*
X66740060Y-114077885D01*
X66929000Y-113976894D01*
X67117941Y-114077885D01*
X67336601Y-114144215D01*
X67564000Y-114166612D01*
X67791400Y-114144215D01*
X68010060Y-114077885D01*
X68196565Y-113978196D01*
X69030721Y-114812352D01*
X69054578Y-114841422D01*
X69170608Y-114936645D01*
X69302985Y-115007402D01*
X69446622Y-115050974D01*
X69558574Y-115062000D01*
X69558576Y-115062000D01*
X69595999Y-115065686D01*
X69633422Y-115062000D01*
X70665293Y-115062000D01*
X70767363Y-115214759D01*
X70967241Y-115414637D01*
X71202273Y-115571680D01*
X71463426Y-115679853D01*
X71740665Y-115735000D01*
X72023335Y-115735000D01*
X72300574Y-115679853D01*
X72561727Y-115571680D01*
X72796759Y-115414637D01*
X72996637Y-115214759D01*
X73153680Y-114979727D01*
X73261853Y-114718574D01*
X73294589Y-114554000D01*
X74965928Y-114554000D01*
X74965928Y-114642000D01*
X74978188Y-114766482D01*
X75014498Y-114886180D01*
X75073463Y-114996494D01*
X75152815Y-115093185D01*
X75249506Y-115172537D01*
X75359820Y-115231502D01*
X75479518Y-115267812D01*
X75604000Y-115280072D01*
X77304000Y-115280072D01*
X77428482Y-115267812D01*
X77548180Y-115231502D01*
X77658494Y-115172537D01*
X77755185Y-115093185D01*
X77834537Y-114996494D01*
X77893502Y-114886180D01*
X77929812Y-114766482D01*
X77942072Y-114642000D01*
X77942072Y-114554000D01*
X83819875Y-114554000D01*
X83843950Y-114675035D01*
X83961546Y-114958937D01*
X84132269Y-115214442D01*
X84349558Y-115431731D01*
X84605063Y-115602454D01*
X84888965Y-115720050D01*
X85190353Y-115780000D01*
X85497647Y-115780000D01*
X85799035Y-115720050D01*
X86082937Y-115602454D01*
X86338442Y-115431731D01*
X86555731Y-115214442D01*
X86726454Y-114958937D01*
X86844050Y-114675035D01*
X86904000Y-114373647D01*
X86904000Y-114066353D01*
X86844050Y-113764965D01*
X86726454Y-113481063D01*
X86555731Y-113225558D01*
X86338442Y-113008269D01*
X86082937Y-112837546D01*
X85799035Y-112719950D01*
X85497647Y-112660000D01*
X85190353Y-112660000D01*
X84888965Y-112719950D01*
X84605063Y-112837546D01*
X84349558Y-113008269D01*
X84327827Y-113030000D01*
X77942072Y-113030000D01*
X77942072Y-112942000D01*
X77929812Y-112817518D01*
X77893502Y-112697820D01*
X77834537Y-112587506D01*
X77755185Y-112490815D01*
X77658494Y-112411463D01*
X77548180Y-112352498D01*
X77428482Y-112316188D01*
X77304000Y-112303928D01*
X75604000Y-112303928D01*
X75479518Y-112316188D01*
X75359820Y-112352498D01*
X75249506Y-112411463D01*
X75152815Y-112490815D01*
X75073463Y-112587506D01*
X75014498Y-112697820D01*
X74978188Y-112817518D01*
X74965928Y-112942000D01*
X74965928Y-113030000D01*
X72564241Y-113030000D01*
X72561727Y-113028320D01*
X72300574Y-112920147D01*
X72023335Y-112865000D01*
X71740665Y-112865000D01*
X71463426Y-112920147D01*
X71202273Y-113028320D01*
X70967241Y-113185363D01*
X70767363Y-113385241D01*
X70665293Y-113538000D01*
X69911631Y-113538000D01*
X68708306Y-112334676D01*
X68707215Y-112323600D01*
X68640885Y-112104940D01*
X68533171Y-111903421D01*
X68388212Y-111726788D01*
X68211578Y-111581829D01*
X68010059Y-111474115D01*
X67791399Y-111407785D01*
X67564000Y-111385388D01*
X67336600Y-111407785D01*
X67117940Y-111474115D01*
X67056000Y-111507223D01*
X67056000Y-108600589D01*
X67168665Y-108623000D01*
X67451335Y-108623000D01*
X67728574Y-108567853D01*
X67989727Y-108459680D01*
X68224759Y-108302637D01*
X68424637Y-108102759D01*
X68581680Y-107867727D01*
X68689853Y-107606574D01*
X68745000Y-107329335D01*
X68745000Y-107046665D01*
X68689853Y-106769426D01*
X68581680Y-106508273D01*
X68424637Y-106273241D01*
X68224759Y-106073363D01*
X67989727Y-105916320D01*
X67728574Y-105808147D01*
X67451335Y-105753000D01*
X67168665Y-105753000D01*
X66891426Y-105808147D01*
X66630273Y-105916320D01*
X66395241Y-106073363D01*
X66195363Y-106273241D01*
X66038320Y-106508273D01*
X65930147Y-106769426D01*
X65875000Y-107046665D01*
X65875000Y-107329335D01*
X65910843Y-107509527D01*
X65781654Y-107638716D01*
X65752578Y-107662578D01*
X65717355Y-107705498D01*
X65657355Y-107778608D01*
X65632748Y-107824645D01*
X65586598Y-107910986D01*
X65543026Y-108054623D01*
X65535146Y-108134632D01*
X65528314Y-108204000D01*
X65532000Y-108241423D01*
X65532001Y-111388146D01*
X65309750Y-111391000D01*
X65151000Y-111549750D01*
X65151000Y-112322892D01*
X65150785Y-112323601D01*
X65134000Y-112494022D01*
X64897000Y-112494022D01*
X64897000Y-111549750D01*
X64738250Y-111391000D01*
X64499000Y-111387928D01*
X64374518Y-111400188D01*
X64254820Y-111436498D01*
X64144506Y-111495463D01*
X64047815Y-111574815D01*
X63968463Y-111671506D01*
X63909498Y-111781820D01*
X63873188Y-111901518D01*
X63860928Y-112026000D01*
X51447700Y-112026000D01*
X51447700Y-105103331D01*
X51504721Y-105160351D01*
X51528578Y-105189422D01*
X51644608Y-105284645D01*
X51776985Y-105355402D01*
X51920622Y-105398974D01*
X52032574Y-105410000D01*
X52032576Y-105410000D01*
X52069999Y-105413686D01*
X52107422Y-105410000D01*
X52825158Y-105410000D01*
X52948525Y-105594632D01*
X53155368Y-105801475D01*
X53329760Y-105918000D01*
X53155368Y-106034525D01*
X52948525Y-106241368D01*
X52786010Y-106484589D01*
X52674068Y-106754842D01*
X52617000Y-107041740D01*
X52617000Y-107334260D01*
X52674068Y-107621158D01*
X52786010Y-107891411D01*
X52948525Y-108134632D01*
X53155368Y-108341475D01*
X53398589Y-108503990D01*
X53668842Y-108615932D01*
X53955740Y-108673000D01*
X54248260Y-108673000D01*
X54535158Y-108615932D01*
X54805411Y-108503990D01*
X55048632Y-108341475D01*
X55255475Y-108134632D01*
X55378842Y-107950000D01*
X55933293Y-107950000D01*
X56035363Y-108102759D01*
X56235241Y-108302637D01*
X56470273Y-108459680D01*
X56731426Y-108567853D01*
X57008665Y-108623000D01*
X57291335Y-108623000D01*
X57568574Y-108567853D01*
X57829727Y-108459680D01*
X58064759Y-108302637D01*
X58264637Y-108102759D01*
X58421680Y-107867727D01*
X58529853Y-107606574D01*
X58585000Y-107329335D01*
X58585000Y-107046665D01*
X58529853Y-106769426D01*
X58421680Y-106508273D01*
X58264637Y-106273241D01*
X58064759Y-106073363D01*
X57829727Y-105916320D01*
X57568574Y-105808147D01*
X57291335Y-105753000D01*
X57008665Y-105753000D01*
X56731426Y-105808147D01*
X56470273Y-105916320D01*
X56235241Y-106073363D01*
X56035363Y-106273241D01*
X55933293Y-106426000D01*
X55378842Y-106426000D01*
X55255475Y-106241368D01*
X55048632Y-106034525D01*
X54874240Y-105918000D01*
X55048632Y-105801475D01*
X55255475Y-105594632D01*
X55417990Y-105351411D01*
X55529932Y-105081158D01*
X55587000Y-104794260D01*
X55587000Y-104501740D01*
X55532907Y-104229799D01*
X70447000Y-104229799D01*
X70447000Y-104281335D01*
X70502147Y-104558574D01*
X70610320Y-104819727D01*
X70767363Y-105054759D01*
X70967241Y-105254637D01*
X71202273Y-105411680D01*
X71463426Y-105519853D01*
X71740665Y-105575000D01*
X72023335Y-105575000D01*
X72300574Y-105519853D01*
X72561727Y-105411680D01*
X72564241Y-105410000D01*
X75727928Y-105410000D01*
X75727928Y-105498000D01*
X75740188Y-105622482D01*
X75776498Y-105742180D01*
X75835463Y-105852494D01*
X75914815Y-105949185D01*
X76011506Y-106028537D01*
X76121820Y-106087502D01*
X76241518Y-106123812D01*
X76366000Y-106136072D01*
X78066000Y-106136072D01*
X78190482Y-106123812D01*
X78310180Y-106087502D01*
X78420494Y-106028537D01*
X78517185Y-105949185D01*
X78596537Y-105852494D01*
X78655502Y-105742180D01*
X78691812Y-105622482D01*
X78704072Y-105498000D01*
X78704072Y-105410000D01*
X80456370Y-105410000D01*
X83780928Y-108734559D01*
X83780928Y-110145000D01*
X83793188Y-110269482D01*
X83829498Y-110389180D01*
X83888463Y-110499494D01*
X83967815Y-110596185D01*
X84064506Y-110675537D01*
X84174820Y-110734502D01*
X84294518Y-110770812D01*
X84419000Y-110783072D01*
X86269000Y-110783072D01*
X86393482Y-110770812D01*
X86513180Y-110734502D01*
X86623494Y-110675537D01*
X86720185Y-110596185D01*
X86799537Y-110499494D01*
X86858502Y-110389180D01*
X86894812Y-110269482D01*
X86907072Y-110145000D01*
X86907072Y-108295000D01*
X86894812Y-108170518D01*
X86858502Y-108050820D01*
X86799537Y-107940506D01*
X86720185Y-107843815D01*
X86623494Y-107764463D01*
X86513180Y-107705498D01*
X86393482Y-107669188D01*
X86269000Y-107656928D01*
X84858559Y-107656928D01*
X81337284Y-104135654D01*
X81313422Y-104106578D01*
X81197392Y-104011355D01*
X81065015Y-103940598D01*
X80921378Y-103897026D01*
X80809426Y-103886000D01*
X80809423Y-103886000D01*
X80772000Y-103882314D01*
X80734577Y-103886000D01*
X78704072Y-103886000D01*
X78704072Y-103798000D01*
X78691812Y-103673518D01*
X78655502Y-103553820D01*
X78596537Y-103443506D01*
X78517185Y-103346815D01*
X78420494Y-103267463D01*
X78310180Y-103208498D01*
X78190482Y-103172188D01*
X78066000Y-103159928D01*
X76366000Y-103159928D01*
X76241518Y-103172188D01*
X76121820Y-103208498D01*
X76011506Y-103267463D01*
X75914815Y-103346815D01*
X75835463Y-103443506D01*
X75776498Y-103553820D01*
X75740188Y-103673518D01*
X75727928Y-103798000D01*
X75727928Y-103886000D01*
X73294589Y-103886000D01*
X73261853Y-103721426D01*
X73153680Y-103460273D01*
X72996637Y-103225241D01*
X72796759Y-103025363D01*
X72564241Y-102870000D01*
X88385158Y-102870000D01*
X88508525Y-103054632D01*
X88715368Y-103261475D01*
X88958589Y-103423990D01*
X89228842Y-103535932D01*
X89515740Y-103593000D01*
X89808260Y-103593000D01*
X90095158Y-103535932D01*
X90365411Y-103423990D01*
X90608632Y-103261475D01*
X90815475Y-103054632D01*
X90977990Y-102811411D01*
X91089932Y-102541158D01*
X91147000Y-102254260D01*
X91147000Y-101961740D01*
X91089932Y-101674842D01*
X90977990Y-101404589D01*
X90815475Y-101161368D01*
X90608632Y-100954525D01*
X90434240Y-100838000D01*
X90608632Y-100721475D01*
X90815475Y-100514632D01*
X90977990Y-100271411D01*
X91089932Y-100001158D01*
X91147000Y-99714260D01*
X91147000Y-99421740D01*
X91089932Y-99134842D01*
X90977990Y-98864589D01*
X90815475Y-98621368D01*
X90608632Y-98414525D01*
X90434240Y-98298000D01*
X90608632Y-98181475D01*
X90815475Y-97974632D01*
X90977990Y-97731411D01*
X91089932Y-97461158D01*
X91147000Y-97174260D01*
X91147000Y-96881740D01*
X91089932Y-96594842D01*
X90977990Y-96324589D01*
X90815475Y-96081368D01*
X90608632Y-95874525D01*
X90434240Y-95758000D01*
X90608632Y-95641475D01*
X90815475Y-95434632D01*
X90977990Y-95191411D01*
X91089932Y-94921158D01*
X91147000Y-94634260D01*
X91147000Y-94341740D01*
X91089932Y-94054842D01*
X90977990Y-93784589D01*
X90815475Y-93541368D01*
X90608632Y-93334525D01*
X90426466Y-93212805D01*
X90543355Y-93143178D01*
X90759588Y-92948269D01*
X90933641Y-92714920D01*
X91058825Y-92452099D01*
X91103476Y-92304890D01*
X90982155Y-92075000D01*
X89789000Y-92075000D01*
X89789000Y-92095000D01*
X89535000Y-92095000D01*
X89535000Y-92075000D01*
X88341845Y-92075000D01*
X88220524Y-92304890D01*
X88265175Y-92452099D01*
X88390359Y-92714920D01*
X88564412Y-92948269D01*
X88780645Y-93143178D01*
X88897534Y-93212805D01*
X88715368Y-93334525D01*
X88508525Y-93541368D01*
X88385158Y-93726000D01*
X55378842Y-93726000D01*
X55255475Y-93541368D01*
X55048632Y-93334525D01*
X54866466Y-93212805D01*
X54983355Y-93143178D01*
X55199588Y-92948269D01*
X55373641Y-92714920D01*
X55498825Y-92452099D01*
X55543476Y-92304890D01*
X55422155Y-92075000D01*
X54229000Y-92075000D01*
X54229000Y-92095000D01*
X53975000Y-92095000D01*
X53975000Y-92075000D01*
X53955000Y-92075000D01*
X53955000Y-91821000D01*
X53975000Y-91821000D01*
X53975000Y-91801000D01*
X54229000Y-91801000D01*
X54229000Y-91821000D01*
X55422155Y-91821000D01*
X55543476Y-91591110D01*
X55498825Y-91443901D01*
X55373641Y-91181080D01*
X55199588Y-90947731D01*
X54983355Y-90752822D01*
X54866466Y-90683195D01*
X55048632Y-90561475D01*
X55255475Y-90354632D01*
X55378842Y-90170000D01*
X88173928Y-90170000D01*
X88173928Y-90258000D01*
X88186188Y-90382482D01*
X88222498Y-90502180D01*
X88281463Y-90612494D01*
X88360815Y-90709185D01*
X88457506Y-90788537D01*
X88567820Y-90847502D01*
X88648466Y-90871966D01*
X88564412Y-90947731D01*
X88390359Y-91181080D01*
X88265175Y-91443901D01*
X88220524Y-91591110D01*
X88341845Y-91821000D01*
X89535000Y-91821000D01*
X89535000Y-91801000D01*
X89789000Y-91801000D01*
X89789000Y-91821000D01*
X90982155Y-91821000D01*
X91103476Y-91591110D01*
X91058825Y-91443901D01*
X90933641Y-91181080D01*
X90759588Y-90947731D01*
X90675534Y-90871966D01*
X90756180Y-90847502D01*
X90866494Y-90788537D01*
X90963185Y-90709185D01*
X91042537Y-90612494D01*
X91101502Y-90502180D01*
X91137812Y-90382482D01*
X91150072Y-90258000D01*
X91150072Y-88558000D01*
X91137812Y-88433518D01*
X91101502Y-88313820D01*
X91042537Y-88203506D01*
X90963185Y-88106815D01*
X90866494Y-88027463D01*
X90756180Y-87968498D01*
X90636482Y-87932188D01*
X90512000Y-87919928D01*
X88812000Y-87919928D01*
X88687518Y-87932188D01*
X88567820Y-87968498D01*
X88457506Y-88027463D01*
X88360815Y-88106815D01*
X88281463Y-88203506D01*
X88222498Y-88313820D01*
X88186188Y-88433518D01*
X88173928Y-88558000D01*
X88173928Y-88646000D01*
X55378842Y-88646000D01*
X55255475Y-88461368D01*
X55123620Y-88329513D01*
X55196180Y-88307502D01*
X55306494Y-88248537D01*
X55403185Y-88169185D01*
X55482537Y-88072494D01*
X55541502Y-87962180D01*
X55577812Y-87842482D01*
X55590072Y-87718000D01*
X55590072Y-86018000D01*
X55577812Y-85893518D01*
X55541502Y-85773820D01*
X55482537Y-85663506D01*
X55403185Y-85566815D01*
X55306494Y-85487463D01*
X55295854Y-85481776D01*
X56703631Y-84074000D01*
X59489293Y-84074000D01*
X59591363Y-84226759D01*
X59791241Y-84426637D01*
X59944001Y-84528708D01*
X59944001Y-84798567D01*
X59940314Y-84836000D01*
X59955027Y-84985378D01*
X59998599Y-85129015D01*
X60069355Y-85261392D01*
X60140721Y-85348351D01*
X60164579Y-85377422D01*
X60193649Y-85401279D01*
X60902720Y-86110351D01*
X60926578Y-86139422D01*
X60955648Y-86163279D01*
X61042607Y-86234645D01*
X61113364Y-86272465D01*
X61174985Y-86305402D01*
X61318622Y-86348974D01*
X61430574Y-86360000D01*
X61430577Y-86360000D01*
X61468000Y-86363686D01*
X61505423Y-86360000D01*
X76997928Y-86360000D01*
X76997928Y-86448000D01*
X77010188Y-86572482D01*
X77046498Y-86692180D01*
X77105463Y-86802494D01*
X77184815Y-86899185D01*
X77281506Y-86978537D01*
X77391820Y-87037502D01*
X77511518Y-87073812D01*
X77636000Y-87086072D01*
X79336000Y-87086072D01*
X79460482Y-87073812D01*
X79580180Y-87037502D01*
X79690494Y-86978537D01*
X79787185Y-86899185D01*
X79866537Y-86802494D01*
X79925502Y-86692180D01*
X79961812Y-86572482D01*
X79974072Y-86448000D01*
X79974072Y-86360000D01*
X84936577Y-86360000D01*
X84974000Y-86363686D01*
X85011423Y-86360000D01*
X85011426Y-86360000D01*
X85123378Y-86348974D01*
X85267015Y-86305402D01*
X85399392Y-86234645D01*
X85515422Y-86139422D01*
X85539284Y-86110346D01*
X88904353Y-82745278D01*
X88933422Y-82721422D01*
X88971228Y-82675355D01*
X89028645Y-82605393D01*
X89076692Y-82515502D01*
X89099402Y-82473015D01*
X89112191Y-82430854D01*
X89117579Y-82434377D01*
X89354617Y-82519900D01*
X89535000Y-82394244D01*
X89535000Y-81653560D01*
X89545071Y-81620360D01*
X89562000Y-81448477D01*
X89562000Y-80603524D01*
X89545071Y-80431641D01*
X89535000Y-80398441D01*
X89535000Y-79657756D01*
X89354617Y-79532100D01*
X89117579Y-79617623D01*
X89029596Y-79675154D01*
X88841906Y-79574831D01*
X88621360Y-79507929D01*
X88392000Y-79485339D01*
X88162641Y-79507929D01*
X87942095Y-79574831D01*
X87757001Y-79673766D01*
X87571906Y-79574831D01*
X87351360Y-79507929D01*
X87122000Y-79485339D01*
X86892641Y-79507929D01*
X86672095Y-79574831D01*
X86468839Y-79683474D01*
X86290683Y-79829682D01*
X86144475Y-80007838D01*
X86035831Y-80211094D01*
X85968929Y-80431640D01*
X85952000Y-80603523D01*
X85952000Y-81118369D01*
X85029020Y-82041349D01*
X85005502Y-81963820D01*
X84946537Y-81853506D01*
X84867185Y-81756815D01*
X84770494Y-81677463D01*
X84660180Y-81618498D01*
X84540482Y-81582188D01*
X84416000Y-81569928D01*
X82716000Y-81569928D01*
X82591518Y-81582188D01*
X82471820Y-81618498D01*
X82361506Y-81677463D01*
X82264815Y-81756815D01*
X82185463Y-81853506D01*
X82126498Y-81963820D01*
X82090188Y-82083518D01*
X82077928Y-82208000D01*
X82077928Y-82296000D01*
X81849630Y-82296000D01*
X81788000Y-82234370D01*
X81788000Y-80718707D01*
X81940759Y-80616637D01*
X82140637Y-80416759D01*
X82297680Y-80181727D01*
X82405853Y-79920574D01*
X82461000Y-79643335D01*
X82461000Y-79360665D01*
X82405853Y-79083426D01*
X82297680Y-78822273D01*
X82140637Y-78587241D01*
X81940759Y-78387363D01*
X81705727Y-78230320D01*
X81444574Y-78122147D01*
X81167335Y-78067000D01*
X80884665Y-78067000D01*
X80607426Y-78122147D01*
X80346273Y-78230320D01*
X80111241Y-78387363D01*
X79911363Y-78587241D01*
X79754320Y-78822273D01*
X79646147Y-79083426D01*
X79591000Y-79360665D01*
X79591000Y-79643335D01*
X79646147Y-79920574D01*
X79754320Y-80181727D01*
X79911363Y-80416759D01*
X80111241Y-80616637D01*
X80264000Y-80718707D01*
X80264001Y-82512567D01*
X80260314Y-82550000D01*
X80275027Y-82699378D01*
X80318599Y-82843015D01*
X80389355Y-82975392D01*
X80457150Y-83058000D01*
X80484579Y-83091422D01*
X80513649Y-83115279D01*
X80968716Y-83570346D01*
X80992578Y-83599422D01*
X81108608Y-83694645D01*
X81240985Y-83765402D01*
X81384622Y-83808974D01*
X81496574Y-83820000D01*
X81496583Y-83820000D01*
X81533999Y-83823685D01*
X81571415Y-83820000D01*
X82077928Y-83820000D01*
X82077928Y-83908000D01*
X82090188Y-84032482D01*
X82126498Y-84152180D01*
X82185463Y-84262494D01*
X82264815Y-84359185D01*
X82361506Y-84438537D01*
X82471820Y-84497502D01*
X82591518Y-84533812D01*
X82716000Y-84546072D01*
X84416000Y-84546072D01*
X84540482Y-84533812D01*
X84660180Y-84497502D01*
X84770494Y-84438537D01*
X84867185Y-84359185D01*
X84946537Y-84262494D01*
X85005502Y-84152180D01*
X85041812Y-84032482D01*
X85054072Y-83908000D01*
X85054072Y-83820147D01*
X85090000Y-83823686D01*
X85127423Y-83820000D01*
X85127426Y-83820000D01*
X85239378Y-83808974D01*
X85383015Y-83765402D01*
X85515392Y-83694645D01*
X85631422Y-83599422D01*
X85655284Y-83570346D01*
X86730687Y-82494943D01*
X86892640Y-82544071D01*
X86945129Y-82549241D01*
X84658370Y-84836000D01*
X79974072Y-84836000D01*
X79974072Y-84748000D01*
X79961812Y-84623518D01*
X79925502Y-84503820D01*
X79866537Y-84393506D01*
X79787185Y-84296815D01*
X79690494Y-84217463D01*
X79580180Y-84158498D01*
X79460482Y-84122188D01*
X79336000Y-84109928D01*
X77636000Y-84109928D01*
X77511518Y-84122188D01*
X77391820Y-84158498D01*
X77281506Y-84217463D01*
X77184815Y-84296815D01*
X77105463Y-84393506D01*
X77046498Y-84503820D01*
X77010188Y-84623518D01*
X76997928Y-84748000D01*
X76997928Y-84836000D01*
X61783631Y-84836000D01*
X61472998Y-84525368D01*
X61620759Y-84426637D01*
X61820637Y-84226759D01*
X61977680Y-83991727D01*
X62085853Y-83730574D01*
X62141000Y-83453335D01*
X62141000Y-83170665D01*
X62085853Y-82893426D01*
X61977680Y-82632273D01*
X61820637Y-82397241D01*
X61719396Y-82296000D01*
X65331939Y-82296000D01*
X65369362Y-82299686D01*
X65406785Y-82296000D01*
X65406788Y-82296000D01*
X65518740Y-82284974D01*
X65662377Y-82241402D01*
X65794754Y-82170645D01*
X65910784Y-82075422D01*
X65934646Y-82046346D01*
X67146213Y-80834780D01*
X67248060Y-80803885D01*
X67437001Y-80702894D01*
X67625941Y-80803885D01*
X67844601Y-80870215D01*
X68072000Y-80892612D01*
X68299400Y-80870215D01*
X68518060Y-80803885D01*
X68719579Y-80696171D01*
X68896212Y-80551212D01*
X69041171Y-80374579D01*
X69100276Y-80264000D01*
X69649293Y-80264000D01*
X69751363Y-80416759D01*
X69951241Y-80616637D01*
X70104001Y-80718708D01*
X70104000Y-82095293D01*
X69951241Y-82197363D01*
X69751363Y-82397241D01*
X69594320Y-82632273D01*
X69486147Y-82893426D01*
X69431000Y-83170665D01*
X69431000Y-83453335D01*
X69486147Y-83730574D01*
X69594320Y-83991727D01*
X69751363Y-84226759D01*
X69951241Y-84426637D01*
X70186273Y-84583680D01*
X70447426Y-84691853D01*
X70724665Y-84747000D01*
X71007335Y-84747000D01*
X71284574Y-84691853D01*
X71545727Y-84583680D01*
X71780759Y-84426637D01*
X71980637Y-84226759D01*
X72137680Y-83991727D01*
X72245853Y-83730574D01*
X72301000Y-83453335D01*
X72301000Y-83170665D01*
X72245853Y-82893426D01*
X72137680Y-82632273D01*
X71980637Y-82397241D01*
X71780759Y-82197363D01*
X71628000Y-82095293D01*
X71628000Y-80718707D01*
X71780759Y-80616637D01*
X71980637Y-80416759D01*
X72137680Y-80181727D01*
X72245853Y-79920574D01*
X72301000Y-79643335D01*
X72301000Y-79360665D01*
X72245853Y-79083426D01*
X72137680Y-78822273D01*
X71980637Y-78587241D01*
X71780759Y-78387363D01*
X71545727Y-78230320D01*
X71284574Y-78122147D01*
X71007335Y-78067000D01*
X70724665Y-78067000D01*
X70447426Y-78122147D01*
X70186273Y-78230320D01*
X69951241Y-78387363D01*
X69751363Y-78587241D01*
X69649293Y-78740000D01*
X69100277Y-78740000D01*
X69041171Y-78629421D01*
X68896212Y-78452788D01*
X68719578Y-78307829D01*
X68518059Y-78200115D01*
X68299399Y-78133785D01*
X68072000Y-78111388D01*
X67844600Y-78133785D01*
X67625940Y-78200115D01*
X67437000Y-78301106D01*
X67248059Y-78200115D01*
X67029399Y-78133785D01*
X66802000Y-78111388D01*
X66574600Y-78133785D01*
X66365902Y-78197093D01*
X66301180Y-78162498D01*
X66181482Y-78126188D01*
X66057000Y-78113928D01*
X65221558Y-78113928D01*
X63955330Y-76847700D01*
X91808300Y-76847700D01*
X91808300Y-79588411D01*
G04 #@! TA.AperFunction,Conductor*
D21*
G36*
X91808300Y-79588411D02*
G01*
X91711180Y-79536498D01*
X91591482Y-79500188D01*
X91467000Y-79487928D01*
X90397000Y-79487928D01*
X90272518Y-79500188D01*
X90152820Y-79536498D01*
X90083810Y-79573385D01*
X89969383Y-79532100D01*
X89789000Y-79657756D01*
X89789000Y-79942800D01*
X89771188Y-80001518D01*
X89758928Y-80126000D01*
X89758928Y-81926000D01*
X89771188Y-82050482D01*
X89789000Y-82109200D01*
X89789000Y-82394244D01*
X89969383Y-82519900D01*
X90083810Y-82478615D01*
X90152820Y-82515502D01*
X90272518Y-82551812D01*
X90397000Y-82564072D01*
X91467000Y-82564072D01*
X91591482Y-82551812D01*
X91711180Y-82515502D01*
X91808300Y-82463589D01*
X91808301Y-120002300D01*
X51447700Y-120002300D01*
X51447700Y-113526000D01*
X63860928Y-113526000D01*
X63873188Y-113650482D01*
X63909498Y-113770180D01*
X63968463Y-113880494D01*
X64047815Y-113977185D01*
X64144506Y-114056537D01*
X64254820Y-114115502D01*
X64374518Y-114151812D01*
X64499000Y-114164072D01*
X64738250Y-114161000D01*
X64897000Y-114002250D01*
X64897000Y-112903000D01*
X64022750Y-112903000D01*
X63864000Y-113061750D01*
X63860928Y-113526000D01*
X51447700Y-113526000D01*
X51447700Y-112026000D01*
X63860928Y-112026000D01*
X63864000Y-112490250D01*
X64022750Y-112649000D01*
X64897000Y-112649000D01*
X64897000Y-112494022D01*
X65134000Y-112494022D01*
X65134000Y-113057979D01*
X65150785Y-113228400D01*
X65151000Y-113229109D01*
X65151000Y-114002250D01*
X65309750Y-114161000D01*
X65549000Y-114164072D01*
X65673482Y-114151812D01*
X65793180Y-114115502D01*
X65857902Y-114080907D01*
X66066601Y-114144215D01*
X66294000Y-114166612D01*
X66521400Y-114144215D01*
X66740060Y-114077885D01*
X66929000Y-113976894D01*
X67117941Y-114077885D01*
X67336601Y-114144215D01*
X67564000Y-114166612D01*
X67791400Y-114144215D01*
X68010060Y-114077885D01*
X68196565Y-113978196D01*
X69030721Y-114812352D01*
X69054578Y-114841422D01*
X69170608Y-114936645D01*
X69302985Y-115007402D01*
X69446622Y-115050974D01*
X69558574Y-115062000D01*
X69558576Y-115062000D01*
X69595999Y-115065686D01*
X69633422Y-115062000D01*
X70665293Y-115062000D01*
X70767363Y-115214759D01*
X70967241Y-115414637D01*
X71202273Y-115571680D01*
X71463426Y-115679853D01*
X71740665Y-115735000D01*
X72023335Y-115735000D01*
X72300574Y-115679853D01*
X72561727Y-115571680D01*
X72796759Y-115414637D01*
X72996637Y-115214759D01*
X73153680Y-114979727D01*
X73261853Y-114718574D01*
X73294589Y-114554000D01*
X74965928Y-114554000D01*
X74965928Y-114642000D01*
X74978188Y-114766482D01*
X75014498Y-114886180D01*
X75073463Y-114996494D01*
X75152815Y-115093185D01*
X75249506Y-115172537D01*
X75359820Y-115231502D01*
X75479518Y-115267812D01*
X75604000Y-115280072D01*
X77304000Y-115280072D01*
X77428482Y-115267812D01*
X77548180Y-115231502D01*
X77658494Y-115172537D01*
X77755185Y-115093185D01*
X77834537Y-114996494D01*
X77893502Y-114886180D01*
X77929812Y-114766482D01*
X77942072Y-114642000D01*
X77942072Y-114554000D01*
X83819875Y-114554000D01*
X83843950Y-114675035D01*
X83961546Y-114958937D01*
X84132269Y-115214442D01*
X84349558Y-115431731D01*
X84605063Y-115602454D01*
X84888965Y-115720050D01*
X85190353Y-115780000D01*
X85497647Y-115780000D01*
X85799035Y-115720050D01*
X86082937Y-115602454D01*
X86338442Y-115431731D01*
X86555731Y-115214442D01*
X86726454Y-114958937D01*
X86844050Y-114675035D01*
X86904000Y-114373647D01*
X86904000Y-114066353D01*
X86844050Y-113764965D01*
X86726454Y-113481063D01*
X86555731Y-113225558D01*
X86338442Y-113008269D01*
X86082937Y-112837546D01*
X85799035Y-112719950D01*
X85497647Y-112660000D01*
X85190353Y-112660000D01*
X84888965Y-112719950D01*
X84605063Y-112837546D01*
X84349558Y-113008269D01*
X84327827Y-113030000D01*
X77942072Y-113030000D01*
X77942072Y-112942000D01*
X77929812Y-112817518D01*
X77893502Y-112697820D01*
X77834537Y-112587506D01*
X77755185Y-112490815D01*
X77658494Y-112411463D01*
X77548180Y-112352498D01*
X77428482Y-112316188D01*
X77304000Y-112303928D01*
X75604000Y-112303928D01*
X75479518Y-112316188D01*
X75359820Y-112352498D01*
X75249506Y-112411463D01*
X75152815Y-112490815D01*
X75073463Y-112587506D01*
X75014498Y-112697820D01*
X74978188Y-112817518D01*
X74965928Y-112942000D01*
X74965928Y-113030000D01*
X72564241Y-113030000D01*
X72561727Y-113028320D01*
X72300574Y-112920147D01*
X72023335Y-112865000D01*
X71740665Y-112865000D01*
X71463426Y-112920147D01*
X71202273Y-113028320D01*
X70967241Y-113185363D01*
X70767363Y-113385241D01*
X70665293Y-113538000D01*
X69911631Y-113538000D01*
X68708306Y-112334676D01*
X68707215Y-112323600D01*
X68640885Y-112104940D01*
X68533171Y-111903421D01*
X68388212Y-111726788D01*
X68211578Y-111581829D01*
X68010059Y-111474115D01*
X67791399Y-111407785D01*
X67564000Y-111385388D01*
X67336600Y-111407785D01*
X67117940Y-111474115D01*
X67056000Y-111507223D01*
X67056000Y-108600589D01*
X67168665Y-108623000D01*
X67451335Y-108623000D01*
X67728574Y-108567853D01*
X67989727Y-108459680D01*
X68224759Y-108302637D01*
X68424637Y-108102759D01*
X68581680Y-107867727D01*
X68689853Y-107606574D01*
X68745000Y-107329335D01*
X68745000Y-107046665D01*
X68689853Y-106769426D01*
X68581680Y-106508273D01*
X68424637Y-106273241D01*
X68224759Y-106073363D01*
X67989727Y-105916320D01*
X67728574Y-105808147D01*
X67451335Y-105753000D01*
X67168665Y-105753000D01*
X66891426Y-105808147D01*
X66630273Y-105916320D01*
X66395241Y-106073363D01*
X66195363Y-106273241D01*
X66038320Y-106508273D01*
X65930147Y-106769426D01*
X65875000Y-107046665D01*
X65875000Y-107329335D01*
X65910843Y-107509527D01*
X65781654Y-107638716D01*
X65752578Y-107662578D01*
X65717355Y-107705498D01*
X65657355Y-107778608D01*
X65632748Y-107824645D01*
X65586598Y-107910986D01*
X65543026Y-108054623D01*
X65535146Y-108134632D01*
X65528314Y-108204000D01*
X65532000Y-108241423D01*
X65532001Y-111388146D01*
X65309750Y-111391000D01*
X65151000Y-111549750D01*
X65151000Y-112322892D01*
X65150785Y-112323601D01*
X65134000Y-112494022D01*
X64897000Y-112494022D01*
X64897000Y-111549750D01*
X64738250Y-111391000D01*
X64499000Y-111387928D01*
X64374518Y-111400188D01*
X64254820Y-111436498D01*
X64144506Y-111495463D01*
X64047815Y-111574815D01*
X63968463Y-111671506D01*
X63909498Y-111781820D01*
X63873188Y-111901518D01*
X63860928Y-112026000D01*
X51447700Y-112026000D01*
X51447700Y-105103331D01*
X51504721Y-105160351D01*
X51528578Y-105189422D01*
X51644608Y-105284645D01*
X51776985Y-105355402D01*
X51920622Y-105398974D01*
X52032574Y-105410000D01*
X52032576Y-105410000D01*
X52069999Y-105413686D01*
X52107422Y-105410000D01*
X52825158Y-105410000D01*
X52948525Y-105594632D01*
X53155368Y-105801475D01*
X53329760Y-105918000D01*
X53155368Y-106034525D01*
X52948525Y-106241368D01*
X52786010Y-106484589D01*
X52674068Y-106754842D01*
X52617000Y-107041740D01*
X52617000Y-107334260D01*
X52674068Y-107621158D01*
X52786010Y-107891411D01*
X52948525Y-108134632D01*
X53155368Y-108341475D01*
X53398589Y-108503990D01*
X53668842Y-108615932D01*
X53955740Y-108673000D01*
X54248260Y-108673000D01*
X54535158Y-108615932D01*
X54805411Y-108503990D01*
X55048632Y-108341475D01*
X55255475Y-108134632D01*
X55378842Y-107950000D01*
X55933293Y-107950000D01*
X56035363Y-108102759D01*
X56235241Y-108302637D01*
X56470273Y-108459680D01*
X56731426Y-108567853D01*
X57008665Y-108623000D01*
X57291335Y-108623000D01*
X57568574Y-108567853D01*
X57829727Y-108459680D01*
X58064759Y-108302637D01*
X58264637Y-108102759D01*
X58421680Y-107867727D01*
X58529853Y-107606574D01*
X58585000Y-107329335D01*
X58585000Y-107046665D01*
X58529853Y-106769426D01*
X58421680Y-106508273D01*
X58264637Y-106273241D01*
X58064759Y-106073363D01*
X57829727Y-105916320D01*
X57568574Y-105808147D01*
X57291335Y-105753000D01*
X57008665Y-105753000D01*
X56731426Y-105808147D01*
X56470273Y-105916320D01*
X56235241Y-106073363D01*
X56035363Y-106273241D01*
X55933293Y-106426000D01*
X55378842Y-106426000D01*
X55255475Y-106241368D01*
X55048632Y-106034525D01*
X54874240Y-105918000D01*
X55048632Y-105801475D01*
X55255475Y-105594632D01*
X55417990Y-105351411D01*
X55529932Y-105081158D01*
X55587000Y-104794260D01*
X55587000Y-104501740D01*
X55532907Y-104229799D01*
X70447000Y-104229799D01*
X70447000Y-104281335D01*
X70502147Y-104558574D01*
X70610320Y-104819727D01*
X70767363Y-105054759D01*
X70967241Y-105254637D01*
X71202273Y-105411680D01*
X71463426Y-105519853D01*
X71740665Y-105575000D01*
X72023335Y-105575000D01*
X72300574Y-105519853D01*
X72561727Y-105411680D01*
X72564241Y-105410000D01*
X75727928Y-105410000D01*
X75727928Y-105498000D01*
X75740188Y-105622482D01*
X75776498Y-105742180D01*
X75835463Y-105852494D01*
X75914815Y-105949185D01*
X76011506Y-106028537D01*
X76121820Y-106087502D01*
X76241518Y-106123812D01*
X76366000Y-106136072D01*
X78066000Y-106136072D01*
X78190482Y-106123812D01*
X78310180Y-106087502D01*
X78420494Y-106028537D01*
X78517185Y-105949185D01*
X78596537Y-105852494D01*
X78655502Y-105742180D01*
X78691812Y-105622482D01*
X78704072Y-105498000D01*
X78704072Y-105410000D01*
X80456370Y-105410000D01*
X83780928Y-108734559D01*
X83780928Y-110145000D01*
X83793188Y-110269482D01*
X83829498Y-110389180D01*
X83888463Y-110499494D01*
X83967815Y-110596185D01*
X84064506Y-110675537D01*
X84174820Y-110734502D01*
X84294518Y-110770812D01*
X84419000Y-110783072D01*
X86269000Y-110783072D01*
X86393482Y-110770812D01*
X86513180Y-110734502D01*
X86623494Y-110675537D01*
X86720185Y-110596185D01*
X86799537Y-110499494D01*
X86858502Y-110389180D01*
X86894812Y-110269482D01*
X86907072Y-110145000D01*
X86907072Y-108295000D01*
X86894812Y-108170518D01*
X86858502Y-108050820D01*
X86799537Y-107940506D01*
X86720185Y-107843815D01*
X86623494Y-107764463D01*
X86513180Y-107705498D01*
X86393482Y-107669188D01*
X86269000Y-107656928D01*
X84858559Y-107656928D01*
X81337284Y-104135654D01*
X81313422Y-104106578D01*
X81197392Y-104011355D01*
X81065015Y-103940598D01*
X80921378Y-103897026D01*
X80809426Y-103886000D01*
X80809423Y-103886000D01*
X80772000Y-103882314D01*
X80734577Y-103886000D01*
X78704072Y-103886000D01*
X78704072Y-103798000D01*
X78691812Y-103673518D01*
X78655502Y-103553820D01*
X78596537Y-103443506D01*
X78517185Y-103346815D01*
X78420494Y-103267463D01*
X78310180Y-103208498D01*
X78190482Y-103172188D01*
X78066000Y-103159928D01*
X76366000Y-103159928D01*
X76241518Y-103172188D01*
X76121820Y-103208498D01*
X76011506Y-103267463D01*
X75914815Y-103346815D01*
X75835463Y-103443506D01*
X75776498Y-103553820D01*
X75740188Y-103673518D01*
X75727928Y-103798000D01*
X75727928Y-103886000D01*
X73294589Y-103886000D01*
X73261853Y-103721426D01*
X73153680Y-103460273D01*
X72996637Y-103225241D01*
X72796759Y-103025363D01*
X72564241Y-102870000D01*
X88385158Y-102870000D01*
X88508525Y-103054632D01*
X88715368Y-103261475D01*
X88958589Y-103423990D01*
X89228842Y-103535932D01*
X89515740Y-103593000D01*
X89808260Y-103593000D01*
X90095158Y-103535932D01*
X90365411Y-103423990D01*
X90608632Y-103261475D01*
X90815475Y-103054632D01*
X90977990Y-102811411D01*
X91089932Y-102541158D01*
X91147000Y-102254260D01*
X91147000Y-101961740D01*
X91089932Y-101674842D01*
X90977990Y-101404589D01*
X90815475Y-101161368D01*
X90608632Y-100954525D01*
X90434240Y-100838000D01*
X90608632Y-100721475D01*
X90815475Y-100514632D01*
X90977990Y-100271411D01*
X91089932Y-100001158D01*
X91147000Y-99714260D01*
X91147000Y-99421740D01*
X91089932Y-99134842D01*
X90977990Y-98864589D01*
X90815475Y-98621368D01*
X90608632Y-98414525D01*
X90434240Y-98298000D01*
X90608632Y-98181475D01*
X90815475Y-97974632D01*
X90977990Y-97731411D01*
X91089932Y-97461158D01*
X91147000Y-97174260D01*
X91147000Y-96881740D01*
X91089932Y-96594842D01*
X90977990Y-96324589D01*
X90815475Y-96081368D01*
X90608632Y-95874525D01*
X90434240Y-95758000D01*
X90608632Y-95641475D01*
X90815475Y-95434632D01*
X90977990Y-95191411D01*
X91089932Y-94921158D01*
X91147000Y-94634260D01*
X91147000Y-94341740D01*
X91089932Y-94054842D01*
X90977990Y-93784589D01*
X90815475Y-93541368D01*
X90608632Y-93334525D01*
X90426466Y-93212805D01*
X90543355Y-93143178D01*
X90759588Y-92948269D01*
X90933641Y-92714920D01*
X91058825Y-92452099D01*
X91103476Y-92304890D01*
X90982155Y-92075000D01*
X89789000Y-92075000D01*
X89789000Y-92095000D01*
X89535000Y-92095000D01*
X89535000Y-92075000D01*
X88341845Y-92075000D01*
X88220524Y-92304890D01*
X88265175Y-92452099D01*
X88390359Y-92714920D01*
X88564412Y-92948269D01*
X88780645Y-93143178D01*
X88897534Y-93212805D01*
X88715368Y-93334525D01*
X88508525Y-93541368D01*
X88385158Y-93726000D01*
X55378842Y-93726000D01*
X55255475Y-93541368D01*
X55048632Y-93334525D01*
X54866466Y-93212805D01*
X54983355Y-93143178D01*
X55199588Y-92948269D01*
X55373641Y-92714920D01*
X55498825Y-92452099D01*
X55543476Y-92304890D01*
X55422155Y-92075000D01*
X54229000Y-92075000D01*
X54229000Y-92095000D01*
X53975000Y-92095000D01*
X53975000Y-92075000D01*
X53955000Y-92075000D01*
X53955000Y-91821000D01*
X53975000Y-91821000D01*
X53975000Y-91801000D01*
X54229000Y-91801000D01*
X54229000Y-91821000D01*
X55422155Y-91821000D01*
X55543476Y-91591110D01*
X55498825Y-91443901D01*
X55373641Y-91181080D01*
X55199588Y-90947731D01*
X54983355Y-90752822D01*
X54866466Y-90683195D01*
X55048632Y-90561475D01*
X55255475Y-90354632D01*
X55378842Y-90170000D01*
X88173928Y-90170000D01*
X88173928Y-90258000D01*
X88186188Y-90382482D01*
X88222498Y-90502180D01*
X88281463Y-90612494D01*
X88360815Y-90709185D01*
X88457506Y-90788537D01*
X88567820Y-90847502D01*
X88648466Y-90871966D01*
X88564412Y-90947731D01*
X88390359Y-91181080D01*
X88265175Y-91443901D01*
X88220524Y-91591110D01*
X88341845Y-91821000D01*
X89535000Y-91821000D01*
X89535000Y-91801000D01*
X89789000Y-91801000D01*
X89789000Y-91821000D01*
X90982155Y-91821000D01*
X91103476Y-91591110D01*
X91058825Y-91443901D01*
X90933641Y-91181080D01*
X90759588Y-90947731D01*
X90675534Y-90871966D01*
X90756180Y-90847502D01*
X90866494Y-90788537D01*
X90963185Y-90709185D01*
X91042537Y-90612494D01*
X91101502Y-90502180D01*
X91137812Y-90382482D01*
X91150072Y-90258000D01*
X91150072Y-88558000D01*
X91137812Y-88433518D01*
X91101502Y-88313820D01*
X91042537Y-88203506D01*
X90963185Y-88106815D01*
X90866494Y-88027463D01*
X90756180Y-87968498D01*
X90636482Y-87932188D01*
X90512000Y-87919928D01*
X88812000Y-87919928D01*
X88687518Y-87932188D01*
X88567820Y-87968498D01*
X88457506Y-88027463D01*
X88360815Y-88106815D01*
X88281463Y-88203506D01*
X88222498Y-88313820D01*
X88186188Y-88433518D01*
X88173928Y-88558000D01*
X88173928Y-88646000D01*
X55378842Y-88646000D01*
X55255475Y-88461368D01*
X55123620Y-88329513D01*
X55196180Y-88307502D01*
X55306494Y-88248537D01*
X55403185Y-88169185D01*
X55482537Y-88072494D01*
X55541502Y-87962180D01*
X55577812Y-87842482D01*
X55590072Y-87718000D01*
X55590072Y-86018000D01*
X55577812Y-85893518D01*
X55541502Y-85773820D01*
X55482537Y-85663506D01*
X55403185Y-85566815D01*
X55306494Y-85487463D01*
X55295854Y-85481776D01*
X56703631Y-84074000D01*
X59489293Y-84074000D01*
X59591363Y-84226759D01*
X59791241Y-84426637D01*
X59944001Y-84528708D01*
X59944001Y-84798567D01*
X59940314Y-84836000D01*
X59955027Y-84985378D01*
X59998599Y-85129015D01*
X60069355Y-85261392D01*
X60140721Y-85348351D01*
X60164579Y-85377422D01*
X60193649Y-85401279D01*
X60902720Y-86110351D01*
X60926578Y-86139422D01*
X60955648Y-86163279D01*
X61042607Y-86234645D01*
X61113364Y-86272465D01*
X61174985Y-86305402D01*
X61318622Y-86348974D01*
X61430574Y-86360000D01*
X61430577Y-86360000D01*
X61468000Y-86363686D01*
X61505423Y-86360000D01*
X76997928Y-86360000D01*
X76997928Y-86448000D01*
X77010188Y-86572482D01*
X77046498Y-86692180D01*
X77105463Y-86802494D01*
X77184815Y-86899185D01*
X77281506Y-86978537D01*
X77391820Y-87037502D01*
X77511518Y-87073812D01*
X77636000Y-87086072D01*
X79336000Y-87086072D01*
X79460482Y-87073812D01*
X79580180Y-87037502D01*
X79690494Y-86978537D01*
X79787185Y-86899185D01*
X79866537Y-86802494D01*
X79925502Y-86692180D01*
X79961812Y-86572482D01*
X79974072Y-86448000D01*
X79974072Y-86360000D01*
X84936577Y-86360000D01*
X84974000Y-86363686D01*
X85011423Y-86360000D01*
X85011426Y-86360000D01*
X85123378Y-86348974D01*
X85267015Y-86305402D01*
X85399392Y-86234645D01*
X85515422Y-86139422D01*
X85539284Y-86110346D01*
X88904353Y-82745278D01*
X88933422Y-82721422D01*
X88971228Y-82675355D01*
X89028645Y-82605393D01*
X89076692Y-82515502D01*
X89099402Y-82473015D01*
X89112191Y-82430854D01*
X89117579Y-82434377D01*
X89354617Y-82519900D01*
X89535000Y-82394244D01*
X89535000Y-81653560D01*
X89545071Y-81620360D01*
X89562000Y-81448477D01*
X89562000Y-80603524D01*
X89545071Y-80431641D01*
X89535000Y-80398441D01*
X89535000Y-79657756D01*
X89354617Y-79532100D01*
X89117579Y-79617623D01*
X89029596Y-79675154D01*
X88841906Y-79574831D01*
X88621360Y-79507929D01*
X88392000Y-79485339D01*
X88162641Y-79507929D01*
X87942095Y-79574831D01*
X87757001Y-79673766D01*
X87571906Y-79574831D01*
X87351360Y-79507929D01*
X87122000Y-79485339D01*
X86892641Y-79507929D01*
X86672095Y-79574831D01*
X86468839Y-79683474D01*
X86290683Y-79829682D01*
X86144475Y-80007838D01*
X86035831Y-80211094D01*
X85968929Y-80431640D01*
X85952000Y-80603523D01*
X85952000Y-81118369D01*
X85029020Y-82041349D01*
X85005502Y-81963820D01*
X84946537Y-81853506D01*
X84867185Y-81756815D01*
X84770494Y-81677463D01*
X84660180Y-81618498D01*
X84540482Y-81582188D01*
X84416000Y-81569928D01*
X82716000Y-81569928D01*
X82591518Y-81582188D01*
X82471820Y-81618498D01*
X82361506Y-81677463D01*
X82264815Y-81756815D01*
X82185463Y-81853506D01*
X82126498Y-81963820D01*
X82090188Y-82083518D01*
X82077928Y-82208000D01*
X82077928Y-82296000D01*
X81849630Y-82296000D01*
X81788000Y-82234370D01*
X81788000Y-80718707D01*
X81940759Y-80616637D01*
X82140637Y-80416759D01*
X82297680Y-80181727D01*
X82405853Y-79920574D01*
X82461000Y-79643335D01*
X82461000Y-79360665D01*
X82405853Y-79083426D01*
X82297680Y-78822273D01*
X82140637Y-78587241D01*
X81940759Y-78387363D01*
X81705727Y-78230320D01*
X81444574Y-78122147D01*
X81167335Y-78067000D01*
X80884665Y-78067000D01*
X80607426Y-78122147D01*
X80346273Y-78230320D01*
X80111241Y-78387363D01*
X79911363Y-78587241D01*
X79754320Y-78822273D01*
X79646147Y-79083426D01*
X79591000Y-79360665D01*
X79591000Y-79643335D01*
X79646147Y-79920574D01*
X79754320Y-80181727D01*
X79911363Y-80416759D01*
X80111241Y-80616637D01*
X80264000Y-80718707D01*
X80264001Y-82512567D01*
X80260314Y-82550000D01*
X80275027Y-82699378D01*
X80318599Y-82843015D01*
X80389355Y-82975392D01*
X80457150Y-83058000D01*
X80484579Y-83091422D01*
X80513649Y-83115279D01*
X80968716Y-83570346D01*
X80992578Y-83599422D01*
X81108608Y-83694645D01*
X81240985Y-83765402D01*
X81384622Y-83808974D01*
X81496574Y-83820000D01*
X81496583Y-83820000D01*
X81533999Y-83823685D01*
X81571415Y-83820000D01*
X82077928Y-83820000D01*
X82077928Y-83908000D01*
X82090188Y-84032482D01*
X82126498Y-84152180D01*
X82185463Y-84262494D01*
X82264815Y-84359185D01*
X82361506Y-84438537D01*
X82471820Y-84497502D01*
X82591518Y-84533812D01*
X82716000Y-84546072D01*
X84416000Y-84546072D01*
X84540482Y-84533812D01*
X84660180Y-84497502D01*
X84770494Y-84438537D01*
X84867185Y-84359185D01*
X84946537Y-84262494D01*
X85005502Y-84152180D01*
X85041812Y-84032482D01*
X85054072Y-83908000D01*
X85054072Y-83820147D01*
X85090000Y-83823686D01*
X85127423Y-83820000D01*
X85127426Y-83820000D01*
X85239378Y-83808974D01*
X85383015Y-83765402D01*
X85515392Y-83694645D01*
X85631422Y-83599422D01*
X85655284Y-83570346D01*
X86730687Y-82494943D01*
X86892640Y-82544071D01*
X86945129Y-82549241D01*
X84658370Y-84836000D01*
X79974072Y-84836000D01*
X79974072Y-84748000D01*
X79961812Y-84623518D01*
X79925502Y-84503820D01*
X79866537Y-84393506D01*
X79787185Y-84296815D01*
X79690494Y-84217463D01*
X79580180Y-84158498D01*
X79460482Y-84122188D01*
X79336000Y-84109928D01*
X77636000Y-84109928D01*
X77511518Y-84122188D01*
X77391820Y-84158498D01*
X77281506Y-84217463D01*
X77184815Y-84296815D01*
X77105463Y-84393506D01*
X77046498Y-84503820D01*
X77010188Y-84623518D01*
X76997928Y-84748000D01*
X76997928Y-84836000D01*
X61783631Y-84836000D01*
X61472998Y-84525368D01*
X61620759Y-84426637D01*
X61820637Y-84226759D01*
X61977680Y-83991727D01*
X62085853Y-83730574D01*
X62141000Y-83453335D01*
X62141000Y-83170665D01*
X62085853Y-82893426D01*
X61977680Y-82632273D01*
X61820637Y-82397241D01*
X61719396Y-82296000D01*
X65331939Y-82296000D01*
X65369362Y-82299686D01*
X65406785Y-82296000D01*
X65406788Y-82296000D01*
X65518740Y-82284974D01*
X65662377Y-82241402D01*
X65794754Y-82170645D01*
X65910784Y-82075422D01*
X65934646Y-82046346D01*
X67146213Y-80834780D01*
X67248060Y-80803885D01*
X67437001Y-80702894D01*
X67625941Y-80803885D01*
X67844601Y-80870215D01*
X68072000Y-80892612D01*
X68299400Y-80870215D01*
X68518060Y-80803885D01*
X68719579Y-80696171D01*
X68896212Y-80551212D01*
X69041171Y-80374579D01*
X69100276Y-80264000D01*
X69649293Y-80264000D01*
X69751363Y-80416759D01*
X69951241Y-80616637D01*
X70104001Y-80718708D01*
X70104000Y-82095293D01*
X69951241Y-82197363D01*
X69751363Y-82397241D01*
X69594320Y-82632273D01*
X69486147Y-82893426D01*
X69431000Y-83170665D01*
X69431000Y-83453335D01*
X69486147Y-83730574D01*
X69594320Y-83991727D01*
X69751363Y-84226759D01*
X69951241Y-84426637D01*
X70186273Y-84583680D01*
X70447426Y-84691853D01*
X70724665Y-84747000D01*
X71007335Y-84747000D01*
X71284574Y-84691853D01*
X71545727Y-84583680D01*
X71780759Y-84426637D01*
X71980637Y-84226759D01*
X72137680Y-83991727D01*
X72245853Y-83730574D01*
X72301000Y-83453335D01*
X72301000Y-83170665D01*
X72245853Y-82893426D01*
X72137680Y-82632273D01*
X71980637Y-82397241D01*
X71780759Y-82197363D01*
X71628000Y-82095293D01*
X71628000Y-80718707D01*
X71780759Y-80616637D01*
X71980637Y-80416759D01*
X72137680Y-80181727D01*
X72245853Y-79920574D01*
X72301000Y-79643335D01*
X72301000Y-79360665D01*
X72245853Y-79083426D01*
X72137680Y-78822273D01*
X71980637Y-78587241D01*
X71780759Y-78387363D01*
X71545727Y-78230320D01*
X71284574Y-78122147D01*
X71007335Y-78067000D01*
X70724665Y-78067000D01*
X70447426Y-78122147D01*
X70186273Y-78230320D01*
X69951241Y-78387363D01*
X69751363Y-78587241D01*
X69649293Y-78740000D01*
X69100277Y-78740000D01*
X69041171Y-78629421D01*
X68896212Y-78452788D01*
X68719578Y-78307829D01*
X68518059Y-78200115D01*
X68299399Y-78133785D01*
X68072000Y-78111388D01*
X67844600Y-78133785D01*
X67625940Y-78200115D01*
X67437000Y-78301106D01*
X67248059Y-78200115D01*
X67029399Y-78133785D01*
X66802000Y-78111388D01*
X66574600Y-78133785D01*
X66365902Y-78197093D01*
X66301180Y-78162498D01*
X66181482Y-78126188D01*
X66057000Y-78113928D01*
X65221558Y-78113928D01*
X63955330Y-76847700D01*
X91808300Y-76847700D01*
X91808300Y-79588411D01*
G37*
G04 #@! TD.AperFunction*
G04 #@! TD*
M02*
