G04 #@! TF.GenerationSoftware,KiCad,Pcbnew,5.1.8-db9833491~87~ubuntu20.04.1*
G04 #@! TF.CreationDate,2020-11-14T17:48:48-07:00*
G04 #@! TF.ProjectId,heimdall_outsideboard,6865696d-6461-46c6-9c5f-6f7574736964,01*
G04 #@! TF.SameCoordinates,Original*
G04 #@! TF.FileFunction,Copper,L2,Bot*
G04 #@! TF.FilePolarity,Positive*
%FSLAX46Y46*%
G04 Gerber Fmt 4.6, Leading zero omitted, Abs format (unit mm)*
G04 Created by KiCad (PCBNEW 5.1.8-db9833491~87~ubuntu20.04.1) date 2020-11-14 17:48:48*
%MOMM*%
%LPD*%
G01*
G04 APERTURE LIST*
G04 #@! TA.AperFunction,ComponentPad*
%ADD10R,1.050000X1.500000*%
G04 #@! TD*
G04 #@! TA.AperFunction,ComponentPad*
%ADD11O,1.050000X1.500000*%
G04 #@! TD*
G04 #@! TA.AperFunction,ComponentPad*
%ADD12R,1.700000X1.700000*%
G04 #@! TD*
G04 #@! TA.AperFunction,ComponentPad*
%ADD13O,1.700000X1.700000*%
G04 #@! TD*
G04 #@! TA.AperFunction,ComponentPad*
%ADD14R,1.850000X1.850000*%
G04 #@! TD*
G04 #@! TA.AperFunction,ComponentPad*
%ADD15C,1.850000*%
G04 #@! TD*
G04 #@! TA.AperFunction,ComponentPad*
%ADD16O,1.600000X1.600000*%
G04 #@! TD*
G04 #@! TA.AperFunction,ComponentPad*
%ADD17C,1.600000*%
G04 #@! TD*
G04 #@! TA.AperFunction,ComponentPad*
%ADD18R,1.070000X1.800000*%
G04 #@! TD*
G04 #@! TA.AperFunction,ComponentPad*
%ADD19O,1.070000X1.800000*%
G04 #@! TD*
G04 APERTURE END LIST*
D10*
G04 #@! TO.P,Q1,1*
G04 #@! TO.N,GND*
X65024000Y-112776000D03*
D11*
G04 #@! TO.P,Q1,3*
G04 #@! TO.N,Net-(BZ1-Pad2)*
X67564000Y-112776000D03*
G04 #@! TO.P,Q1,2*
G04 #@! TO.N,Net-(Q1-Pad2)*
X66294000Y-112776000D03*
G04 #@! TD*
D12*
G04 #@! TO.P,J6,1*
G04 #@! TO.N,+5V*
X78486000Y-85598000D03*
G04 #@! TD*
G04 #@! TO.P,J5,1*
G04 #@! TO.N,Net-(D1-Pad4)*
X83566000Y-83058000D03*
G04 #@! TD*
G04 #@! TO.P,J4,1*
G04 #@! TO.N,Net-(BZ1-Pad2)*
X76454000Y-113792000D03*
G04 #@! TD*
G04 #@! TO.P,J3,1*
G04 #@! TO.N,+3V3*
X77216000Y-104648000D03*
G04 #@! TD*
G04 #@! TO.P,J1,1*
G04 #@! TO.N,+5V*
X54102000Y-86868000D03*
D13*
G04 #@! TO.P,J1,2*
G04 #@! TO.N,+3V3*
X54102000Y-89408000D03*
G04 #@! TO.P,J1,3*
G04 #@! TO.N,GND*
X54102000Y-91948000D03*
G04 #@! TO.P,J1,4*
G04 #@! TO.N,/CS*
X54102000Y-94488000D03*
G04 #@! TO.P,J1,5*
G04 #@! TO.N,/SCK*
X54102000Y-97028000D03*
G04 #@! TO.P,J1,6*
G04 #@! TO.N,/MOSI*
X54102000Y-99568000D03*
G04 #@! TO.P,J1,7*
G04 #@! TO.N,/MISO*
X54102000Y-102108000D03*
G04 #@! TO.P,J1,8*
G04 #@! TO.N,/LED*
X54102000Y-104648000D03*
G04 #@! TO.P,J1,9*
G04 #@! TO.N,/Buzzer*
X54102000Y-107188000D03*
G04 #@! TD*
D14*
G04 #@! TO.P,BZ1,1*
G04 #@! TO.N,+3V3*
X85344000Y-109220000D03*
D15*
G04 #@! TO.P,BZ1,2*
G04 #@! TO.N,Net-(BZ1-Pad2)*
X85344000Y-114220000D03*
G04 #@! TD*
D12*
G04 #@! TO.P,J2,1*
G04 #@! TO.N,+3V3*
X89662000Y-89408000D03*
D13*
G04 #@! TO.P,J2,2*
G04 #@! TO.N,GND*
X89662000Y-91948000D03*
G04 #@! TO.P,J2,3*
G04 #@! TO.N,/CS*
X89662000Y-94488000D03*
G04 #@! TO.P,J2,4*
G04 #@! TO.N,/SCK*
X89662000Y-97028000D03*
G04 #@! TO.P,J2,5*
G04 #@! TO.N,/MOSI*
X89662000Y-99568000D03*
G04 #@! TO.P,J2,6*
G04 #@! TO.N,/MISO*
X89662000Y-102108000D03*
G04 #@! TD*
D11*
G04 #@! TO.P,Q2,2*
G04 #@! TO.N,+3V3*
X66802000Y-79502000D03*
G04 #@! TO.P,Q2,3*
G04 #@! TO.N,Net-(Q2-Pad3)*
X68072000Y-79502000D03*
D10*
G04 #@! TO.P,Q2,1*
G04 #@! TO.N,/LED*
X65532000Y-79502000D03*
G04 #@! TD*
D16*
G04 #@! TO.P,R1,2*
G04 #@! TO.N,+3V3*
X52578000Y-79502000D03*
D17*
G04 #@! TO.P,R1,1*
G04 #@! TO.N,/LED*
X62738000Y-79502000D03*
G04 #@! TD*
G04 #@! TO.P,R2,1*
G04 #@! TO.N,/Buzzer*
X57150000Y-107188000D03*
D16*
G04 #@! TO.P,R2,2*
G04 #@! TO.N,Net-(Q1-Pad2)*
X67310000Y-107188000D03*
G04 #@! TD*
D17*
G04 #@! TO.P,R3,1*
G04 #@! TO.N,Net-(BZ1-Pad2)*
X71882000Y-114300000D03*
D16*
G04 #@! TO.P,R3,2*
G04 #@! TO.N,+3V3*
X71882000Y-104140000D03*
G04 #@! TD*
G04 #@! TO.P,R4,2*
G04 #@! TO.N,Net-(Q2-Pad3)*
X70866000Y-83312000D03*
D17*
G04 #@! TO.P,R4,1*
G04 #@! TO.N,+5V*
X60706000Y-83312000D03*
G04 #@! TD*
G04 #@! TO.P,R5,1*
G04 #@! TO.N,Net-(Q2-Pad3)*
X70866000Y-79502000D03*
D16*
G04 #@! TO.P,R5,2*
G04 #@! TO.N,Net-(D1-Pad4)*
X81026000Y-79502000D03*
G04 #@! TD*
D18*
G04 #@! TO.P,D1,1*
G04 #@! TO.N,Net-(D1-Pad1)*
X90932000Y-81026000D03*
D19*
G04 #@! TO.P,D1,2*
G04 #@! TO.N,GND*
X89662000Y-81026000D03*
G04 #@! TO.P,D1,3*
G04 #@! TO.N,+5V*
X88392000Y-81026000D03*
G04 #@! TO.P,D1,4*
G04 #@! TO.N,Net-(D1-Pad4)*
X87122000Y-81026000D03*
G04 #@! TD*
M02*
